G04 (created by PCBNEW (2013-jul-07)-stable) date Вт. 10 марта 2015 12:09:48*
%MOIN*%
G04 Gerber Fmt 3.4, Leading zero omitted, Abs format*
%FSLAX34Y34*%
G01*
G70*
G90*
G04 APERTURE LIST*
%ADD10C,0.00393701*%
%ADD11R,0.0659055X0.0659055*%
%ADD12C,0.0659055*%
%ADD13O,0.0659055X0.0659055*%
%ADD14R,0.222406X0.0878055*%
%ADD15R,0.0531055X0.0335055*%
%ADD16C,0.0759055*%
%ADD17R,0.0309055X0.0709055*%
%ADD18R,0.0334055X0.0413055*%
%ADD19R,0.0374016X0.0413386*%
%ADD20R,0.0767717X0.0413386*%
%ADD21C,0.124016*%
%ADD22R,0.0295276X0.015748*%
%ADD23R,0.015748X0.0295276*%
%ADD24R,0.133858X0.133858*%
%ADD25R,0.0295276X0.0374016*%
%ADD26R,0.0374016X0.0295276*%
%ADD27R,0.015748X0.0531496*%
%ADD28R,0.0531496X0.015748*%
%ADD29R,0.0688976X0.019685*%
%ADD30R,0.0255906X0.0688976*%
%ADD31C,0.0728346*%
%ADD32C,0.163386*%
%ADD33R,0.0846457X0.0767717*%
%ADD34C,0.202756*%
%ADD35R,0.0649606X0.202756*%
%ADD36R,0.0452756X0.202756*%
G04 APERTURE END LIST*
G54D10*
G54D11*
X69170Y-42372D03*
G54D12*
X69170Y-41585D03*
X69957Y-42372D03*
X69957Y-41585D03*
G54D13*
X70745Y-42372D03*
X70745Y-41585D03*
X71532Y-42372D03*
X71532Y-41585D03*
X72320Y-42372D03*
X72320Y-41585D03*
X73107Y-42372D03*
X73107Y-41585D03*
X73894Y-42372D03*
X73894Y-41585D03*
G54D14*
X70195Y-38031D03*
X73935Y-38031D03*
G54D15*
X64094Y-26791D03*
X62638Y-26791D03*
G54D16*
X62970Y-24415D03*
X63970Y-24415D03*
G54D17*
X66105Y-28885D03*
X66605Y-28885D03*
X67105Y-28885D03*
X67605Y-28885D03*
X67605Y-26635D03*
X67105Y-26635D03*
X66605Y-26635D03*
X66105Y-26635D03*
G54D18*
X68825Y-27225D03*
X69335Y-27225D03*
G54D19*
X40688Y-28464D03*
G54D20*
X40964Y-29035D03*
X40964Y-27893D03*
G54D19*
X41240Y-28464D03*
G54D21*
X39370Y-41338D03*
X41732Y-41338D03*
G54D22*
X43755Y-28009D03*
X43755Y-28206D03*
X43755Y-28403D03*
X43755Y-28600D03*
X43755Y-28796D03*
X43755Y-28993D03*
X43755Y-29190D03*
G54D23*
X44109Y-29544D03*
X44306Y-29544D03*
X44503Y-29544D03*
X44700Y-29544D03*
X44896Y-29544D03*
X45093Y-29544D03*
X45290Y-29544D03*
G54D22*
X45644Y-29190D03*
X45644Y-28993D03*
X45644Y-28796D03*
X45644Y-28600D03*
X45644Y-28403D03*
X45644Y-28206D03*
X45644Y-28009D03*
G54D23*
X45290Y-27655D03*
X45093Y-27655D03*
X44896Y-27655D03*
X44700Y-27655D03*
X44503Y-27655D03*
X44306Y-27655D03*
X44109Y-27655D03*
G54D24*
X44700Y-28600D03*
G54D25*
X43011Y-36043D03*
X42460Y-36043D03*
G54D26*
X70367Y-28586D03*
X70367Y-29137D03*
X69802Y-28586D03*
X69802Y-29137D03*
X69232Y-28586D03*
X69232Y-29137D03*
X74625Y-29133D03*
X74625Y-28582D03*
G54D25*
X73880Y-39801D03*
X73329Y-39801D03*
X70249Y-39801D03*
X70800Y-39801D03*
G54D26*
X67040Y-25805D03*
X67040Y-25254D03*
X67605Y-25805D03*
X67605Y-25254D03*
X65345Y-26839D03*
X65345Y-27390D03*
X62970Y-25349D03*
X62970Y-25900D03*
X63745Y-25349D03*
X63745Y-25900D03*
G54D25*
X61194Y-24240D03*
X61745Y-24240D03*
G54D26*
X66830Y-31614D03*
X66830Y-32165D03*
X66830Y-32854D03*
X66830Y-33405D03*
G54D25*
X67169Y-34385D03*
X67720Y-34385D03*
X67629Y-34960D03*
X68180Y-34960D03*
X67027Y-35885D03*
X67578Y-35885D03*
X67027Y-36496D03*
X67578Y-36496D03*
X67027Y-37322D03*
X67578Y-37322D03*
X67380Y-40970D03*
X66829Y-40970D03*
X66100Y-40970D03*
X65549Y-40970D03*
X64410Y-40975D03*
X63859Y-40975D03*
X63130Y-40975D03*
X62579Y-40975D03*
X61440Y-40975D03*
X60889Y-40975D03*
X60160Y-40975D03*
X59609Y-40975D03*
G54D26*
X61496Y-35944D03*
X61496Y-35393D03*
G54D25*
X61335Y-33290D03*
X60784Y-33290D03*
G54D26*
X61358Y-31614D03*
X61358Y-32165D03*
G54D25*
X41712Y-36633D03*
X41161Y-36633D03*
X43011Y-34783D03*
X42460Y-34783D03*
G54D26*
X41751Y-31102D03*
X41751Y-31653D03*
X43897Y-37421D03*
X43897Y-37972D03*
X43897Y-39645D03*
X43897Y-40196D03*
X40492Y-31102D03*
X40492Y-31653D03*
G54D25*
X49655Y-25305D03*
X50206Y-25305D03*
G54D26*
X44527Y-37421D03*
X44527Y-37972D03*
G54D25*
X44566Y-36909D03*
X45118Y-36909D03*
G54D26*
X45157Y-37421D03*
X45157Y-37972D03*
X44527Y-39645D03*
X44527Y-40196D03*
G54D25*
X44566Y-39133D03*
X45118Y-39133D03*
G54D26*
X45157Y-39645D03*
X45157Y-40196D03*
X41122Y-31102D03*
X41122Y-31653D03*
G54D25*
X41181Y-30511D03*
X41732Y-30511D03*
X49655Y-25935D03*
X50206Y-25935D03*
G54D26*
X49084Y-25974D03*
X49084Y-26525D03*
G54D25*
X49655Y-26564D03*
X50206Y-26564D03*
X43011Y-35413D03*
X42460Y-35413D03*
G54D26*
X42244Y-37421D03*
X42244Y-37972D03*
X43523Y-35374D03*
X43523Y-34822D03*
G54D10*
G36*
X48640Y-31052D02*
X48375Y-31317D01*
X48166Y-31108D01*
X48431Y-30844D01*
X48640Y-31052D01*
X48640Y-31052D01*
G37*
G36*
X48250Y-30663D02*
X47985Y-30927D01*
X47777Y-30718D01*
X48041Y-30454D01*
X48250Y-30663D01*
X48250Y-30663D01*
G37*
G54D26*
X56377Y-30551D03*
X56377Y-30000D03*
X42244Y-39724D03*
X42244Y-39173D03*
G54D25*
X67027Y-37952D03*
X67578Y-37952D03*
X60820Y-35175D03*
X60269Y-35175D03*
X61070Y-34645D03*
X60519Y-34645D03*
X61070Y-34115D03*
X60519Y-34115D03*
G54D26*
X58715Y-35325D03*
X58715Y-34774D03*
X58715Y-33584D03*
X58715Y-34135D03*
X59245Y-33584D03*
X59245Y-34135D03*
X59775Y-33584D03*
X59775Y-34135D03*
X57007Y-30551D03*
X57007Y-30000D03*
G54D25*
X53622Y-32874D03*
X53070Y-32874D03*
X53622Y-33681D03*
X53070Y-33681D03*
X53622Y-34311D03*
X53070Y-34311D03*
X53267Y-26377D03*
X53818Y-26377D03*
X53267Y-27007D03*
X53818Y-27007D03*
X50285Y-28840D03*
X49734Y-28840D03*
X50285Y-28310D03*
X49734Y-28310D03*
X49655Y-27194D03*
X50206Y-27194D03*
G54D26*
X48287Y-25610D03*
X48287Y-26161D03*
X47657Y-25610D03*
X47657Y-26161D03*
X46476Y-34173D03*
X46476Y-33622D03*
X45846Y-34173D03*
X45846Y-33622D03*
X45216Y-34173D03*
X45216Y-33622D03*
X47421Y-31082D03*
X47421Y-30531D03*
X42381Y-31102D03*
X42381Y-31653D03*
X44901Y-30531D03*
X44901Y-31082D03*
X44606Y-31555D03*
X44606Y-32106D03*
X45157Y-32106D03*
X45157Y-31555D03*
X43641Y-30531D03*
X43641Y-31082D03*
X45531Y-30531D03*
X45531Y-31082D03*
X44271Y-30531D03*
X44271Y-31082D03*
X46791Y-30531D03*
X46791Y-31082D03*
X46161Y-30531D03*
X46161Y-31082D03*
X46614Y-28346D03*
X46614Y-27795D03*
X47244Y-28346D03*
X47244Y-27795D03*
G54D25*
X42500Y-28759D03*
X41948Y-28759D03*
X42500Y-28129D03*
X41948Y-28129D03*
G54D26*
X43195Y-26905D03*
X43195Y-26354D03*
X44212Y-26909D03*
X44212Y-26358D03*
X44783Y-26909D03*
X44783Y-26358D03*
G54D25*
X45295Y-27066D03*
X45846Y-27066D03*
X45295Y-26437D03*
X45846Y-26437D03*
G54D27*
X51713Y-27675D03*
X51910Y-27675D03*
X52107Y-27675D03*
X52304Y-27675D03*
X52501Y-27675D03*
X52697Y-27675D03*
X52894Y-27675D03*
X53091Y-27675D03*
X53288Y-27675D03*
X53485Y-27675D03*
X53682Y-27675D03*
X53878Y-27675D03*
X54075Y-27675D03*
X54272Y-27675D03*
X54469Y-27675D03*
X54666Y-27675D03*
G54D28*
X55434Y-31396D03*
X55434Y-31199D03*
X55434Y-31002D03*
X55434Y-30805D03*
X55434Y-30608D03*
X55434Y-30412D03*
X55434Y-30215D03*
X55434Y-30018D03*
X55434Y-29821D03*
X55434Y-29624D03*
X55434Y-29427D03*
X55434Y-29231D03*
X55434Y-29034D03*
X55434Y-28837D03*
X55434Y-28640D03*
X55434Y-28443D03*
G54D27*
X54666Y-32164D03*
X54469Y-32164D03*
X54272Y-32164D03*
X54075Y-32164D03*
X53878Y-32164D03*
X53682Y-32164D03*
X53485Y-32164D03*
X53288Y-32164D03*
X53091Y-32164D03*
X52894Y-32164D03*
X52697Y-32164D03*
X52501Y-32164D03*
X52304Y-32164D03*
X52107Y-32164D03*
X51910Y-32164D03*
X51713Y-32164D03*
G54D28*
X50945Y-28443D03*
X50945Y-28640D03*
X50945Y-28837D03*
X50945Y-29034D03*
X50945Y-29231D03*
X50945Y-29427D03*
X50945Y-29624D03*
X50945Y-29821D03*
X50945Y-30018D03*
X50945Y-30215D03*
X50945Y-30412D03*
X50945Y-30608D03*
X50945Y-30805D03*
X50945Y-31002D03*
X50945Y-31199D03*
X50945Y-31396D03*
G54D10*
G36*
X45651Y-25246D02*
X45915Y-24981D01*
X46124Y-25190D01*
X45859Y-25455D01*
X45651Y-25246D01*
X45651Y-25246D01*
G37*
G36*
X46040Y-25636D02*
X46305Y-25371D01*
X46514Y-25580D01*
X46249Y-25844D01*
X46040Y-25636D01*
X46040Y-25636D01*
G37*
G54D29*
X66040Y-37425D03*
X66040Y-37175D03*
X66040Y-36925D03*
X66040Y-36675D03*
X66040Y-36425D03*
X66040Y-36175D03*
X66040Y-35925D03*
X66040Y-35675D03*
X66040Y-35425D03*
X66040Y-35175D03*
X66040Y-34925D03*
X66040Y-34675D03*
X66040Y-34425D03*
X66040Y-34175D03*
X66040Y-33925D03*
X66040Y-33675D03*
X66040Y-33425D03*
X66040Y-33175D03*
X66040Y-32925D03*
X66040Y-32675D03*
X66040Y-32425D03*
X66040Y-32175D03*
X66040Y-31925D03*
X66040Y-31675D03*
X66040Y-31425D03*
X66040Y-31175D03*
X66040Y-30925D03*
X66040Y-30675D03*
X62290Y-30675D03*
X62290Y-30925D03*
X62290Y-31175D03*
X62290Y-31425D03*
X62290Y-31675D03*
X62290Y-31925D03*
X62290Y-32175D03*
X62290Y-32425D03*
X62290Y-32675D03*
X62290Y-32925D03*
X62290Y-33175D03*
X62290Y-33425D03*
X62290Y-33675D03*
X62290Y-33925D03*
X62290Y-34175D03*
X62290Y-34425D03*
X62290Y-34675D03*
X62290Y-34925D03*
X62290Y-35175D03*
X62290Y-35425D03*
X62290Y-35675D03*
X62290Y-35925D03*
X62290Y-36175D03*
X62290Y-36425D03*
X62290Y-36675D03*
X62290Y-36925D03*
X62290Y-37175D03*
X62290Y-37425D03*
G54D30*
X41694Y-39732D03*
X41194Y-39732D03*
X40694Y-39732D03*
X40194Y-39732D03*
X40194Y-37432D03*
X40694Y-37432D03*
X41194Y-37432D03*
X41694Y-37432D03*
G54D31*
X72775Y-33700D03*
X72775Y-32716D03*
X73562Y-33700D03*
X73562Y-32716D03*
G54D32*
X74629Y-35578D03*
X74629Y-30838D03*
G54D33*
X47419Y-34188D03*
X47419Y-32188D03*
X48919Y-32188D03*
X48919Y-34188D03*
G54D34*
X76771Y-23622D03*
X76771Y-41338D03*
X37401Y-41338D03*
X37401Y-23622D03*
G54D35*
X51614Y-42125D03*
X48267Y-42125D03*
G54D36*
X49940Y-42125D03*
G54D35*
X39665Y-22834D03*
X43011Y-22834D03*
G54D36*
X41338Y-22834D03*
G54D35*
X44822Y-22834D03*
X48169Y-22834D03*
G54D36*
X46496Y-22834D03*
M02*
