G04 (created by PCBNEW (2013-jul-07)-stable) date Пт. 06 марта 2015 16:18:19*
%MOIN*%
G04 Gerber Fmt 3.4, Leading zero omitted, Abs format*
%FSLAX34Y34*%
G01*
G70*
G90*
G04 APERTURE LIST*
%ADD10C,0.00393701*%
%ADD11R,0.06X0.06*%
%ADD12C,0.06*%
%ADD13O,0.06X0.06*%
%ADD14C,0.07*%
%ADD15C,0.0669291*%
%ADD16C,0.15748*%
%ADD17C,0.19685*%
%ADD18R,0.0590551X0.19685*%
%ADD19C,0.0275591*%
%ADD20C,0.0098*%
%ADD21C,0.0197*%
%ADD22C,0.00984252*%
%ADD23C,0.0393701*%
%ADD24C,0.019685*%
%ADD25C,0.00787402*%
%ADD26C,0.011811*%
%ADD27C,0.0122*%
G04 APERTURE END LIST*
G54D10*
G54D11*
X69170Y-42372D03*
G54D12*
X69170Y-41585D03*
X69957Y-42372D03*
X69957Y-41585D03*
G54D13*
X70745Y-42372D03*
X70745Y-41585D03*
X71532Y-42372D03*
X71532Y-41585D03*
X72320Y-42372D03*
X72320Y-41585D03*
X73107Y-42372D03*
X73107Y-41585D03*
X73894Y-42372D03*
X73894Y-41585D03*
G54D14*
X62970Y-24415D03*
X63970Y-24415D03*
G54D15*
X72775Y-33700D03*
X72775Y-32716D03*
X73562Y-33700D03*
X73562Y-32716D03*
G54D16*
X74629Y-35578D03*
X74629Y-30838D03*
G54D17*
X76771Y-23622D03*
X76771Y-41338D03*
X37401Y-41338D03*
X37401Y-23622D03*
G54D18*
X48267Y-42125D03*
X51614Y-42125D03*
X43011Y-22834D03*
X39665Y-22834D03*
X48169Y-22834D03*
X44822Y-22834D03*
G54D19*
X43545Y-27700D03*
X51650Y-29230D03*
X64470Y-41465D03*
X53095Y-30830D03*
X51715Y-28255D03*
X61135Y-24740D03*
X50275Y-29921D03*
X43248Y-29389D03*
X53380Y-31125D03*
X67950Y-40970D03*
X64570Y-31770D03*
X67390Y-27585D03*
X63235Y-32935D03*
X43065Y-30015D03*
X65160Y-31770D03*
X68300Y-26635D03*
X63235Y-33390D03*
X43415Y-29745D03*
X54490Y-31425D03*
X53660Y-31425D03*
X54340Y-30775D03*
X54075Y-31165D03*
X45531Y-26062D03*
X42500Y-27696D03*
X43001Y-30777D03*
X45216Y-30807D03*
X43759Y-29488D03*
X49153Y-27952D03*
X47913Y-28366D03*
X46476Y-29822D03*
X50196Y-27874D03*
X53622Y-39035D03*
X53622Y-36968D03*
X62972Y-26259D03*
X45728Y-37421D03*
X53425Y-25964D03*
X53622Y-34744D03*
X57421Y-30551D03*
X45748Y-39645D03*
X70374Y-29488D03*
X59173Y-34763D03*
X60885Y-31437D03*
X61062Y-33700D03*
X66102Y-29665D03*
X60984Y-35984D03*
X67010Y-36910D03*
X67110Y-34825D03*
X67263Y-31279D03*
X67401Y-32775D03*
X52565Y-31030D03*
X61500Y-41465D03*
X63620Y-33905D03*
X42690Y-30285D03*
X52755Y-42913D03*
X53149Y-42913D03*
X53543Y-42913D03*
X53937Y-42913D03*
X54330Y-42913D03*
X54724Y-42913D03*
X55118Y-42913D03*
X55511Y-42913D03*
X55905Y-42913D03*
X56299Y-42913D03*
X56692Y-42913D03*
X57086Y-42913D03*
X57480Y-42913D03*
X57874Y-42913D03*
X58267Y-42913D03*
X58661Y-42913D03*
X59055Y-42913D03*
X59448Y-42913D03*
X59842Y-42913D03*
X60236Y-42913D03*
X60629Y-42913D03*
X61023Y-42913D03*
X61417Y-42913D03*
X61811Y-42913D03*
X62204Y-42913D03*
X62598Y-42913D03*
X62992Y-42913D03*
X63385Y-42913D03*
X63779Y-42913D03*
X64173Y-42913D03*
X64566Y-42913D03*
X64960Y-42913D03*
X65354Y-42913D03*
X65748Y-42913D03*
X66141Y-42913D03*
X66535Y-42913D03*
X66929Y-42913D03*
X67322Y-42913D03*
X67716Y-42913D03*
X68110Y-42913D03*
X68503Y-42913D03*
X49212Y-22047D03*
X49606Y-22047D03*
X50000Y-22047D03*
X50393Y-22047D03*
X50787Y-22047D03*
X51181Y-22047D03*
X51574Y-22047D03*
X51968Y-22047D03*
X52362Y-22047D03*
X52755Y-22047D03*
X53149Y-22047D03*
X53543Y-22047D03*
X53937Y-22047D03*
X54330Y-22047D03*
X54724Y-22047D03*
X55118Y-22047D03*
X55511Y-22047D03*
X55905Y-22047D03*
X56299Y-22047D03*
X56692Y-22047D03*
X57086Y-22047D03*
X57480Y-22047D03*
X57874Y-22047D03*
X58267Y-22047D03*
X58661Y-22047D03*
X59055Y-22047D03*
X59448Y-22047D03*
X59842Y-22047D03*
X60236Y-22047D03*
X60629Y-22047D03*
X61023Y-22047D03*
X61417Y-22047D03*
X61811Y-22047D03*
X62204Y-22047D03*
X62598Y-22047D03*
X62992Y-22047D03*
X63385Y-22047D03*
X63779Y-22047D03*
X64173Y-22047D03*
X64566Y-22047D03*
X64960Y-22047D03*
X65354Y-22047D03*
X65748Y-22047D03*
X66141Y-22047D03*
X66535Y-22047D03*
X66929Y-22047D03*
X67322Y-22047D03*
X67716Y-22047D03*
X68110Y-22047D03*
X68503Y-22047D03*
X68897Y-22047D03*
X69291Y-22047D03*
X69685Y-22047D03*
X70078Y-22047D03*
X70472Y-22047D03*
X70866Y-22047D03*
X71259Y-22047D03*
X71653Y-22047D03*
X72047Y-22047D03*
X72440Y-22047D03*
X72834Y-22047D03*
X73228Y-22047D03*
X73622Y-22047D03*
X74015Y-22047D03*
X74409Y-22047D03*
X74803Y-22047D03*
X75196Y-22047D03*
X75590Y-22047D03*
X75984Y-22047D03*
X76377Y-22047D03*
X76771Y-22047D03*
X77165Y-22047D03*
X77559Y-22047D03*
X77952Y-22047D03*
X78346Y-22047D03*
X78346Y-22440D03*
X78346Y-22834D03*
X78346Y-23228D03*
X78346Y-23622D03*
X78346Y-24015D03*
X78346Y-24409D03*
X78346Y-24803D03*
X78346Y-25196D03*
X78346Y-25590D03*
X78346Y-25984D03*
X78346Y-26377D03*
X78346Y-26771D03*
X78346Y-27165D03*
X78346Y-27559D03*
X78346Y-27952D03*
X78346Y-28346D03*
X78346Y-28740D03*
X78346Y-29133D03*
X78346Y-29527D03*
X78346Y-29921D03*
X78346Y-30314D03*
X78346Y-30708D03*
X78346Y-31102D03*
X78346Y-31496D03*
X78346Y-31889D03*
X78346Y-32283D03*
X78346Y-32677D03*
X78346Y-33070D03*
X78346Y-33464D03*
X78346Y-33858D03*
X78346Y-34251D03*
X78346Y-34645D03*
X78346Y-35039D03*
X78346Y-35433D03*
X78346Y-35826D03*
X78346Y-36220D03*
X78346Y-36614D03*
X78346Y-37007D03*
X78346Y-37401D03*
X78346Y-37795D03*
X78346Y-38188D03*
X78346Y-38582D03*
X78346Y-38976D03*
X78346Y-39370D03*
X78346Y-39763D03*
X78346Y-40157D03*
X78346Y-40944D03*
X78346Y-40551D03*
X78346Y-41338D03*
X78346Y-41732D03*
X78346Y-42125D03*
X78346Y-42519D03*
X78346Y-42913D03*
X77952Y-42913D03*
X77559Y-42913D03*
X77165Y-42913D03*
X76771Y-42913D03*
X76377Y-42913D03*
X75984Y-42913D03*
X75590Y-42913D03*
X75196Y-42913D03*
X74803Y-42913D03*
X74409Y-42913D03*
X74015Y-42913D03*
X73622Y-42913D03*
X73228Y-42913D03*
X72834Y-42913D03*
X72440Y-42913D03*
X72047Y-42913D03*
X71653Y-42913D03*
X71259Y-42913D03*
X70866Y-42913D03*
X70472Y-42913D03*
X70078Y-42913D03*
X69685Y-42913D03*
X69291Y-42913D03*
X68897Y-42913D03*
X54330Y-26033D03*
X73307Y-39311D03*
X70807Y-39311D03*
X60039Y-30511D03*
X60433Y-29921D03*
X60433Y-29133D03*
X59448Y-29133D03*
X59448Y-29921D03*
X63681Y-37874D03*
X63031Y-38543D03*
X56929Y-34251D03*
X56929Y-32952D03*
X57677Y-35039D03*
X57677Y-34251D03*
X57480Y-32677D03*
X57480Y-31889D03*
X53405Y-28326D03*
X69232Y-29527D03*
X42244Y-38740D03*
X42637Y-39173D03*
X41850Y-39173D03*
X43897Y-40610D03*
X44527Y-40610D03*
X45157Y-40610D03*
X45728Y-40196D03*
X43444Y-40196D03*
X43444Y-37972D03*
X45728Y-37972D03*
X45157Y-38385D03*
X44527Y-38385D03*
X43897Y-38385D03*
X43996Y-24409D03*
X44488Y-24409D03*
X42027Y-24409D03*
X42519Y-24409D03*
X43011Y-24409D03*
X43602Y-24409D03*
X46161Y-24409D03*
X45669Y-24409D03*
X45078Y-24409D03*
X44980Y-25295D03*
X42519Y-26279D03*
X44468Y-25295D03*
X44488Y-25925D03*
X42519Y-25295D03*
X43011Y-25295D03*
X43503Y-25295D03*
X43996Y-25295D03*
X42519Y-26771D03*
X41692Y-24350D03*
X40984Y-24350D03*
X41732Y-25925D03*
X41535Y-25728D03*
X41318Y-25511D03*
X48061Y-27913D03*
X48267Y-28799D03*
X46230Y-26437D03*
X48228Y-26771D03*
X47834Y-26771D03*
X47440Y-26771D03*
X47047Y-26574D03*
X46653Y-26377D03*
X44094Y-32283D03*
X43700Y-32283D03*
X43307Y-32283D03*
X43307Y-32677D03*
X43700Y-32677D03*
X44094Y-32677D03*
X44685Y-32677D03*
X45275Y-32677D03*
X45866Y-31889D03*
X46456Y-31889D03*
X46456Y-32283D03*
X45866Y-32283D03*
X45846Y-31377D03*
X46456Y-32677D03*
X45866Y-32677D03*
X43307Y-31889D03*
X43641Y-31417D03*
X44094Y-31889D03*
X43700Y-31889D03*
X40305Y-28740D03*
X40305Y-28464D03*
X40354Y-30511D03*
X40354Y-29724D03*
X40354Y-27362D03*
X40305Y-28188D03*
X41929Y-26771D03*
X41929Y-26181D03*
X41141Y-26181D03*
X41141Y-26771D03*
X40354Y-26771D03*
X51023Y-40944D03*
X47244Y-42913D03*
X46850Y-42913D03*
X46456Y-42913D03*
X46062Y-42913D03*
X45669Y-42913D03*
X45275Y-42913D03*
X44881Y-42913D03*
X44488Y-42913D03*
X44094Y-42913D03*
X43700Y-42913D03*
X43307Y-42913D03*
X42913Y-42913D03*
X42519Y-42913D03*
X42125Y-42913D03*
X41732Y-42913D03*
X41338Y-42913D03*
X40944Y-42913D03*
X40551Y-42913D03*
X40157Y-42913D03*
X39763Y-42913D03*
X39370Y-42913D03*
X38976Y-42913D03*
X38582Y-42913D03*
X38188Y-42913D03*
X37795Y-42913D03*
X37401Y-42913D03*
X37007Y-42913D03*
X36614Y-42913D03*
X36220Y-42913D03*
X35826Y-42913D03*
X35826Y-42519D03*
X35826Y-42125D03*
X35826Y-41732D03*
X35826Y-41338D03*
X35826Y-40944D03*
X35826Y-40551D03*
X35826Y-40157D03*
X35826Y-39763D03*
X35826Y-39370D03*
X35826Y-38976D03*
X35826Y-38582D03*
X35826Y-38188D03*
X35826Y-37795D03*
X35826Y-37401D03*
X35826Y-37007D03*
X35826Y-36614D03*
X35826Y-36220D03*
X35826Y-35826D03*
X35826Y-35433D03*
X35826Y-35039D03*
X35826Y-34645D03*
X35826Y-34251D03*
X35826Y-33858D03*
X35826Y-33464D03*
X35826Y-33070D03*
X35826Y-32677D03*
X35826Y-32283D03*
X35826Y-31889D03*
X35826Y-31496D03*
X35826Y-31102D03*
X35826Y-30708D03*
X35826Y-30314D03*
X35826Y-29921D03*
X35826Y-29527D03*
X35826Y-29133D03*
X35826Y-28740D03*
X35826Y-28346D03*
X35826Y-27952D03*
X35826Y-27559D03*
X35826Y-27165D03*
X35826Y-26771D03*
X35826Y-26377D03*
X35826Y-25984D03*
X35826Y-25590D03*
X35826Y-25196D03*
X35826Y-24803D03*
X35826Y-24409D03*
X35826Y-24015D03*
X35826Y-23622D03*
X35826Y-23228D03*
X35826Y-22834D03*
X35826Y-22440D03*
X35826Y-22047D03*
X36220Y-22047D03*
X36614Y-22047D03*
X37007Y-22047D03*
X37401Y-22047D03*
X37795Y-22047D03*
X38188Y-22047D03*
X38582Y-22047D03*
X44207Y-28855D03*
X44444Y-28855D03*
X44700Y-28855D03*
X44936Y-28855D03*
X45172Y-28855D03*
X45172Y-28088D03*
X44936Y-28088D03*
X44700Y-28088D03*
X44444Y-28088D03*
X44207Y-28088D03*
X44207Y-28344D03*
X44444Y-28344D03*
X44444Y-28600D03*
X44207Y-28600D03*
X44700Y-28344D03*
X44936Y-28344D03*
X45172Y-28344D03*
X45172Y-28600D03*
X44936Y-28600D03*
X44700Y-28600D03*
X61811Y-35425D03*
X63090Y-35452D03*
X62854Y-31673D03*
X62854Y-32185D03*
X75039Y-28582D03*
X74212Y-28582D03*
X67519Y-28129D03*
X67125Y-28129D03*
X66614Y-28129D03*
X66535Y-27303D03*
X63740Y-26299D03*
X65472Y-32440D03*
X65472Y-32933D03*
X65472Y-33425D03*
X65472Y-34429D03*
X68622Y-34960D03*
X68110Y-34271D03*
X71161Y-39803D03*
X72992Y-39803D03*
X46476Y-33267D03*
X45846Y-33267D03*
X45216Y-33267D03*
X44842Y-33622D03*
X42460Y-34370D03*
X42165Y-34370D03*
X42165Y-36397D03*
X42460Y-36397D03*
X66594Y-37736D03*
X66633Y-35826D03*
X53149Y-36023D03*
X53149Y-36417D03*
X67913Y-37893D03*
X67913Y-37106D03*
X67913Y-36318D03*
X67913Y-35925D03*
X67913Y-36712D03*
X67913Y-37500D03*
X67913Y-38287D03*
X65236Y-36141D03*
X62913Y-34429D03*
X60393Y-33287D03*
X47578Y-22834D03*
X47578Y-22539D03*
X47578Y-22244D03*
X47578Y-21948D03*
X48759Y-24015D03*
X48759Y-23720D03*
X48759Y-23425D03*
X48759Y-23129D03*
X48759Y-22834D03*
X48759Y-22539D03*
X48759Y-22244D03*
X48759Y-21948D03*
X48464Y-24015D03*
X48169Y-24015D03*
X47874Y-24015D03*
X47578Y-24015D03*
X47578Y-23720D03*
X47578Y-23425D03*
X47578Y-23129D03*
X44192Y-23129D03*
X44192Y-23425D03*
X44192Y-23720D03*
X44192Y-24015D03*
X44488Y-24015D03*
X44783Y-24015D03*
X45078Y-24015D03*
X45374Y-21948D03*
X45374Y-22244D03*
X45374Y-22539D03*
X45374Y-22834D03*
X45374Y-23129D03*
X45374Y-23425D03*
X45374Y-23720D03*
X45374Y-24015D03*
X44192Y-21948D03*
X44192Y-22244D03*
X44192Y-22539D03*
X44192Y-22834D03*
X43602Y-21948D03*
X43602Y-22244D03*
X43602Y-22539D03*
X43602Y-22834D03*
X43602Y-23129D03*
X43602Y-23425D03*
X43602Y-23720D03*
X43602Y-24015D03*
X43307Y-24015D03*
X43011Y-24015D03*
X42716Y-24015D03*
X42421Y-24015D03*
X42421Y-23720D03*
X42421Y-23425D03*
X42421Y-23129D03*
X42421Y-21948D03*
X42421Y-22244D03*
X42421Y-22539D03*
X42421Y-22834D03*
X39074Y-23129D03*
X39074Y-23425D03*
X39074Y-23720D03*
X39074Y-24015D03*
X40255Y-21948D03*
X40255Y-22244D03*
X40255Y-22539D03*
X40255Y-22834D03*
X40255Y-23129D03*
X40255Y-23425D03*
X40255Y-23720D03*
X40255Y-24015D03*
X39960Y-24015D03*
X39665Y-24015D03*
X39370Y-24015D03*
X39074Y-21948D03*
X39074Y-22244D03*
X39074Y-22539D03*
X39074Y-22834D03*
X47677Y-43011D03*
X47677Y-42716D03*
X47677Y-42421D03*
X51023Y-43011D03*
X51023Y-42716D03*
X51023Y-42421D03*
X51318Y-40944D03*
X51614Y-40944D03*
X51909Y-40944D03*
X52204Y-40944D03*
X51023Y-41240D03*
X51023Y-41535D03*
X51023Y-41830D03*
X51023Y-42125D03*
X52204Y-41240D03*
X52204Y-43011D03*
X52204Y-42716D03*
X52204Y-42421D03*
X52204Y-42125D03*
X52204Y-41830D03*
X52204Y-41535D03*
X47677Y-41535D03*
X47677Y-41240D03*
X47677Y-40944D03*
X47972Y-40944D03*
X48267Y-40944D03*
X48562Y-40944D03*
X48858Y-40944D03*
X47677Y-41830D03*
X47677Y-42125D03*
X48858Y-43011D03*
X48858Y-42716D03*
X48858Y-42421D03*
X48858Y-42125D03*
X48858Y-41830D03*
X48858Y-41535D03*
X48858Y-41240D03*
X49606Y-32677D03*
X49212Y-32874D03*
X49606Y-32283D03*
X48228Y-32283D03*
X48425Y-32874D03*
X48818Y-32874D03*
X48228Y-32677D03*
X48228Y-31889D03*
X49724Y-27874D03*
X49350Y-28307D03*
X51535Y-31003D03*
X52500Y-31653D03*
X53051Y-34015D03*
X54763Y-29822D03*
X54173Y-26377D03*
X53937Y-25964D03*
X42637Y-37972D03*
X41850Y-37972D03*
X42244Y-38405D03*
X40688Y-38110D03*
X41181Y-39055D03*
X40688Y-39055D03*
X44153Y-31417D03*
X43897Y-31417D03*
X50610Y-25925D03*
X50610Y-25629D03*
X50610Y-26555D03*
X50610Y-26240D03*
X50610Y-26929D03*
X50610Y-25295D03*
X50196Y-24842D03*
X48681Y-26161D03*
X48287Y-26476D03*
X47244Y-26161D03*
X47657Y-26476D03*
X43444Y-26122D03*
X43582Y-26358D03*
X41692Y-29094D03*
X41751Y-27775D03*
X41555Y-28740D03*
X41555Y-28464D03*
X41555Y-28188D03*
X46062Y-26082D03*
X46240Y-26811D03*
X46929Y-27785D03*
X47706Y-27795D03*
X46505Y-31397D03*
X46791Y-31397D03*
X46240Y-31397D03*
X45511Y-31555D03*
X43188Y-31417D03*
X42736Y-31653D03*
X42381Y-32007D03*
X41751Y-32007D03*
X41122Y-32007D03*
X40492Y-32007D03*
X49345Y-28840D03*
X49755Y-29275D03*
X53095Y-33275D03*
X42972Y-28287D03*
X48681Y-25610D03*
X70860Y-28525D03*
X63230Y-36475D03*
X63085Y-35850D03*
X69735Y-28020D03*
X59150Y-35305D03*
X63605Y-35295D03*
X39645Y-31850D03*
X49665Y-24842D03*
X63350Y-34545D03*
X59245Y-33220D03*
X58715Y-33220D03*
X63625Y-34855D03*
X59775Y-33210D03*
X63045Y-33825D03*
G54D20*
X50610Y-28665D02*
X50610Y-27785D01*
X51650Y-29230D02*
X51175Y-29230D01*
X51175Y-29230D02*
X50610Y-28665D01*
X43750Y-27495D02*
X50320Y-27495D01*
X43545Y-27700D02*
X43750Y-27495D01*
X50610Y-27785D02*
X50320Y-27495D01*
X64470Y-41465D02*
X63000Y-39995D01*
X63000Y-39995D02*
X57090Y-39995D01*
X55040Y-37945D02*
X55040Y-34685D01*
X55040Y-34685D02*
X53110Y-32755D01*
X53110Y-31235D02*
X53095Y-31220D01*
X53110Y-32755D02*
X53110Y-31235D01*
X57090Y-39995D02*
X55040Y-37945D01*
X53095Y-31220D02*
X53095Y-30830D01*
G54D21*
X51715Y-28255D02*
X51720Y-28255D01*
G54D20*
X58980Y-26895D02*
X61135Y-24740D01*
X53080Y-26895D02*
X58980Y-26895D01*
X51720Y-28255D02*
X53080Y-26895D01*
G54D22*
X43484Y-29153D02*
X46358Y-29153D01*
X46358Y-29153D02*
X47125Y-29921D01*
X47125Y-29921D02*
X50275Y-29921D01*
X43248Y-29389D02*
X43484Y-29153D01*
G54D20*
X53385Y-32720D02*
X53385Y-31590D01*
X55400Y-34735D02*
X53385Y-32720D01*
X57590Y-39485D02*
X55400Y-37295D01*
X53385Y-31590D02*
X53380Y-31585D01*
X64365Y-39485D02*
X57590Y-39485D01*
X65850Y-40970D02*
X64365Y-39485D01*
X55400Y-37295D02*
X55400Y-34735D01*
X53380Y-31585D02*
X53380Y-31125D01*
X67950Y-40970D02*
X65850Y-40970D01*
X68290Y-28485D02*
X68290Y-30280D01*
X67390Y-27585D02*
X68290Y-28485D01*
X68290Y-30280D02*
X67605Y-30965D01*
X67605Y-30965D02*
X65375Y-30965D01*
X65375Y-30965D02*
X64570Y-31770D01*
X51950Y-29525D02*
X52550Y-28925D01*
X51285Y-29525D02*
X51950Y-29525D01*
X43825Y-28335D02*
X43825Y-27951D01*
X43825Y-27951D02*
X44089Y-27687D01*
X42920Y-29925D02*
X42920Y-29240D01*
X51160Y-29650D02*
X51285Y-29525D01*
X42920Y-29240D02*
X43825Y-28335D01*
X47600Y-29650D02*
X51160Y-29650D01*
X45637Y-27687D02*
X47600Y-29650D01*
X57620Y-28925D02*
X52550Y-28925D01*
X43010Y-30015D02*
X42920Y-29925D01*
X44089Y-27687D02*
X45637Y-27687D01*
X63235Y-32935D02*
X61630Y-32935D01*
X61630Y-32935D02*
X57620Y-28925D01*
X43065Y-30015D02*
X43010Y-30015D01*
X67380Y-31770D02*
X65160Y-31770D01*
X68300Y-26635D02*
X68660Y-26995D01*
X68660Y-26995D02*
X68660Y-30490D01*
X68660Y-30490D02*
X67380Y-31770D01*
X63235Y-33390D02*
X61375Y-33390D01*
X53390Y-29365D02*
X57350Y-29365D01*
X43913Y-30275D02*
X43383Y-29745D01*
X43383Y-29745D02*
X43415Y-29745D01*
X52483Y-30272D02*
X53390Y-29365D01*
X49658Y-30272D02*
X49655Y-30275D01*
X49655Y-30275D02*
X43913Y-30275D01*
X49658Y-30272D02*
X52483Y-30272D01*
X57350Y-29365D02*
X61375Y-33390D01*
X70745Y-41415D02*
X69590Y-40260D01*
X54490Y-31425D02*
X54490Y-32390D01*
X58300Y-38235D02*
X56535Y-36470D01*
X69590Y-40260D02*
X66360Y-40260D01*
X70745Y-41585D02*
X70745Y-41415D01*
X64335Y-38235D02*
X66360Y-40260D01*
X58300Y-38235D02*
X64335Y-38235D01*
X56535Y-36470D02*
X56535Y-34435D01*
X56535Y-34435D02*
X54490Y-32390D01*
X66570Y-39395D02*
X70130Y-39395D01*
X64193Y-37018D02*
X66570Y-39395D01*
X72320Y-41585D02*
X70130Y-39395D01*
X53940Y-30410D02*
X54795Y-30410D01*
X58110Y-35575D02*
X58110Y-33725D01*
X53660Y-30690D02*
X53940Y-30410D01*
X59553Y-37018D02*
X64193Y-37018D01*
X54795Y-30410D02*
X58110Y-33725D01*
X58110Y-35575D02*
X59553Y-37018D01*
X53660Y-31425D02*
X53660Y-30690D01*
X57325Y-36165D02*
X58733Y-37573D01*
X69990Y-39835D02*
X66440Y-39835D01*
X57320Y-36165D02*
X57325Y-36165D01*
X69990Y-39835D02*
X71532Y-41377D01*
X71532Y-41585D02*
X71532Y-41377D01*
X54340Y-30775D02*
X57320Y-33755D01*
X57320Y-36165D02*
X57320Y-33755D01*
X58733Y-37573D02*
X64178Y-37573D01*
X64178Y-37573D02*
X66440Y-39835D01*
X69100Y-40585D02*
X66045Y-40585D01*
X64355Y-38895D02*
X66045Y-40585D01*
X54075Y-31165D02*
X54075Y-33040D01*
X69957Y-41585D02*
X69957Y-41442D01*
X69957Y-41442D02*
X69100Y-40585D01*
X57925Y-38895D02*
X64355Y-38895D01*
X55747Y-36717D02*
X55747Y-34712D01*
X57925Y-38895D02*
X55747Y-36717D01*
X54075Y-33040D02*
X55747Y-34712D01*
G54D23*
X43001Y-30777D02*
X42411Y-30777D01*
X42263Y-27933D02*
X42500Y-27696D01*
X42263Y-30629D02*
X42263Y-27933D01*
X42411Y-30777D02*
X42263Y-30629D01*
G54D24*
X45196Y-30787D02*
X45216Y-30807D01*
G54D23*
X43011Y-30787D02*
X45196Y-30787D01*
G54D24*
X43011Y-30787D02*
X43001Y-30777D01*
G54D23*
X46476Y-29822D02*
X44094Y-29822D01*
X44094Y-29822D02*
X43759Y-29488D01*
G54D24*
X48740Y-28366D02*
X47913Y-28366D01*
X49153Y-27952D02*
X48740Y-28366D01*
G54D20*
X52600Y-37110D02*
X52600Y-32505D01*
X52895Y-31360D02*
X52565Y-31030D01*
X56415Y-40925D02*
X52600Y-37110D01*
X52600Y-32505D02*
X52895Y-32210D01*
X52895Y-32210D02*
X52895Y-31360D01*
X61500Y-41465D02*
X60960Y-40925D01*
X60960Y-40925D02*
X56415Y-40925D01*
X42690Y-30285D02*
X42690Y-28990D01*
X51568Y-28733D02*
X60888Y-28733D01*
X63620Y-31465D02*
X63620Y-33905D01*
X60888Y-28733D02*
X63620Y-31465D01*
X51140Y-28305D02*
X51568Y-28733D01*
X51140Y-27790D02*
X51140Y-28305D01*
X50535Y-27185D02*
X51140Y-27790D01*
X42690Y-28990D02*
X43270Y-28410D01*
X43270Y-28410D02*
X43270Y-27550D01*
X43635Y-27185D02*
X50535Y-27185D01*
X43270Y-27550D02*
X43635Y-27185D01*
G54D25*
X68503Y-42913D02*
X68897Y-42913D01*
G54D24*
X52755Y-42913D02*
X53149Y-42913D01*
X53543Y-42913D02*
X53937Y-42913D01*
X54330Y-42913D02*
X54724Y-42913D01*
X55118Y-42913D02*
X55511Y-42913D01*
X55905Y-42913D02*
X56299Y-42913D01*
X56692Y-42913D02*
X57086Y-42913D01*
X57480Y-42913D02*
X57874Y-42913D01*
X58267Y-42913D02*
X58661Y-42913D01*
X59055Y-42913D02*
X59448Y-42913D01*
X59842Y-42913D02*
X60236Y-42913D01*
X60629Y-42913D02*
X61023Y-42913D01*
X61417Y-42913D02*
X61811Y-42913D01*
X62204Y-42913D02*
X62598Y-42913D01*
X62992Y-42913D02*
X63385Y-42913D01*
X63779Y-42913D02*
X64173Y-42913D01*
X64566Y-42913D02*
X64960Y-42913D01*
X65354Y-42913D02*
X65748Y-42913D01*
X66141Y-42913D02*
X66535Y-42913D01*
X66929Y-42913D02*
X67322Y-42913D01*
X67716Y-42913D02*
X68110Y-42913D01*
G54D25*
X50000Y-22047D02*
X49606Y-22047D01*
X50787Y-22047D02*
X50393Y-22047D01*
X51574Y-22047D02*
X51181Y-22047D01*
X52362Y-22047D02*
X51968Y-22047D01*
X53149Y-22047D02*
X52755Y-22047D01*
X53937Y-22047D02*
X53543Y-22047D01*
X54724Y-22047D02*
X54330Y-22047D01*
X55511Y-22047D02*
X55118Y-22047D01*
X56299Y-22047D02*
X55905Y-22047D01*
X57086Y-22047D02*
X56692Y-22047D01*
X57874Y-22047D02*
X57480Y-22047D01*
X58661Y-22047D02*
X58267Y-22047D01*
X59448Y-22047D02*
X59055Y-22047D01*
X60236Y-22047D02*
X59842Y-22047D01*
X61023Y-22047D02*
X60629Y-22047D01*
X61811Y-22047D02*
X61417Y-22047D01*
X62598Y-22047D02*
X62204Y-22047D01*
X63385Y-22047D02*
X62992Y-22047D01*
X64173Y-22047D02*
X63779Y-22047D01*
X64960Y-22047D02*
X64566Y-22047D01*
X65748Y-22047D02*
X65354Y-22047D01*
X66535Y-22047D02*
X66141Y-22047D01*
X67322Y-22047D02*
X66929Y-22047D01*
X68110Y-22047D02*
X67716Y-22047D01*
X68897Y-22047D02*
X68503Y-22047D01*
X69685Y-22047D02*
X69291Y-22047D01*
X70472Y-22047D02*
X70078Y-22047D01*
X71259Y-22047D02*
X70866Y-22047D01*
X72047Y-22047D02*
X71653Y-22047D01*
X72834Y-22047D02*
X72440Y-22047D01*
X73622Y-22047D02*
X73228Y-22047D01*
X74409Y-22047D02*
X74015Y-22047D01*
X75196Y-22047D02*
X74803Y-22047D01*
X75984Y-22047D02*
X75590Y-22047D01*
X76771Y-22047D02*
X76377Y-22047D01*
X77559Y-22047D02*
X77165Y-22047D01*
X78346Y-22047D02*
X77952Y-22047D01*
X78346Y-22834D02*
X78346Y-22440D01*
X78346Y-23622D02*
X78346Y-23228D01*
X78346Y-24409D02*
X78346Y-24015D01*
X78346Y-25196D02*
X78346Y-24803D01*
X78346Y-25984D02*
X78346Y-25590D01*
X78346Y-26771D02*
X78346Y-26377D01*
X78346Y-27559D02*
X78346Y-27165D01*
X78346Y-28346D02*
X78346Y-27952D01*
X78346Y-29133D02*
X78346Y-28740D01*
X78346Y-29921D02*
X78346Y-29527D01*
X78346Y-30708D02*
X78346Y-30314D01*
X78346Y-31496D02*
X78346Y-31102D01*
X78346Y-32283D02*
X78346Y-31889D01*
X78346Y-33070D02*
X78346Y-32677D01*
X78346Y-33858D02*
X78346Y-33464D01*
X78346Y-34645D02*
X78346Y-34251D01*
X78346Y-35433D02*
X78346Y-35039D01*
X78346Y-36220D02*
X78346Y-35826D01*
X78346Y-37007D02*
X78346Y-36614D01*
X78346Y-37795D02*
X78346Y-37401D01*
X78346Y-38582D02*
X78346Y-38188D01*
X78346Y-39370D02*
X78346Y-38976D01*
X78346Y-40157D02*
X78346Y-39763D01*
X78346Y-40551D02*
X78346Y-40944D01*
X78346Y-41732D02*
X78346Y-41338D01*
X78346Y-42519D02*
X78346Y-42125D01*
X77952Y-42913D02*
X78346Y-42913D01*
X77165Y-42913D02*
X77559Y-42913D01*
X76377Y-42913D02*
X76771Y-42913D01*
X75590Y-42913D02*
X75984Y-42913D01*
X74803Y-42913D02*
X75196Y-42913D01*
X74015Y-42913D02*
X74409Y-42913D01*
X73228Y-42913D02*
X73622Y-42913D01*
X72440Y-42913D02*
X72834Y-42913D01*
X71653Y-42913D02*
X72047Y-42913D01*
X70866Y-42913D02*
X71259Y-42913D01*
X70078Y-42913D02*
X70472Y-42913D01*
X69291Y-42913D02*
X69685Y-42913D01*
X60433Y-29921D02*
X59448Y-29921D01*
X59448Y-29133D02*
X60433Y-29133D01*
X57677Y-34251D02*
X57677Y-35039D01*
X57480Y-31889D02*
X57480Y-32677D01*
G54D24*
X42519Y-24409D02*
X42027Y-24409D01*
X43602Y-24409D02*
X43011Y-24409D01*
X45078Y-24409D02*
X45669Y-24409D01*
X44468Y-25295D02*
X44980Y-25295D01*
X44468Y-25295D02*
X43996Y-25295D01*
X43503Y-25295D02*
X43011Y-25295D01*
X42519Y-26279D02*
X42519Y-25295D01*
X42007Y-24015D02*
X41692Y-24350D01*
X42421Y-24015D02*
X42007Y-24015D01*
X41318Y-25511D02*
X41535Y-25728D01*
X46230Y-26437D02*
X46594Y-26437D01*
X47834Y-26771D02*
X48228Y-26771D01*
X47244Y-26771D02*
X47440Y-26771D01*
X47047Y-26574D02*
X47244Y-26771D01*
X46594Y-26437D02*
X46653Y-26377D01*
X45866Y-32677D02*
X45275Y-32677D01*
X43307Y-32283D02*
X43700Y-32283D01*
X43700Y-32677D02*
X43307Y-32677D01*
X44685Y-32677D02*
X44094Y-32677D01*
X45866Y-32283D02*
X45866Y-32677D01*
X45846Y-31870D02*
X45866Y-31889D01*
X46456Y-31889D02*
X46456Y-32283D01*
X45846Y-31377D02*
X45846Y-31870D01*
X43700Y-31889D02*
X44094Y-31889D01*
X40305Y-28464D02*
X40305Y-28740D01*
X40354Y-29724D02*
X40354Y-30511D01*
X40354Y-27362D02*
X40354Y-26771D01*
X41929Y-26181D02*
X41929Y-26771D01*
X41141Y-26771D02*
X41141Y-26181D01*
X46850Y-42913D02*
X47244Y-42913D01*
X46062Y-42913D02*
X46456Y-42913D01*
X45275Y-42913D02*
X45669Y-42913D01*
X44488Y-42913D02*
X44881Y-42913D01*
X43700Y-42913D02*
X44094Y-42913D01*
X42913Y-42913D02*
X43307Y-42913D01*
X42125Y-42913D02*
X42519Y-42913D01*
X41338Y-42913D02*
X41732Y-42913D01*
X40551Y-42913D02*
X40944Y-42913D01*
X39763Y-42913D02*
X40157Y-42913D01*
X38976Y-42913D02*
X39370Y-42913D01*
X38188Y-42913D02*
X38582Y-42913D01*
X37401Y-42913D02*
X37795Y-42913D01*
X36614Y-42913D02*
X37007Y-42913D01*
X35826Y-42913D02*
X36220Y-42913D01*
X35826Y-42125D02*
X35826Y-42519D01*
X35826Y-41338D02*
X35826Y-41732D01*
X35826Y-40551D02*
X35826Y-40944D01*
X35826Y-39763D02*
X35826Y-40157D01*
X35826Y-38976D02*
X35826Y-39370D01*
X35826Y-38188D02*
X35826Y-38582D01*
X35826Y-37401D02*
X35826Y-37795D01*
X35826Y-36614D02*
X35826Y-37007D01*
X35826Y-35826D02*
X35826Y-36220D01*
X35826Y-35039D02*
X35826Y-35433D01*
X35826Y-34251D02*
X35826Y-34645D01*
X35826Y-33464D02*
X35826Y-33858D01*
X35826Y-32677D02*
X35826Y-33070D01*
X35826Y-31889D02*
X35826Y-32283D01*
X35826Y-31102D02*
X35826Y-31496D01*
X35826Y-30314D02*
X35826Y-30708D01*
X35826Y-29527D02*
X35826Y-29921D01*
X35826Y-28740D02*
X35826Y-29133D01*
X35826Y-27952D02*
X35826Y-28346D01*
X35826Y-27165D02*
X35826Y-27559D01*
X35826Y-26377D02*
X35826Y-26771D01*
X35826Y-25590D02*
X35826Y-25984D01*
X35826Y-24803D02*
X35826Y-25196D01*
X35826Y-24015D02*
X35826Y-24409D01*
X35826Y-23228D02*
X35826Y-23622D01*
X35826Y-22440D02*
X35826Y-22834D01*
X36220Y-22047D02*
X35826Y-22047D01*
X37007Y-22047D02*
X36614Y-22047D01*
X37795Y-22047D02*
X37401Y-22047D01*
X38582Y-22047D02*
X38188Y-22047D01*
G54D26*
X44210Y-28858D02*
X44207Y-28855D01*
X44212Y-28858D02*
X44210Y-28858D01*
X44448Y-28858D02*
X44446Y-28858D01*
X44446Y-28858D02*
X44444Y-28855D01*
X44702Y-28858D02*
X44700Y-28855D01*
X44704Y-28858D02*
X44702Y-28858D01*
X44940Y-28858D02*
X44938Y-28858D01*
X44938Y-28858D02*
X44936Y-28855D01*
X45174Y-28858D02*
X45172Y-28855D01*
X45177Y-28858D02*
X45174Y-28858D01*
X45177Y-28090D02*
X45174Y-28090D01*
X45174Y-28090D02*
X45172Y-28088D01*
X44938Y-28090D02*
X44936Y-28088D01*
X44940Y-28090D02*
X44938Y-28090D01*
X44704Y-28090D02*
X44702Y-28090D01*
X44702Y-28090D02*
X44700Y-28088D01*
X44446Y-28090D02*
X44444Y-28088D01*
X44448Y-28090D02*
X44446Y-28090D01*
X44212Y-28090D02*
X44210Y-28090D01*
X44210Y-28090D02*
X44207Y-28088D01*
X44210Y-28346D02*
X44207Y-28344D01*
X44212Y-28346D02*
X44210Y-28346D01*
X44448Y-28346D02*
X44446Y-28346D01*
X44446Y-28346D02*
X44444Y-28344D01*
X44446Y-28602D02*
X44444Y-28600D01*
X44448Y-28602D02*
X44446Y-28602D01*
X44212Y-28602D02*
X44210Y-28602D01*
X44210Y-28602D02*
X44207Y-28600D01*
X44702Y-28346D02*
X44700Y-28344D01*
X44704Y-28346D02*
X44702Y-28346D01*
X44940Y-28346D02*
X44938Y-28346D01*
X44938Y-28346D02*
X44936Y-28344D01*
X45174Y-28346D02*
X45172Y-28344D01*
X45177Y-28346D02*
X45174Y-28346D01*
X45177Y-28602D02*
X45174Y-28602D01*
X45174Y-28602D02*
X45172Y-28600D01*
X44938Y-28602D02*
X44936Y-28600D01*
X44940Y-28602D02*
X44938Y-28602D01*
X44704Y-28602D02*
X44702Y-28602D01*
X44702Y-28602D02*
X44700Y-28600D01*
X61811Y-35425D02*
X61811Y-35433D01*
G54D24*
X42165Y-34370D02*
X42460Y-34370D01*
X53149Y-36417D02*
X53149Y-36023D01*
X67913Y-36318D02*
X67913Y-35925D01*
X67913Y-37106D02*
X67913Y-36712D01*
X67913Y-37893D02*
X67913Y-37500D01*
X47578Y-22539D02*
X47578Y-22244D01*
X48110Y-22834D02*
X47578Y-22834D01*
X48759Y-24015D02*
X48759Y-23720D01*
X48759Y-23425D02*
X48759Y-23129D01*
X48759Y-22834D02*
X48759Y-22539D01*
X48759Y-22244D02*
X48759Y-21948D01*
X47578Y-22834D02*
X47578Y-23129D01*
X48169Y-24015D02*
X48464Y-24015D01*
X47578Y-24015D02*
X47874Y-24015D01*
X47578Y-23425D02*
X47578Y-23720D01*
X44192Y-23425D02*
X44192Y-23720D01*
X44192Y-24015D02*
X44488Y-24015D01*
X44783Y-24015D02*
X45078Y-24015D01*
X44192Y-22834D02*
X44192Y-23129D01*
X45374Y-22244D02*
X45374Y-21948D01*
X45374Y-22834D02*
X45374Y-22539D01*
X45374Y-23425D02*
X45374Y-23129D01*
X45374Y-24015D02*
X45374Y-23720D01*
X44724Y-22834D02*
X44192Y-22834D01*
X44192Y-22539D02*
X44192Y-22244D01*
X43602Y-22539D02*
X43602Y-22244D01*
X43602Y-23129D02*
X43602Y-22834D01*
X43602Y-23720D02*
X43602Y-23425D01*
X43307Y-24015D02*
X43602Y-24015D01*
X42716Y-24015D02*
X43011Y-24015D01*
X42421Y-23720D02*
X42421Y-24015D01*
X42421Y-23129D02*
X42421Y-23425D01*
X43011Y-22834D02*
X42421Y-22834D01*
X42421Y-22539D02*
X42421Y-22244D01*
X39074Y-23129D02*
X39074Y-23425D01*
X39074Y-23720D02*
X39074Y-24015D01*
X40255Y-22539D02*
X40255Y-22244D01*
X40255Y-23129D02*
X40255Y-22834D01*
X40255Y-23720D02*
X40255Y-23425D01*
X39960Y-24015D02*
X40255Y-24015D01*
X39370Y-24015D02*
X39665Y-24015D01*
X39074Y-22244D02*
X39074Y-21948D01*
X39074Y-22834D02*
X39074Y-22539D01*
X47677Y-42125D02*
X47677Y-42421D01*
X47677Y-42716D02*
X47677Y-43011D01*
X51023Y-42125D02*
X51023Y-42421D01*
X51023Y-42716D02*
X51023Y-43011D01*
X52204Y-41240D02*
X52204Y-41535D01*
X51318Y-40944D02*
X51614Y-40944D01*
X51909Y-40944D02*
X52204Y-40944D01*
X51023Y-41535D02*
X51023Y-41240D01*
X51023Y-42125D02*
X51023Y-41830D01*
X52204Y-42421D02*
X52204Y-42716D01*
X52204Y-41830D02*
X52204Y-42125D01*
X48858Y-40944D02*
X48858Y-41240D01*
X47677Y-41535D02*
X47677Y-41240D01*
X47677Y-40944D02*
X47972Y-40944D01*
X48267Y-40944D02*
X48562Y-40944D01*
X47677Y-41830D02*
X47677Y-42125D01*
X48858Y-42716D02*
X48858Y-43011D01*
X48858Y-42125D02*
X48858Y-42421D01*
X48858Y-41535D02*
X48858Y-41830D01*
X49606Y-32283D02*
X49606Y-32677D01*
X49212Y-32874D02*
X48818Y-32874D01*
X48425Y-32874D02*
X48818Y-32874D01*
X48228Y-32283D02*
X48228Y-32677D01*
X41555Y-28188D02*
X41555Y-28464D01*
G54D21*
X70745Y-42372D02*
X69957Y-42372D01*
X69170Y-42372D02*
X69957Y-42372D01*
G54D27*
X69957Y-42372D02*
X69957Y-42443D01*
G54D22*
X43326Y-25610D02*
X42972Y-25964D01*
X42972Y-25964D02*
X42972Y-28287D01*
X48681Y-25610D02*
X43326Y-25610D01*
G54D20*
X64378Y-36468D02*
X64378Y-36468D01*
X68655Y-34189D02*
X66375Y-36468D01*
X66375Y-36468D02*
X64378Y-36468D01*
X64378Y-36468D02*
X63236Y-36468D01*
X68655Y-34189D02*
X68655Y-32970D01*
X68655Y-32970D02*
X70860Y-30765D01*
X70860Y-28525D02*
X70860Y-30765D01*
X63236Y-36468D02*
X63230Y-36475D01*
X65495Y-35850D02*
X63085Y-35850D01*
X67425Y-33920D02*
X65495Y-35850D01*
X67425Y-33920D02*
X67425Y-33145D01*
X67425Y-33145D02*
X69735Y-30835D01*
X69735Y-28020D02*
X69735Y-30835D01*
X59385Y-35070D02*
X59150Y-35305D01*
X63380Y-35070D02*
X59385Y-35070D01*
X63605Y-35295D02*
X63380Y-35070D01*
X62105Y-34645D02*
X62640Y-34110D01*
X62640Y-34110D02*
X63200Y-34110D01*
X60670Y-34645D02*
X62105Y-34645D01*
X60670Y-34645D02*
X59245Y-33220D01*
X63200Y-34110D02*
X63350Y-34260D01*
X63350Y-34260D02*
X63350Y-34545D01*
X63625Y-34855D02*
X60350Y-34855D01*
X60350Y-34855D02*
X58715Y-33220D01*
X63045Y-33825D02*
X62355Y-33825D01*
X60620Y-34055D02*
X59775Y-33210D01*
X62125Y-34055D02*
X60620Y-34055D01*
X62355Y-33825D02*
X62125Y-34055D01*
G54D10*
G36*
X47467Y-29753D02*
X47195Y-29753D01*
X46476Y-29035D01*
X46422Y-28998D01*
X46411Y-28996D01*
X46358Y-28986D01*
X43484Y-28986D01*
X43430Y-28996D01*
X43420Y-28998D01*
X43365Y-29035D01*
X43267Y-29133D01*
X43262Y-29133D01*
X43943Y-28453D01*
X43943Y-28453D01*
X43943Y-28453D01*
X43979Y-28398D01*
X43992Y-28335D01*
X43992Y-28335D01*
X43992Y-28335D01*
X43992Y-28021D01*
X44158Y-27854D01*
X45568Y-27854D01*
X47467Y-29753D01*
X47467Y-29753D01*
G37*
G54D25*
X47467Y-29753D02*
X47195Y-29753D01*
X46476Y-29035D01*
X46422Y-28998D01*
X46411Y-28996D01*
X46358Y-28986D01*
X43484Y-28986D01*
X43430Y-28996D01*
X43420Y-28998D01*
X43365Y-29035D01*
X43267Y-29133D01*
X43262Y-29133D01*
X43943Y-28453D01*
X43943Y-28453D01*
X43943Y-28453D01*
X43979Y-28398D01*
X43992Y-28335D01*
X43992Y-28335D01*
X43992Y-28335D01*
X43992Y-28021D01*
X44158Y-27854D01*
X45568Y-27854D01*
X47467Y-29753D01*
G54D10*
G36*
X51181Y-29397D02*
X51166Y-29406D01*
X51166Y-29406D01*
X51090Y-29482D01*
X49409Y-29482D01*
X49409Y-27902D01*
X49370Y-27807D01*
X49298Y-27735D01*
X49204Y-27696D01*
X49102Y-27696D01*
X49008Y-27735D01*
X48936Y-27807D01*
X48897Y-27901D01*
X48897Y-27902D01*
X48650Y-28149D01*
X48058Y-28149D01*
X48058Y-28149D01*
X47964Y-28110D01*
X47862Y-28110D01*
X47768Y-28149D01*
X47696Y-28220D01*
X47657Y-28315D01*
X47657Y-28416D01*
X47696Y-28510D01*
X47768Y-28582D01*
X47862Y-28622D01*
X47964Y-28622D01*
X48058Y-28583D01*
X48058Y-28582D01*
X48740Y-28582D01*
X48823Y-28566D01*
X48893Y-28519D01*
X49203Y-28208D01*
X49204Y-28208D01*
X49298Y-28169D01*
X49370Y-28097D01*
X49409Y-28003D01*
X49409Y-27902D01*
X49409Y-29482D01*
X47669Y-29482D01*
X45848Y-27662D01*
X50046Y-27662D01*
X49980Y-27728D01*
X49940Y-27822D01*
X49940Y-27924D01*
X49979Y-28018D01*
X50051Y-28090D01*
X50145Y-28129D01*
X50247Y-28129D01*
X50341Y-28091D01*
X50413Y-28019D01*
X50442Y-27948D01*
X50442Y-28664D01*
X50442Y-28665D01*
X50455Y-28728D01*
X50491Y-28783D01*
X51056Y-29348D01*
X51056Y-29348D01*
X51111Y-29384D01*
X51164Y-29394D01*
X51174Y-29397D01*
X51174Y-29397D01*
X51175Y-29397D01*
X51181Y-29397D01*
X51181Y-29397D01*
G37*
G54D25*
X51181Y-29397D02*
X51166Y-29406D01*
X51166Y-29406D01*
X51090Y-29482D01*
X49409Y-29482D01*
X49409Y-27902D01*
X49370Y-27807D01*
X49298Y-27735D01*
X49204Y-27696D01*
X49102Y-27696D01*
X49008Y-27735D01*
X48936Y-27807D01*
X48897Y-27901D01*
X48897Y-27902D01*
X48650Y-28149D01*
X48058Y-28149D01*
X48058Y-28149D01*
X47964Y-28110D01*
X47862Y-28110D01*
X47768Y-28149D01*
X47696Y-28220D01*
X47657Y-28315D01*
X47657Y-28416D01*
X47696Y-28510D01*
X47768Y-28582D01*
X47862Y-28622D01*
X47964Y-28622D01*
X48058Y-28583D01*
X48058Y-28582D01*
X48740Y-28582D01*
X48823Y-28566D01*
X48893Y-28519D01*
X49203Y-28208D01*
X49204Y-28208D01*
X49298Y-28169D01*
X49370Y-28097D01*
X49409Y-28003D01*
X49409Y-27902D01*
X49409Y-29482D01*
X47669Y-29482D01*
X45848Y-27662D01*
X50046Y-27662D01*
X49980Y-27728D01*
X49940Y-27822D01*
X49940Y-27924D01*
X49979Y-28018D01*
X50051Y-28090D01*
X50145Y-28129D01*
X50247Y-28129D01*
X50341Y-28091D01*
X50413Y-28019D01*
X50442Y-27948D01*
X50442Y-28664D01*
X50442Y-28665D01*
X50455Y-28728D01*
X50491Y-28783D01*
X51056Y-29348D01*
X51056Y-29348D01*
X51111Y-29384D01*
X51164Y-29394D01*
X51174Y-29397D01*
X51174Y-29397D01*
X51175Y-29397D01*
X51181Y-29397D01*
G54D10*
G36*
X63182Y-34350D02*
X63133Y-34399D01*
X63094Y-34493D01*
X63094Y-34595D01*
X63132Y-34687D01*
X62298Y-34687D01*
X62709Y-34277D01*
X63130Y-34277D01*
X63182Y-34329D01*
X63182Y-34350D01*
X63182Y-34350D01*
G37*
G54D25*
X63182Y-34350D02*
X63133Y-34399D01*
X63094Y-34493D01*
X63094Y-34595D01*
X63132Y-34687D01*
X62298Y-34687D01*
X62709Y-34277D01*
X63130Y-34277D01*
X63182Y-34329D01*
X63182Y-34350D01*
G54D10*
G36*
X63452Y-32792D02*
X63452Y-32790D01*
X63380Y-32718D01*
X63286Y-32679D01*
X63184Y-32679D01*
X63090Y-32717D01*
X63040Y-32767D01*
X61699Y-32767D01*
X61141Y-32210D01*
X61141Y-31386D01*
X61102Y-31292D01*
X61030Y-31220D01*
X60936Y-31181D01*
X60835Y-31181D01*
X60741Y-31219D01*
X60669Y-31291D01*
X60629Y-31385D01*
X60629Y-31487D01*
X60668Y-31581D01*
X60740Y-31653D01*
X60834Y-31692D01*
X60936Y-31692D01*
X61030Y-31654D01*
X61102Y-31582D01*
X61141Y-31488D01*
X61141Y-31386D01*
X61141Y-32210D01*
X57832Y-28900D01*
X60819Y-28900D01*
X63452Y-31534D01*
X63452Y-32792D01*
X63452Y-32792D01*
G37*
G54D25*
X63452Y-32792D02*
X63452Y-32790D01*
X63380Y-32718D01*
X63286Y-32679D01*
X63184Y-32679D01*
X63090Y-32717D01*
X63040Y-32767D01*
X61699Y-32767D01*
X61141Y-32210D01*
X61141Y-31386D01*
X61102Y-31292D01*
X61030Y-31220D01*
X60936Y-31181D01*
X60835Y-31181D01*
X60741Y-31219D01*
X60669Y-31291D01*
X60629Y-31385D01*
X60629Y-31487D01*
X60668Y-31581D01*
X60740Y-31653D01*
X60834Y-31692D01*
X60936Y-31692D01*
X61030Y-31654D01*
X61102Y-31582D01*
X61141Y-31488D01*
X61141Y-31386D01*
X61141Y-32210D01*
X57832Y-28900D01*
X60819Y-28900D01*
X63452Y-31534D01*
X63452Y-32792D01*
G54D10*
G36*
X78547Y-43113D02*
X75535Y-43113D01*
X75535Y-35399D01*
X75535Y-30659D01*
X75398Y-30326D01*
X75143Y-30071D01*
X74810Y-29933D01*
X74450Y-29932D01*
X74117Y-30070D01*
X73862Y-30324D01*
X73724Y-30657D01*
X73724Y-31017D01*
X73861Y-31350D01*
X74116Y-31605D01*
X74449Y-31743D01*
X74809Y-31744D01*
X75142Y-31606D01*
X75397Y-31352D01*
X75535Y-31019D01*
X75535Y-30659D01*
X75535Y-35399D01*
X75398Y-35066D01*
X75143Y-34811D01*
X74810Y-34673D01*
X74450Y-34673D01*
X74117Y-34810D01*
X74016Y-34912D01*
X74016Y-32805D01*
X74015Y-32624D01*
X73947Y-32461D01*
X73882Y-32425D01*
X73854Y-32453D01*
X73854Y-32397D01*
X73818Y-32331D01*
X73651Y-32263D01*
X73471Y-32264D01*
X73307Y-32331D01*
X73271Y-32397D01*
X73562Y-32688D01*
X73854Y-32397D01*
X73854Y-32453D01*
X73590Y-32716D01*
X73882Y-33007D01*
X73947Y-32971D01*
X74016Y-32805D01*
X74016Y-34912D01*
X74015Y-34912D01*
X74015Y-33611D01*
X73947Y-33444D01*
X73854Y-33351D01*
X73854Y-33035D01*
X73562Y-32744D01*
X73535Y-32772D01*
X73535Y-32716D01*
X73243Y-32425D01*
X73178Y-32461D01*
X73169Y-32483D01*
X73159Y-32460D01*
X73032Y-32332D01*
X72866Y-32263D01*
X72685Y-32263D01*
X72519Y-32332D01*
X72391Y-32459D01*
X72322Y-32626D01*
X72322Y-32806D01*
X72391Y-32972D01*
X72518Y-33100D01*
X72685Y-33169D01*
X72865Y-33169D01*
X73031Y-33100D01*
X73159Y-32973D01*
X73169Y-32949D01*
X73178Y-32971D01*
X73243Y-33007D01*
X73535Y-32716D01*
X73535Y-32772D01*
X73271Y-33035D01*
X73307Y-33101D01*
X73474Y-33169D01*
X73654Y-33168D01*
X73818Y-33101D01*
X73854Y-33035D01*
X73854Y-33351D01*
X73819Y-33317D01*
X73653Y-33248D01*
X73473Y-33247D01*
X73306Y-33316D01*
X73179Y-33443D01*
X73169Y-33468D01*
X73159Y-33444D01*
X73032Y-33317D01*
X72866Y-33248D01*
X72685Y-33247D01*
X72519Y-33316D01*
X72391Y-33443D01*
X72322Y-33610D01*
X72322Y-33790D01*
X72391Y-33956D01*
X72518Y-34084D01*
X72685Y-34153D01*
X72865Y-34153D01*
X73031Y-34084D01*
X73159Y-33957D01*
X73169Y-33933D01*
X73178Y-33956D01*
X73306Y-34084D01*
X73472Y-34153D01*
X73652Y-34153D01*
X73819Y-34084D01*
X73946Y-33957D01*
X74015Y-33791D01*
X74015Y-33611D01*
X74015Y-34912D01*
X73862Y-35065D01*
X73724Y-35397D01*
X73724Y-35758D01*
X73861Y-36091D01*
X74116Y-36345D01*
X74449Y-36484D01*
X74809Y-36484D01*
X75142Y-36346D01*
X75397Y-36092D01*
X75535Y-35759D01*
X75535Y-35399D01*
X75535Y-43113D01*
X74320Y-43113D01*
X74320Y-41585D01*
X74288Y-41424D01*
X74197Y-41289D01*
X74062Y-41198D01*
X73902Y-41166D01*
X73885Y-41166D01*
X73725Y-41198D01*
X73590Y-41289D01*
X73500Y-41423D01*
X73410Y-41289D01*
X73275Y-41198D01*
X73115Y-41166D01*
X73098Y-41166D01*
X72938Y-41198D01*
X72803Y-41289D01*
X72713Y-41423D01*
X72623Y-41289D01*
X72488Y-41198D01*
X72328Y-41166D01*
X72311Y-41166D01*
X72167Y-41195D01*
X71115Y-40144D01*
X71115Y-28474D01*
X71077Y-28380D01*
X71005Y-28308D01*
X70911Y-28269D01*
X70809Y-28269D01*
X70715Y-28307D01*
X70643Y-28379D01*
X70604Y-28473D01*
X70604Y-28575D01*
X70642Y-28669D01*
X70692Y-28719D01*
X70692Y-30695D01*
X70629Y-30758D01*
X70629Y-29437D01*
X70591Y-29343D01*
X70519Y-29271D01*
X70425Y-29232D01*
X70323Y-29232D01*
X70229Y-29271D01*
X70157Y-29343D01*
X70118Y-29437D01*
X70118Y-29538D01*
X70156Y-29632D01*
X70228Y-29705D01*
X70322Y-29744D01*
X70424Y-29744D01*
X70518Y-29705D01*
X70590Y-29633D01*
X70629Y-29539D01*
X70629Y-29437D01*
X70629Y-30758D01*
X69990Y-31397D01*
X69990Y-27969D01*
X69952Y-27875D01*
X69880Y-27803D01*
X69786Y-27764D01*
X69684Y-27764D01*
X69590Y-27802D01*
X69518Y-27874D01*
X69479Y-27968D01*
X69479Y-28070D01*
X69517Y-28164D01*
X69567Y-28214D01*
X69567Y-30765D01*
X68827Y-31506D01*
X68827Y-30490D01*
X68827Y-30489D01*
X68827Y-26995D01*
X68827Y-26994D01*
X68827Y-26994D01*
X68824Y-26984D01*
X68814Y-26931D01*
X68778Y-26876D01*
X68778Y-26876D01*
X68555Y-26654D01*
X68555Y-26584D01*
X68517Y-26490D01*
X68445Y-26418D01*
X68351Y-26379D01*
X68249Y-26379D01*
X68155Y-26417D01*
X68083Y-26489D01*
X68044Y-26583D01*
X68044Y-26685D01*
X68082Y-26779D01*
X68154Y-26851D01*
X68248Y-26890D01*
X68319Y-26890D01*
X68492Y-27064D01*
X68492Y-30420D01*
X67310Y-31602D01*
X65354Y-31602D01*
X65305Y-31553D01*
X65211Y-31514D01*
X65109Y-31514D01*
X65029Y-31547D01*
X65444Y-31132D01*
X67049Y-31132D01*
X67046Y-31134D01*
X67007Y-31228D01*
X67007Y-31330D01*
X67046Y-31424D01*
X67118Y-31496D01*
X67212Y-31535D01*
X67314Y-31535D01*
X67408Y-31496D01*
X67480Y-31424D01*
X67519Y-31330D01*
X67519Y-31228D01*
X67480Y-31134D01*
X67478Y-31132D01*
X67604Y-31132D01*
X67605Y-31132D01*
X67605Y-31132D01*
X67668Y-31119D01*
X67723Y-31083D01*
X68408Y-30398D01*
X68408Y-30398D01*
X68408Y-30398D01*
X68444Y-30343D01*
X68457Y-30280D01*
X68457Y-30280D01*
X68457Y-30279D01*
X68457Y-28485D01*
X68457Y-28485D01*
X68457Y-28485D01*
X68444Y-28421D01*
X68408Y-28366D01*
X68408Y-28366D01*
X67645Y-27604D01*
X67645Y-27534D01*
X67607Y-27440D01*
X67535Y-27368D01*
X67441Y-27329D01*
X67339Y-27329D01*
X67245Y-27367D01*
X67173Y-27439D01*
X67134Y-27533D01*
X67134Y-27635D01*
X67172Y-27729D01*
X67244Y-27801D01*
X67338Y-27840D01*
X67409Y-27840D01*
X68122Y-28554D01*
X68122Y-30210D01*
X67535Y-30797D01*
X66358Y-30797D01*
X66358Y-29614D01*
X66319Y-29520D01*
X66247Y-29448D01*
X66153Y-29409D01*
X66051Y-29409D01*
X65957Y-29448D01*
X65885Y-29520D01*
X65846Y-29614D01*
X65846Y-29716D01*
X65885Y-29810D01*
X65957Y-29882D01*
X66051Y-29921D01*
X66153Y-29921D01*
X66247Y-29882D01*
X66319Y-29810D01*
X66358Y-29716D01*
X66358Y-29614D01*
X66358Y-30797D01*
X65375Y-30797D01*
X65311Y-30810D01*
X65256Y-30846D01*
X65256Y-30846D01*
X64589Y-31514D01*
X64519Y-31514D01*
X64438Y-31547D01*
X64438Y-24507D01*
X64437Y-24320D01*
X64367Y-24150D01*
X64300Y-24112D01*
X64272Y-24140D01*
X64272Y-24084D01*
X64234Y-24017D01*
X64062Y-23946D01*
X63875Y-23947D01*
X63705Y-24017D01*
X63667Y-24084D01*
X63970Y-24387D01*
X64272Y-24084D01*
X64272Y-24140D01*
X63997Y-24415D01*
X64300Y-24717D01*
X64367Y-24679D01*
X64438Y-24507D01*
X64438Y-31547D01*
X64425Y-31552D01*
X64353Y-31624D01*
X64314Y-31718D01*
X64314Y-31820D01*
X64352Y-31914D01*
X64424Y-31986D01*
X64518Y-32025D01*
X64620Y-32025D01*
X64714Y-31987D01*
X64786Y-31915D01*
X64825Y-31821D01*
X64825Y-31750D01*
X64937Y-31639D01*
X64904Y-31718D01*
X64904Y-31820D01*
X64942Y-31914D01*
X65014Y-31986D01*
X65108Y-32025D01*
X65210Y-32025D01*
X65304Y-31987D01*
X65354Y-31937D01*
X67379Y-31937D01*
X67380Y-31937D01*
X67380Y-31937D01*
X67443Y-31924D01*
X67498Y-31888D01*
X68778Y-30608D01*
X68778Y-30608D01*
X68778Y-30608D01*
X68814Y-30553D01*
X68827Y-30490D01*
X68827Y-30490D01*
X68827Y-31506D01*
X67643Y-32690D01*
X67618Y-32630D01*
X67546Y-32558D01*
X67452Y-32519D01*
X67350Y-32519D01*
X67256Y-32558D01*
X67184Y-32630D01*
X67145Y-32724D01*
X67145Y-32826D01*
X67184Y-32920D01*
X67256Y-32992D01*
X67316Y-33017D01*
X67306Y-33026D01*
X67270Y-33081D01*
X67257Y-33145D01*
X67257Y-33145D01*
X67257Y-33850D01*
X65425Y-35682D01*
X64272Y-35682D01*
X64272Y-24745D01*
X63970Y-24442D01*
X63942Y-24470D01*
X63942Y-24415D01*
X63639Y-24112D01*
X63572Y-24150D01*
X63501Y-24322D01*
X63502Y-24509D01*
X63572Y-24679D01*
X63639Y-24717D01*
X63942Y-24415D01*
X63942Y-24470D01*
X63667Y-24745D01*
X63705Y-24812D01*
X63877Y-24883D01*
X64064Y-24882D01*
X64234Y-24812D01*
X64272Y-24745D01*
X64272Y-35682D01*
X63880Y-35682D01*
X63880Y-34804D01*
X63842Y-34710D01*
X63770Y-34638D01*
X63676Y-34599D01*
X63604Y-34599D01*
X63605Y-34596D01*
X63605Y-34494D01*
X63567Y-34400D01*
X63517Y-34350D01*
X63517Y-34260D01*
X63504Y-34196D01*
X63468Y-34141D01*
X63468Y-34141D01*
X63318Y-33991D01*
X63267Y-33957D01*
X63300Y-33876D01*
X63300Y-33774D01*
X63262Y-33680D01*
X63227Y-33645D01*
X63285Y-33645D01*
X63379Y-33607D01*
X63451Y-33535D01*
X63452Y-33532D01*
X63452Y-33710D01*
X63403Y-33759D01*
X63364Y-33853D01*
X63364Y-33955D01*
X63402Y-34049D01*
X63474Y-34121D01*
X63568Y-34160D01*
X63670Y-34160D01*
X63764Y-34122D01*
X63836Y-34050D01*
X63875Y-33956D01*
X63875Y-33854D01*
X63837Y-33760D01*
X63787Y-33710D01*
X63787Y-31465D01*
X63787Y-31465D01*
X63787Y-31465D01*
X63774Y-31401D01*
X63738Y-31346D01*
X63738Y-31346D01*
X63438Y-31046D01*
X63438Y-24322D01*
X63367Y-24150D01*
X63235Y-24018D01*
X63063Y-23946D01*
X62877Y-23946D01*
X62705Y-24017D01*
X62573Y-24149D01*
X62501Y-24321D01*
X62501Y-24507D01*
X62572Y-24679D01*
X62704Y-24811D01*
X62876Y-24883D01*
X63062Y-24883D01*
X63234Y-24812D01*
X63366Y-24680D01*
X63438Y-24508D01*
X63438Y-24322D01*
X63438Y-31046D01*
X63228Y-30837D01*
X63228Y-26209D01*
X63189Y-26115D01*
X63117Y-26043D01*
X63023Y-26003D01*
X62921Y-26003D01*
X62827Y-26042D01*
X62755Y-26114D01*
X62716Y-26208D01*
X62716Y-26310D01*
X62755Y-26404D01*
X62827Y-26476D01*
X62921Y-26515D01*
X63023Y-26515D01*
X63117Y-26476D01*
X63189Y-26404D01*
X63228Y-26310D01*
X63228Y-26209D01*
X63228Y-30837D01*
X61390Y-28999D01*
X61390Y-24689D01*
X61352Y-24595D01*
X61280Y-24523D01*
X61186Y-24484D01*
X61084Y-24484D01*
X60990Y-24522D01*
X60918Y-24594D01*
X60879Y-24688D01*
X60879Y-24759D01*
X58910Y-26727D01*
X53681Y-26727D01*
X53681Y-25913D01*
X53642Y-25819D01*
X53570Y-25747D01*
X53476Y-25708D01*
X53374Y-25708D01*
X53280Y-25747D01*
X53208Y-25819D01*
X53169Y-25913D01*
X53169Y-26015D01*
X53208Y-26109D01*
X53280Y-26181D01*
X53374Y-26220D01*
X53475Y-26220D01*
X53569Y-26181D01*
X53642Y-26109D01*
X53681Y-26015D01*
X53681Y-25913D01*
X53681Y-26727D01*
X53080Y-26727D01*
X53016Y-26740D01*
X52961Y-26776D01*
X52961Y-26776D01*
X51739Y-27999D01*
X51664Y-27999D01*
X51570Y-28037D01*
X51498Y-28109D01*
X51459Y-28203D01*
X51459Y-28305D01*
X51497Y-28399D01*
X51569Y-28471D01*
X51663Y-28510D01*
X51765Y-28510D01*
X51859Y-28472D01*
X51931Y-28400D01*
X51970Y-28306D01*
X51970Y-28240D01*
X53149Y-27062D01*
X58979Y-27062D01*
X58980Y-27062D01*
X58980Y-27062D01*
X59043Y-27049D01*
X59098Y-27013D01*
X61115Y-24995D01*
X61185Y-24995D01*
X61279Y-24957D01*
X61351Y-24885D01*
X61390Y-24791D01*
X61390Y-24689D01*
X61390Y-28999D01*
X61006Y-28615D01*
X60952Y-28579D01*
X60888Y-28566D01*
X60888Y-28566D01*
X51637Y-28566D01*
X51307Y-28235D01*
X51307Y-27790D01*
X51307Y-27789D01*
X51307Y-27789D01*
X51304Y-27779D01*
X51294Y-27726D01*
X51258Y-27671D01*
X51258Y-27671D01*
X50653Y-27066D01*
X50598Y-27030D01*
X50535Y-27017D01*
X50534Y-27017D01*
X49921Y-27017D01*
X49921Y-24791D01*
X49882Y-24697D01*
X49810Y-24625D01*
X49716Y-24586D01*
X49614Y-24586D01*
X49520Y-24625D01*
X49448Y-24697D01*
X49409Y-24791D01*
X49409Y-24893D01*
X49448Y-24987D01*
X49520Y-25059D01*
X49614Y-25098D01*
X49716Y-25098D01*
X49810Y-25059D01*
X49882Y-24987D01*
X49921Y-24893D01*
X49921Y-24791D01*
X49921Y-27017D01*
X45787Y-27017D01*
X45787Y-26012D01*
X45748Y-25918D01*
X45676Y-25846D01*
X45582Y-25807D01*
X45480Y-25807D01*
X45386Y-25845D01*
X45314Y-25917D01*
X45275Y-26011D01*
X45275Y-26113D01*
X45314Y-26207D01*
X45386Y-26279D01*
X45480Y-26318D01*
X45582Y-26318D01*
X45676Y-26280D01*
X45748Y-26208D01*
X45787Y-26114D01*
X45787Y-26012D01*
X45787Y-27017D01*
X43635Y-27017D01*
X43571Y-27030D01*
X43516Y-27066D01*
X43516Y-27066D01*
X43151Y-27431D01*
X43139Y-27449D01*
X43139Y-26033D01*
X43396Y-25777D01*
X48486Y-25777D01*
X48535Y-25827D01*
X48629Y-25866D01*
X48731Y-25866D01*
X48825Y-25827D01*
X48897Y-25755D01*
X48936Y-25661D01*
X48937Y-25559D01*
X48898Y-25465D01*
X48826Y-25393D01*
X48732Y-25354D01*
X48630Y-25354D01*
X48582Y-25374D01*
X48582Y-23795D01*
X48582Y-22883D01*
X48553Y-22854D01*
X48188Y-22854D01*
X48188Y-23907D01*
X48218Y-23937D01*
X48487Y-23937D01*
X48531Y-23919D01*
X48564Y-23885D01*
X48582Y-23842D01*
X48582Y-23795D01*
X48582Y-25374D01*
X48536Y-25393D01*
X48486Y-25442D01*
X48149Y-25442D01*
X48149Y-23907D01*
X48149Y-22854D01*
X47785Y-22854D01*
X47755Y-22883D01*
X47755Y-23795D01*
X47755Y-23842D01*
X47773Y-23885D01*
X47807Y-23919D01*
X47850Y-23937D01*
X48120Y-23937D01*
X48149Y-23907D01*
X48149Y-25442D01*
X45236Y-25442D01*
X45236Y-23795D01*
X45236Y-22883D01*
X45206Y-22854D01*
X44842Y-22854D01*
X44842Y-23907D01*
X44872Y-23937D01*
X45141Y-23937D01*
X45184Y-23919D01*
X45218Y-23885D01*
X45236Y-23842D01*
X45236Y-23795D01*
X45236Y-25442D01*
X44803Y-25442D01*
X44803Y-23907D01*
X44803Y-22854D01*
X44438Y-22854D01*
X44409Y-22883D01*
X44409Y-23795D01*
X44409Y-23842D01*
X44427Y-23885D01*
X44460Y-23919D01*
X44504Y-23937D01*
X44773Y-23937D01*
X44803Y-23907D01*
X44803Y-25442D01*
X43425Y-25442D01*
X43425Y-23795D01*
X43425Y-22883D01*
X43395Y-22854D01*
X43031Y-22854D01*
X43031Y-23907D01*
X43061Y-23937D01*
X43330Y-23937D01*
X43373Y-23919D01*
X43407Y-23885D01*
X43425Y-23842D01*
X43425Y-23795D01*
X43425Y-25442D01*
X43326Y-25442D01*
X43262Y-25455D01*
X43244Y-25467D01*
X43208Y-25491D01*
X42992Y-25708D01*
X42992Y-23907D01*
X42992Y-22854D01*
X42627Y-22854D01*
X42598Y-22883D01*
X42598Y-23795D01*
X42598Y-23842D01*
X42616Y-23885D01*
X42649Y-23919D01*
X42693Y-23937D01*
X42962Y-23937D01*
X42992Y-23907D01*
X42992Y-25708D01*
X42854Y-25846D01*
X42817Y-25900D01*
X42815Y-25911D01*
X42805Y-25964D01*
X42805Y-27647D01*
X42790Y-27576D01*
X42722Y-27474D01*
X42620Y-27405D01*
X42500Y-27381D01*
X42379Y-27405D01*
X42277Y-27474D01*
X42041Y-27710D01*
X41972Y-27812D01*
X41948Y-27933D01*
X41948Y-30629D01*
X41972Y-30750D01*
X42041Y-30852D01*
X42188Y-31000D01*
X42290Y-31068D01*
X42411Y-31092D01*
X42962Y-31092D01*
X43011Y-31102D01*
X45196Y-31102D01*
X45317Y-31078D01*
X45419Y-31010D01*
X45487Y-30907D01*
X45511Y-30787D01*
X45487Y-30666D01*
X45419Y-30564D01*
X45317Y-30496D01*
X45196Y-30472D01*
X43051Y-30472D01*
X43001Y-30462D01*
X42874Y-30462D01*
X42906Y-30430D01*
X42945Y-30336D01*
X42945Y-30242D01*
X43013Y-30270D01*
X43115Y-30270D01*
X43209Y-30232D01*
X43281Y-30160D01*
X43320Y-30066D01*
X43320Y-29983D01*
X43363Y-30000D01*
X43402Y-30000D01*
X43795Y-30393D01*
X43795Y-30393D01*
X43849Y-30429D01*
X43913Y-30442D01*
X49654Y-30442D01*
X49655Y-30442D01*
X49655Y-30442D01*
X49670Y-30439D01*
X49670Y-30439D01*
X52482Y-30439D01*
X52483Y-30439D01*
X52483Y-30439D01*
X52546Y-30426D01*
X52601Y-30390D01*
X53459Y-29532D01*
X57280Y-29532D01*
X61256Y-33508D01*
X61256Y-33508D01*
X61311Y-33544D01*
X61375Y-33557D01*
X63040Y-33557D01*
X63052Y-33569D01*
X62994Y-33569D01*
X62900Y-33607D01*
X62850Y-33657D01*
X62355Y-33657D01*
X62291Y-33670D01*
X62236Y-33706D01*
X62236Y-33706D01*
X62055Y-33887D01*
X61237Y-33887D01*
X61279Y-33845D01*
X61318Y-33751D01*
X61318Y-33650D01*
X61280Y-33556D01*
X61208Y-33483D01*
X61114Y-33444D01*
X61012Y-33444D01*
X60918Y-33483D01*
X60846Y-33555D01*
X60807Y-33649D01*
X60807Y-33751D01*
X60845Y-33845D01*
X60888Y-33887D01*
X60689Y-33887D01*
X60030Y-33229D01*
X60030Y-33159D01*
X59992Y-33065D01*
X59920Y-32993D01*
X59826Y-32954D01*
X59724Y-32954D01*
X59630Y-32992D01*
X59558Y-33064D01*
X59519Y-33158D01*
X59519Y-33257D01*
X59500Y-33239D01*
X59500Y-33169D01*
X59462Y-33075D01*
X59390Y-33003D01*
X59296Y-32964D01*
X59194Y-32964D01*
X59100Y-33002D01*
X59028Y-33074D01*
X58989Y-33168D01*
X58989Y-33257D01*
X58970Y-33239D01*
X58970Y-33169D01*
X58932Y-33075D01*
X58860Y-33003D01*
X58766Y-32964D01*
X58664Y-32964D01*
X58570Y-33002D01*
X58498Y-33074D01*
X58459Y-33168D01*
X58459Y-33270D01*
X58497Y-33364D01*
X58569Y-33436D01*
X58663Y-33475D01*
X58734Y-33475D01*
X60161Y-34902D01*
X59392Y-34902D01*
X59429Y-34814D01*
X59429Y-34713D01*
X59390Y-34619D01*
X59318Y-34546D01*
X59224Y-34507D01*
X59122Y-34507D01*
X59028Y-34546D01*
X58956Y-34618D01*
X58917Y-34712D01*
X58917Y-34814D01*
X58956Y-34908D01*
X59028Y-34980D01*
X59122Y-35019D01*
X59198Y-35019D01*
X59169Y-35049D01*
X59099Y-35049D01*
X59005Y-35087D01*
X58933Y-35159D01*
X58894Y-35253D01*
X58894Y-35355D01*
X58932Y-35449D01*
X59004Y-35521D01*
X59098Y-35560D01*
X59200Y-35560D01*
X59294Y-35522D01*
X59366Y-35450D01*
X59405Y-35356D01*
X59405Y-35285D01*
X59454Y-35237D01*
X63310Y-35237D01*
X63349Y-35275D01*
X63349Y-35345D01*
X63387Y-35439D01*
X63459Y-35511D01*
X63553Y-35550D01*
X63655Y-35550D01*
X63749Y-35512D01*
X63821Y-35440D01*
X63860Y-35346D01*
X63860Y-35244D01*
X63822Y-35150D01*
X63751Y-35079D01*
X63769Y-35072D01*
X63841Y-35000D01*
X63880Y-34906D01*
X63880Y-34804D01*
X63880Y-35682D01*
X63279Y-35682D01*
X63230Y-35633D01*
X63136Y-35594D01*
X63034Y-35594D01*
X62940Y-35632D01*
X62868Y-35704D01*
X62829Y-35798D01*
X62829Y-35900D01*
X62867Y-35994D01*
X62939Y-36066D01*
X63033Y-36105D01*
X63135Y-36105D01*
X63229Y-36067D01*
X63279Y-36017D01*
X65494Y-36017D01*
X65495Y-36017D01*
X65495Y-36017D01*
X65558Y-36004D01*
X65613Y-35968D01*
X66887Y-34694D01*
X66854Y-34773D01*
X66854Y-34875D01*
X66892Y-34969D01*
X66964Y-35041D01*
X67058Y-35080D01*
X67160Y-35080D01*
X67254Y-35042D01*
X67326Y-34970D01*
X67365Y-34876D01*
X67365Y-34774D01*
X67327Y-34680D01*
X67255Y-34608D01*
X67161Y-34569D01*
X67059Y-34569D01*
X66979Y-34602D01*
X67543Y-34038D01*
X67543Y-34038D01*
X67543Y-34038D01*
X67579Y-33983D01*
X67592Y-33920D01*
X67592Y-33920D01*
X67592Y-33920D01*
X67592Y-33214D01*
X69853Y-30953D01*
X69853Y-30953D01*
X69853Y-30953D01*
X69889Y-30898D01*
X69902Y-30835D01*
X69902Y-28214D01*
X69951Y-28165D01*
X69990Y-28071D01*
X69990Y-27969D01*
X69990Y-31397D01*
X68536Y-32851D01*
X68500Y-32906D01*
X68487Y-32970D01*
X68487Y-32970D01*
X68487Y-34119D01*
X66306Y-36301D01*
X64378Y-36301D01*
X64378Y-36301D01*
X64377Y-36301D01*
X63418Y-36301D01*
X63375Y-36258D01*
X63281Y-36219D01*
X63179Y-36219D01*
X63085Y-36257D01*
X63013Y-36329D01*
X62974Y-36423D01*
X62974Y-36525D01*
X63012Y-36619D01*
X63084Y-36691D01*
X63178Y-36730D01*
X63280Y-36730D01*
X63374Y-36692D01*
X63431Y-36635D01*
X64378Y-36635D01*
X64378Y-36635D01*
X64378Y-36635D01*
X64379Y-36635D01*
X64379Y-36635D01*
X66375Y-36635D01*
X66375Y-36635D01*
X66375Y-36635D01*
X66439Y-36622D01*
X66493Y-36586D01*
X68773Y-34307D01*
X68773Y-34307D01*
X68773Y-34307D01*
X68809Y-34253D01*
X68822Y-34189D01*
X68822Y-33039D01*
X70978Y-30883D01*
X70978Y-30883D01*
X70978Y-30883D01*
X71014Y-30828D01*
X71014Y-30828D01*
X71024Y-30775D01*
X71027Y-30765D01*
X71027Y-30765D01*
X71027Y-30765D01*
X71027Y-28719D01*
X71076Y-28670D01*
X71115Y-28576D01*
X71115Y-28474D01*
X71115Y-40144D01*
X70248Y-39276D01*
X70193Y-39240D01*
X70130Y-39227D01*
X70129Y-39227D01*
X67265Y-39227D01*
X67265Y-36859D01*
X67227Y-36765D01*
X67155Y-36693D01*
X67061Y-36654D01*
X66959Y-36654D01*
X66865Y-36692D01*
X66793Y-36764D01*
X66754Y-36858D01*
X66754Y-36960D01*
X66792Y-37054D01*
X66864Y-37126D01*
X66958Y-37165D01*
X67060Y-37165D01*
X67154Y-37127D01*
X67226Y-37055D01*
X67265Y-36961D01*
X67265Y-36859D01*
X67265Y-39227D01*
X66639Y-39227D01*
X64311Y-36899D01*
X64256Y-36863D01*
X64193Y-36850D01*
X64192Y-36850D01*
X61240Y-36850D01*
X61240Y-35933D01*
X61201Y-35839D01*
X61129Y-35767D01*
X61035Y-35728D01*
X60933Y-35728D01*
X60839Y-35767D01*
X60767Y-35839D01*
X60728Y-35933D01*
X60728Y-36034D01*
X60767Y-36129D01*
X60839Y-36201D01*
X60933Y-36240D01*
X61034Y-36240D01*
X61129Y-36201D01*
X61201Y-36129D01*
X61240Y-36035D01*
X61240Y-35933D01*
X61240Y-36850D01*
X59622Y-36850D01*
X58277Y-35505D01*
X58277Y-33725D01*
X58264Y-33661D01*
X58228Y-33606D01*
X58228Y-33606D01*
X57677Y-33055D01*
X57677Y-30500D01*
X57638Y-30406D01*
X57566Y-30334D01*
X57472Y-30295D01*
X57370Y-30295D01*
X57276Y-30334D01*
X57204Y-30406D01*
X57165Y-30500D01*
X57165Y-30601D01*
X57204Y-30695D01*
X57276Y-30768D01*
X57370Y-30807D01*
X57471Y-30807D01*
X57566Y-30768D01*
X57638Y-30696D01*
X57677Y-30602D01*
X57677Y-30500D01*
X57677Y-33055D01*
X54913Y-30291D01*
X54858Y-30255D01*
X54795Y-30242D01*
X54794Y-30242D01*
X53940Y-30242D01*
X53876Y-30255D01*
X53821Y-30291D01*
X53821Y-30291D01*
X53541Y-30571D01*
X53505Y-30626D01*
X53492Y-30690D01*
X53492Y-30690D01*
X53492Y-30894D01*
X53431Y-30869D01*
X53350Y-30869D01*
X53350Y-30779D01*
X53312Y-30685D01*
X53240Y-30613D01*
X53146Y-30574D01*
X53044Y-30574D01*
X52950Y-30612D01*
X52878Y-30684D01*
X52839Y-30778D01*
X52839Y-30880D01*
X52877Y-30974D01*
X52927Y-31024D01*
X52927Y-31156D01*
X52820Y-31049D01*
X52820Y-30979D01*
X52782Y-30885D01*
X52710Y-30813D01*
X52616Y-30774D01*
X52514Y-30774D01*
X52420Y-30812D01*
X52348Y-30884D01*
X52309Y-30978D01*
X52309Y-31080D01*
X52347Y-31174D01*
X52419Y-31246D01*
X52513Y-31285D01*
X52584Y-31285D01*
X52727Y-31429D01*
X52727Y-32140D01*
X52481Y-32386D01*
X52445Y-32441D01*
X52432Y-32505D01*
X52432Y-32505D01*
X52432Y-37109D01*
X52432Y-37110D01*
X52445Y-37173D01*
X52481Y-37228D01*
X56296Y-41043D01*
X56296Y-41043D01*
X56351Y-41079D01*
X56414Y-41092D01*
X56414Y-41092D01*
X56415Y-41092D01*
X58091Y-41092D01*
X60890Y-41092D01*
X61244Y-41445D01*
X61244Y-41515D01*
X61282Y-41609D01*
X61354Y-41681D01*
X61448Y-41720D01*
X61550Y-41720D01*
X61644Y-41682D01*
X61716Y-41610D01*
X61755Y-41516D01*
X61755Y-41414D01*
X61717Y-41320D01*
X61645Y-41248D01*
X61551Y-41209D01*
X61480Y-41209D01*
X61078Y-40806D01*
X61023Y-40770D01*
X60960Y-40757D01*
X60959Y-40757D01*
X58091Y-40757D01*
X56484Y-40757D01*
X53877Y-38151D01*
X53877Y-36917D01*
X53877Y-34693D01*
X53839Y-34599D01*
X53767Y-34527D01*
X53673Y-34488D01*
X53571Y-34488D01*
X53477Y-34527D01*
X53405Y-34598D01*
X53366Y-34692D01*
X53366Y-34794D01*
X53404Y-34888D01*
X53476Y-34960D01*
X53570Y-34999D01*
X53672Y-35000D01*
X53766Y-34961D01*
X53838Y-34889D01*
X53877Y-34795D01*
X53877Y-34693D01*
X53877Y-36917D01*
X53839Y-36823D01*
X53767Y-36751D01*
X53673Y-36712D01*
X53571Y-36712D01*
X53477Y-36751D01*
X53405Y-36823D01*
X53366Y-36917D01*
X53366Y-37019D01*
X53404Y-37113D01*
X53476Y-37185D01*
X53570Y-37224D01*
X53672Y-37224D01*
X53766Y-37185D01*
X53838Y-37113D01*
X53877Y-37019D01*
X53877Y-36917D01*
X53877Y-38151D01*
X52767Y-37040D01*
X52767Y-32574D01*
X52942Y-32398D01*
X52942Y-32754D01*
X52942Y-32755D01*
X52955Y-32818D01*
X52991Y-32873D01*
X54872Y-34754D01*
X54872Y-37944D01*
X54872Y-37945D01*
X54885Y-38008D01*
X54921Y-38063D01*
X56971Y-40113D01*
X57026Y-40149D01*
X57090Y-40162D01*
X57090Y-40162D01*
X57090Y-40162D01*
X58091Y-40162D01*
X62930Y-40162D01*
X64131Y-41362D01*
X64214Y-41445D01*
X64214Y-41515D01*
X64252Y-41609D01*
X64324Y-41681D01*
X64418Y-41720D01*
X64520Y-41720D01*
X64614Y-41682D01*
X64686Y-41610D01*
X64725Y-41516D01*
X64725Y-41414D01*
X64687Y-41320D01*
X64615Y-41248D01*
X64521Y-41209D01*
X64450Y-41209D01*
X64131Y-40890D01*
X63118Y-39876D01*
X63063Y-39840D01*
X63000Y-39827D01*
X62999Y-39827D01*
X58091Y-39827D01*
X57159Y-39827D01*
X55207Y-37875D01*
X55207Y-34778D01*
X55232Y-34804D01*
X55232Y-37294D01*
X55232Y-37295D01*
X55245Y-37358D01*
X55281Y-37413D01*
X57471Y-39603D01*
X57471Y-39603D01*
X57526Y-39639D01*
X57590Y-39652D01*
X58091Y-39652D01*
X64131Y-39652D01*
X64295Y-39652D01*
X65731Y-41088D01*
X65731Y-41088D01*
X65786Y-41124D01*
X65850Y-41137D01*
X65850Y-41137D01*
X65850Y-41137D01*
X67755Y-41137D01*
X67804Y-41186D01*
X67898Y-41225D01*
X68000Y-41225D01*
X68094Y-41187D01*
X68166Y-41115D01*
X68205Y-41021D01*
X68205Y-40919D01*
X68167Y-40825D01*
X68095Y-40753D01*
X68092Y-40752D01*
X69030Y-40752D01*
X69614Y-41335D01*
X69602Y-41347D01*
X69563Y-41442D01*
X69524Y-41348D01*
X69407Y-41230D01*
X69253Y-41166D01*
X69087Y-41166D01*
X68933Y-41230D01*
X68815Y-41347D01*
X68751Y-41501D01*
X68751Y-41667D01*
X68815Y-41821D01*
X68932Y-41939D01*
X68968Y-41953D01*
X68846Y-41953D01*
X68803Y-41971D01*
X68769Y-42005D01*
X68751Y-42048D01*
X68751Y-42095D01*
X68751Y-42322D01*
X68781Y-42352D01*
X69150Y-42352D01*
X69150Y-42344D01*
X69189Y-42344D01*
X69189Y-42352D01*
X69197Y-42352D01*
X69197Y-42391D01*
X69189Y-42391D01*
X69189Y-42760D01*
X69219Y-42790D01*
X69493Y-42790D01*
X69536Y-42772D01*
X69570Y-42738D01*
X69588Y-42695D01*
X69588Y-42648D01*
X69588Y-42575D01*
X69600Y-42606D01*
X69662Y-42638D01*
X69929Y-42372D01*
X69662Y-42105D01*
X69600Y-42137D01*
X69588Y-42169D01*
X69588Y-42095D01*
X69588Y-42048D01*
X69570Y-42005D01*
X69536Y-41971D01*
X69493Y-41953D01*
X69372Y-41953D01*
X69406Y-41939D01*
X69524Y-41822D01*
X69563Y-41727D01*
X69602Y-41821D01*
X69719Y-41939D01*
X69813Y-41978D01*
X69722Y-42015D01*
X69690Y-42077D01*
X69957Y-42344D01*
X70223Y-42077D01*
X70191Y-42015D01*
X70099Y-41978D01*
X70193Y-41939D01*
X70311Y-41822D01*
X70348Y-41733D01*
X70350Y-41745D01*
X70441Y-41880D01*
X70576Y-41971D01*
X70619Y-41979D01*
X70509Y-42026D01*
X70395Y-42142D01*
X70355Y-42239D01*
X70313Y-42137D01*
X70251Y-42105D01*
X69984Y-42372D01*
X70251Y-42638D01*
X70313Y-42606D01*
X70354Y-42503D01*
X70395Y-42601D01*
X70509Y-42717D01*
X70660Y-42781D01*
X70725Y-42760D01*
X70725Y-42391D01*
X70717Y-42391D01*
X70717Y-42352D01*
X70725Y-42352D01*
X70725Y-42344D01*
X70764Y-42344D01*
X70764Y-42352D01*
X71133Y-42352D01*
X71138Y-42335D01*
X71143Y-42352D01*
X71512Y-42352D01*
X71512Y-42344D01*
X71551Y-42344D01*
X71551Y-42352D01*
X71920Y-42352D01*
X71926Y-42334D01*
X71931Y-42352D01*
X72300Y-42352D01*
X72300Y-42344D01*
X72339Y-42344D01*
X72339Y-42352D01*
X72708Y-42352D01*
X72713Y-42335D01*
X72718Y-42352D01*
X73087Y-42352D01*
X73087Y-42344D01*
X73126Y-42344D01*
X73126Y-42352D01*
X73495Y-42352D01*
X73500Y-42335D01*
X73505Y-42352D01*
X73874Y-42352D01*
X73874Y-42344D01*
X73913Y-42344D01*
X73913Y-42352D01*
X74282Y-42352D01*
X74303Y-42287D01*
X74243Y-42142D01*
X74129Y-42026D01*
X74019Y-41979D01*
X74062Y-41971D01*
X74197Y-41880D01*
X74288Y-41745D01*
X74320Y-41585D01*
X74320Y-43113D01*
X74303Y-43113D01*
X74303Y-42456D01*
X74282Y-42391D01*
X73913Y-42391D01*
X73913Y-42760D01*
X73978Y-42781D01*
X74129Y-42717D01*
X74243Y-42601D01*
X74303Y-42456D01*
X74303Y-43113D01*
X73874Y-43113D01*
X73874Y-42760D01*
X73874Y-42391D01*
X73505Y-42391D01*
X73500Y-42408D01*
X73495Y-42391D01*
X73126Y-42391D01*
X73126Y-42760D01*
X73191Y-42781D01*
X73342Y-42717D01*
X73456Y-42601D01*
X73500Y-42495D01*
X73544Y-42601D01*
X73658Y-42717D01*
X73809Y-42781D01*
X73874Y-42760D01*
X73874Y-43113D01*
X73087Y-43113D01*
X73087Y-42760D01*
X73087Y-42391D01*
X72718Y-42391D01*
X72713Y-42408D01*
X72708Y-42391D01*
X72339Y-42391D01*
X72339Y-42760D01*
X72404Y-42781D01*
X72555Y-42717D01*
X72669Y-42601D01*
X72713Y-42495D01*
X72757Y-42601D01*
X72871Y-42717D01*
X73022Y-42781D01*
X73087Y-42760D01*
X73087Y-43113D01*
X72300Y-43113D01*
X72300Y-42760D01*
X72300Y-42391D01*
X71931Y-42391D01*
X71926Y-42409D01*
X71920Y-42391D01*
X71551Y-42391D01*
X71551Y-42760D01*
X71616Y-42781D01*
X71767Y-42717D01*
X71881Y-42601D01*
X71926Y-42494D01*
X71970Y-42601D01*
X72084Y-42717D01*
X72235Y-42781D01*
X72300Y-42760D01*
X72300Y-43113D01*
X71512Y-43113D01*
X71512Y-42760D01*
X71512Y-42391D01*
X71143Y-42391D01*
X71138Y-42408D01*
X71133Y-42391D01*
X70764Y-42391D01*
X70764Y-42760D01*
X70829Y-42781D01*
X70980Y-42717D01*
X71094Y-42601D01*
X71138Y-42495D01*
X71182Y-42601D01*
X71296Y-42717D01*
X71447Y-42781D01*
X71512Y-42760D01*
X71512Y-43113D01*
X70223Y-43113D01*
X70223Y-42666D01*
X69957Y-42399D01*
X69690Y-42666D01*
X69722Y-42728D01*
X69876Y-42790D01*
X70043Y-42789D01*
X70191Y-42728D01*
X70223Y-42666D01*
X70223Y-43113D01*
X69150Y-43113D01*
X69150Y-42760D01*
X69150Y-42391D01*
X68781Y-42391D01*
X68751Y-42421D01*
X68751Y-42648D01*
X68751Y-42695D01*
X68769Y-42738D01*
X68803Y-42772D01*
X68846Y-42790D01*
X69120Y-42790D01*
X69150Y-42760D01*
X69150Y-43113D01*
X64131Y-43113D01*
X58091Y-43113D01*
X53877Y-43113D01*
X53877Y-38984D01*
X53839Y-38890D01*
X53767Y-38818D01*
X53673Y-38779D01*
X53571Y-38779D01*
X53477Y-38818D01*
X53405Y-38890D01*
X53366Y-38984D01*
X53366Y-39086D01*
X53404Y-39180D01*
X53476Y-39252D01*
X53570Y-39291D01*
X53672Y-39291D01*
X53766Y-39252D01*
X53838Y-39180D01*
X53877Y-39086D01*
X53877Y-38984D01*
X53877Y-43113D01*
X52027Y-43113D01*
X52027Y-43086D01*
X52027Y-41165D01*
X52027Y-41118D01*
X52009Y-41074D01*
X51976Y-41041D01*
X51932Y-41023D01*
X51663Y-41023D01*
X51633Y-41053D01*
X51633Y-42106D01*
X51998Y-42106D01*
X52027Y-42076D01*
X52027Y-41165D01*
X52027Y-43086D01*
X52027Y-42175D01*
X51998Y-42145D01*
X51633Y-42145D01*
X51633Y-42153D01*
X51594Y-42153D01*
X51594Y-42145D01*
X51594Y-42106D01*
X51594Y-41053D01*
X51564Y-41023D01*
X51295Y-41023D01*
X51252Y-41041D01*
X51218Y-41074D01*
X51200Y-41118D01*
X51200Y-41165D01*
X51200Y-42076D01*
X51230Y-42106D01*
X51594Y-42106D01*
X51594Y-42145D01*
X51230Y-42145D01*
X51200Y-42175D01*
X51200Y-43086D01*
X51200Y-43113D01*
X48681Y-43113D01*
X48681Y-43086D01*
X48681Y-41165D01*
X48681Y-41118D01*
X48663Y-41074D01*
X48629Y-41041D01*
X48586Y-41023D01*
X48316Y-41023D01*
X48287Y-41053D01*
X48287Y-42106D01*
X48651Y-42106D01*
X48681Y-42076D01*
X48681Y-41165D01*
X48681Y-43086D01*
X48681Y-42175D01*
X48651Y-42145D01*
X48287Y-42145D01*
X48287Y-42153D01*
X48248Y-42153D01*
X48248Y-42145D01*
X48248Y-42106D01*
X48248Y-41053D01*
X48218Y-41023D01*
X47949Y-41023D01*
X47905Y-41041D01*
X47872Y-41074D01*
X47854Y-41118D01*
X47854Y-41165D01*
X47854Y-42076D01*
X47883Y-42106D01*
X48248Y-42106D01*
X48248Y-42145D01*
X47883Y-42145D01*
X47854Y-42175D01*
X47854Y-43086D01*
X47854Y-43113D01*
X46003Y-43113D01*
X46003Y-39594D01*
X45984Y-39547D01*
X45984Y-37370D01*
X45945Y-37276D01*
X45873Y-37204D01*
X45779Y-37165D01*
X45677Y-37165D01*
X45583Y-37204D01*
X45511Y-37276D01*
X45472Y-37370D01*
X45472Y-37471D01*
X45511Y-37566D01*
X45583Y-37638D01*
X45677Y-37677D01*
X45779Y-37677D01*
X45873Y-37638D01*
X45945Y-37566D01*
X45984Y-37472D01*
X45984Y-37370D01*
X45984Y-39547D01*
X45965Y-39500D01*
X45893Y-39428D01*
X45799Y-39389D01*
X45697Y-39389D01*
X45603Y-39428D01*
X45531Y-39500D01*
X45492Y-39594D01*
X45492Y-39696D01*
X45530Y-39790D01*
X45602Y-39862D01*
X45696Y-39901D01*
X45798Y-39901D01*
X45892Y-39862D01*
X45964Y-39790D01*
X46003Y-39696D01*
X46003Y-39594D01*
X46003Y-43113D01*
X40078Y-43113D01*
X40078Y-23795D01*
X40078Y-22883D01*
X40049Y-22854D01*
X39685Y-22854D01*
X39685Y-23907D01*
X39714Y-23937D01*
X39984Y-23937D01*
X40027Y-23919D01*
X40060Y-23885D01*
X40078Y-23842D01*
X40078Y-23795D01*
X40078Y-43113D01*
X39901Y-43113D01*
X39901Y-31799D01*
X39862Y-31705D01*
X39790Y-31633D01*
X39696Y-31594D01*
X39645Y-31594D01*
X39645Y-23907D01*
X39645Y-22854D01*
X39281Y-22854D01*
X39251Y-22883D01*
X39251Y-23795D01*
X39251Y-23842D01*
X39270Y-23885D01*
X39303Y-23919D01*
X39346Y-23937D01*
X39616Y-23937D01*
X39645Y-23907D01*
X39645Y-31594D01*
X39594Y-31594D01*
X39500Y-31633D01*
X39428Y-31705D01*
X39389Y-31799D01*
X39389Y-31901D01*
X39428Y-31995D01*
X39500Y-32067D01*
X39594Y-32106D01*
X39696Y-32106D01*
X39790Y-32067D01*
X39862Y-31995D01*
X39901Y-31901D01*
X39901Y-31799D01*
X39901Y-43113D01*
X35626Y-43113D01*
X35626Y-21846D01*
X39251Y-21846D01*
X39251Y-21873D01*
X39251Y-22785D01*
X39281Y-22814D01*
X39645Y-22814D01*
X39645Y-22807D01*
X39685Y-22807D01*
X39685Y-22814D01*
X40049Y-22814D01*
X40078Y-22785D01*
X40078Y-21873D01*
X40078Y-21846D01*
X42598Y-21846D01*
X42598Y-21873D01*
X42598Y-22785D01*
X42627Y-22814D01*
X42992Y-22814D01*
X42992Y-22807D01*
X43031Y-22807D01*
X43031Y-22814D01*
X43395Y-22814D01*
X43425Y-22785D01*
X43425Y-21873D01*
X43425Y-21846D01*
X44409Y-21846D01*
X44409Y-21873D01*
X44409Y-22785D01*
X44438Y-22814D01*
X44803Y-22814D01*
X44803Y-22807D01*
X44842Y-22807D01*
X44842Y-22814D01*
X45206Y-22814D01*
X45236Y-22785D01*
X45236Y-21873D01*
X45236Y-21846D01*
X47755Y-21846D01*
X47755Y-21873D01*
X47755Y-22785D01*
X47785Y-22814D01*
X48149Y-22814D01*
X48149Y-22807D01*
X48188Y-22807D01*
X48188Y-22814D01*
X48553Y-22814D01*
X48582Y-22785D01*
X48582Y-21873D01*
X48582Y-21846D01*
X78547Y-21846D01*
X78547Y-43113D01*
X78547Y-43113D01*
G37*
G54D25*
X78547Y-43113D02*
X75535Y-43113D01*
X75535Y-35399D01*
X75535Y-30659D01*
X75398Y-30326D01*
X75143Y-30071D01*
X74810Y-29933D01*
X74450Y-29932D01*
X74117Y-30070D01*
X73862Y-30324D01*
X73724Y-30657D01*
X73724Y-31017D01*
X73861Y-31350D01*
X74116Y-31605D01*
X74449Y-31743D01*
X74809Y-31744D01*
X75142Y-31606D01*
X75397Y-31352D01*
X75535Y-31019D01*
X75535Y-30659D01*
X75535Y-35399D01*
X75398Y-35066D01*
X75143Y-34811D01*
X74810Y-34673D01*
X74450Y-34673D01*
X74117Y-34810D01*
X74016Y-34912D01*
X74016Y-32805D01*
X74015Y-32624D01*
X73947Y-32461D01*
X73882Y-32425D01*
X73854Y-32453D01*
X73854Y-32397D01*
X73818Y-32331D01*
X73651Y-32263D01*
X73471Y-32264D01*
X73307Y-32331D01*
X73271Y-32397D01*
X73562Y-32688D01*
X73854Y-32397D01*
X73854Y-32453D01*
X73590Y-32716D01*
X73882Y-33007D01*
X73947Y-32971D01*
X74016Y-32805D01*
X74016Y-34912D01*
X74015Y-34912D01*
X74015Y-33611D01*
X73947Y-33444D01*
X73854Y-33351D01*
X73854Y-33035D01*
X73562Y-32744D01*
X73535Y-32772D01*
X73535Y-32716D01*
X73243Y-32425D01*
X73178Y-32461D01*
X73169Y-32483D01*
X73159Y-32460D01*
X73032Y-32332D01*
X72866Y-32263D01*
X72685Y-32263D01*
X72519Y-32332D01*
X72391Y-32459D01*
X72322Y-32626D01*
X72322Y-32806D01*
X72391Y-32972D01*
X72518Y-33100D01*
X72685Y-33169D01*
X72865Y-33169D01*
X73031Y-33100D01*
X73159Y-32973D01*
X73169Y-32949D01*
X73178Y-32971D01*
X73243Y-33007D01*
X73535Y-32716D01*
X73535Y-32772D01*
X73271Y-33035D01*
X73307Y-33101D01*
X73474Y-33169D01*
X73654Y-33168D01*
X73818Y-33101D01*
X73854Y-33035D01*
X73854Y-33351D01*
X73819Y-33317D01*
X73653Y-33248D01*
X73473Y-33247D01*
X73306Y-33316D01*
X73179Y-33443D01*
X73169Y-33468D01*
X73159Y-33444D01*
X73032Y-33317D01*
X72866Y-33248D01*
X72685Y-33247D01*
X72519Y-33316D01*
X72391Y-33443D01*
X72322Y-33610D01*
X72322Y-33790D01*
X72391Y-33956D01*
X72518Y-34084D01*
X72685Y-34153D01*
X72865Y-34153D01*
X73031Y-34084D01*
X73159Y-33957D01*
X73169Y-33933D01*
X73178Y-33956D01*
X73306Y-34084D01*
X73472Y-34153D01*
X73652Y-34153D01*
X73819Y-34084D01*
X73946Y-33957D01*
X74015Y-33791D01*
X74015Y-33611D01*
X74015Y-34912D01*
X73862Y-35065D01*
X73724Y-35397D01*
X73724Y-35758D01*
X73861Y-36091D01*
X74116Y-36345D01*
X74449Y-36484D01*
X74809Y-36484D01*
X75142Y-36346D01*
X75397Y-36092D01*
X75535Y-35759D01*
X75535Y-35399D01*
X75535Y-43113D01*
X74320Y-43113D01*
X74320Y-41585D01*
X74288Y-41424D01*
X74197Y-41289D01*
X74062Y-41198D01*
X73902Y-41166D01*
X73885Y-41166D01*
X73725Y-41198D01*
X73590Y-41289D01*
X73500Y-41423D01*
X73410Y-41289D01*
X73275Y-41198D01*
X73115Y-41166D01*
X73098Y-41166D01*
X72938Y-41198D01*
X72803Y-41289D01*
X72713Y-41423D01*
X72623Y-41289D01*
X72488Y-41198D01*
X72328Y-41166D01*
X72311Y-41166D01*
X72167Y-41195D01*
X71115Y-40144D01*
X71115Y-28474D01*
X71077Y-28380D01*
X71005Y-28308D01*
X70911Y-28269D01*
X70809Y-28269D01*
X70715Y-28307D01*
X70643Y-28379D01*
X70604Y-28473D01*
X70604Y-28575D01*
X70642Y-28669D01*
X70692Y-28719D01*
X70692Y-30695D01*
X70629Y-30758D01*
X70629Y-29437D01*
X70591Y-29343D01*
X70519Y-29271D01*
X70425Y-29232D01*
X70323Y-29232D01*
X70229Y-29271D01*
X70157Y-29343D01*
X70118Y-29437D01*
X70118Y-29538D01*
X70156Y-29632D01*
X70228Y-29705D01*
X70322Y-29744D01*
X70424Y-29744D01*
X70518Y-29705D01*
X70590Y-29633D01*
X70629Y-29539D01*
X70629Y-29437D01*
X70629Y-30758D01*
X69990Y-31397D01*
X69990Y-27969D01*
X69952Y-27875D01*
X69880Y-27803D01*
X69786Y-27764D01*
X69684Y-27764D01*
X69590Y-27802D01*
X69518Y-27874D01*
X69479Y-27968D01*
X69479Y-28070D01*
X69517Y-28164D01*
X69567Y-28214D01*
X69567Y-30765D01*
X68827Y-31506D01*
X68827Y-30490D01*
X68827Y-30489D01*
X68827Y-26995D01*
X68827Y-26994D01*
X68827Y-26994D01*
X68824Y-26984D01*
X68814Y-26931D01*
X68778Y-26876D01*
X68778Y-26876D01*
X68555Y-26654D01*
X68555Y-26584D01*
X68517Y-26490D01*
X68445Y-26418D01*
X68351Y-26379D01*
X68249Y-26379D01*
X68155Y-26417D01*
X68083Y-26489D01*
X68044Y-26583D01*
X68044Y-26685D01*
X68082Y-26779D01*
X68154Y-26851D01*
X68248Y-26890D01*
X68319Y-26890D01*
X68492Y-27064D01*
X68492Y-30420D01*
X67310Y-31602D01*
X65354Y-31602D01*
X65305Y-31553D01*
X65211Y-31514D01*
X65109Y-31514D01*
X65029Y-31547D01*
X65444Y-31132D01*
X67049Y-31132D01*
X67046Y-31134D01*
X67007Y-31228D01*
X67007Y-31330D01*
X67046Y-31424D01*
X67118Y-31496D01*
X67212Y-31535D01*
X67314Y-31535D01*
X67408Y-31496D01*
X67480Y-31424D01*
X67519Y-31330D01*
X67519Y-31228D01*
X67480Y-31134D01*
X67478Y-31132D01*
X67604Y-31132D01*
X67605Y-31132D01*
X67605Y-31132D01*
X67668Y-31119D01*
X67723Y-31083D01*
X68408Y-30398D01*
X68408Y-30398D01*
X68408Y-30398D01*
X68444Y-30343D01*
X68457Y-30280D01*
X68457Y-30280D01*
X68457Y-30279D01*
X68457Y-28485D01*
X68457Y-28485D01*
X68457Y-28485D01*
X68444Y-28421D01*
X68408Y-28366D01*
X68408Y-28366D01*
X67645Y-27604D01*
X67645Y-27534D01*
X67607Y-27440D01*
X67535Y-27368D01*
X67441Y-27329D01*
X67339Y-27329D01*
X67245Y-27367D01*
X67173Y-27439D01*
X67134Y-27533D01*
X67134Y-27635D01*
X67172Y-27729D01*
X67244Y-27801D01*
X67338Y-27840D01*
X67409Y-27840D01*
X68122Y-28554D01*
X68122Y-30210D01*
X67535Y-30797D01*
X66358Y-30797D01*
X66358Y-29614D01*
X66319Y-29520D01*
X66247Y-29448D01*
X66153Y-29409D01*
X66051Y-29409D01*
X65957Y-29448D01*
X65885Y-29520D01*
X65846Y-29614D01*
X65846Y-29716D01*
X65885Y-29810D01*
X65957Y-29882D01*
X66051Y-29921D01*
X66153Y-29921D01*
X66247Y-29882D01*
X66319Y-29810D01*
X66358Y-29716D01*
X66358Y-29614D01*
X66358Y-30797D01*
X65375Y-30797D01*
X65311Y-30810D01*
X65256Y-30846D01*
X65256Y-30846D01*
X64589Y-31514D01*
X64519Y-31514D01*
X64438Y-31547D01*
X64438Y-24507D01*
X64437Y-24320D01*
X64367Y-24150D01*
X64300Y-24112D01*
X64272Y-24140D01*
X64272Y-24084D01*
X64234Y-24017D01*
X64062Y-23946D01*
X63875Y-23947D01*
X63705Y-24017D01*
X63667Y-24084D01*
X63970Y-24387D01*
X64272Y-24084D01*
X64272Y-24140D01*
X63997Y-24415D01*
X64300Y-24717D01*
X64367Y-24679D01*
X64438Y-24507D01*
X64438Y-31547D01*
X64425Y-31552D01*
X64353Y-31624D01*
X64314Y-31718D01*
X64314Y-31820D01*
X64352Y-31914D01*
X64424Y-31986D01*
X64518Y-32025D01*
X64620Y-32025D01*
X64714Y-31987D01*
X64786Y-31915D01*
X64825Y-31821D01*
X64825Y-31750D01*
X64937Y-31639D01*
X64904Y-31718D01*
X64904Y-31820D01*
X64942Y-31914D01*
X65014Y-31986D01*
X65108Y-32025D01*
X65210Y-32025D01*
X65304Y-31987D01*
X65354Y-31937D01*
X67379Y-31937D01*
X67380Y-31937D01*
X67380Y-31937D01*
X67443Y-31924D01*
X67498Y-31888D01*
X68778Y-30608D01*
X68778Y-30608D01*
X68778Y-30608D01*
X68814Y-30553D01*
X68827Y-30490D01*
X68827Y-30490D01*
X68827Y-31506D01*
X67643Y-32690D01*
X67618Y-32630D01*
X67546Y-32558D01*
X67452Y-32519D01*
X67350Y-32519D01*
X67256Y-32558D01*
X67184Y-32630D01*
X67145Y-32724D01*
X67145Y-32826D01*
X67184Y-32920D01*
X67256Y-32992D01*
X67316Y-33017D01*
X67306Y-33026D01*
X67270Y-33081D01*
X67257Y-33145D01*
X67257Y-33145D01*
X67257Y-33850D01*
X65425Y-35682D01*
X64272Y-35682D01*
X64272Y-24745D01*
X63970Y-24442D01*
X63942Y-24470D01*
X63942Y-24415D01*
X63639Y-24112D01*
X63572Y-24150D01*
X63501Y-24322D01*
X63502Y-24509D01*
X63572Y-24679D01*
X63639Y-24717D01*
X63942Y-24415D01*
X63942Y-24470D01*
X63667Y-24745D01*
X63705Y-24812D01*
X63877Y-24883D01*
X64064Y-24882D01*
X64234Y-24812D01*
X64272Y-24745D01*
X64272Y-35682D01*
X63880Y-35682D01*
X63880Y-34804D01*
X63842Y-34710D01*
X63770Y-34638D01*
X63676Y-34599D01*
X63604Y-34599D01*
X63605Y-34596D01*
X63605Y-34494D01*
X63567Y-34400D01*
X63517Y-34350D01*
X63517Y-34260D01*
X63504Y-34196D01*
X63468Y-34141D01*
X63468Y-34141D01*
X63318Y-33991D01*
X63267Y-33957D01*
X63300Y-33876D01*
X63300Y-33774D01*
X63262Y-33680D01*
X63227Y-33645D01*
X63285Y-33645D01*
X63379Y-33607D01*
X63451Y-33535D01*
X63452Y-33532D01*
X63452Y-33710D01*
X63403Y-33759D01*
X63364Y-33853D01*
X63364Y-33955D01*
X63402Y-34049D01*
X63474Y-34121D01*
X63568Y-34160D01*
X63670Y-34160D01*
X63764Y-34122D01*
X63836Y-34050D01*
X63875Y-33956D01*
X63875Y-33854D01*
X63837Y-33760D01*
X63787Y-33710D01*
X63787Y-31465D01*
X63787Y-31465D01*
X63787Y-31465D01*
X63774Y-31401D01*
X63738Y-31346D01*
X63738Y-31346D01*
X63438Y-31046D01*
X63438Y-24322D01*
X63367Y-24150D01*
X63235Y-24018D01*
X63063Y-23946D01*
X62877Y-23946D01*
X62705Y-24017D01*
X62573Y-24149D01*
X62501Y-24321D01*
X62501Y-24507D01*
X62572Y-24679D01*
X62704Y-24811D01*
X62876Y-24883D01*
X63062Y-24883D01*
X63234Y-24812D01*
X63366Y-24680D01*
X63438Y-24508D01*
X63438Y-24322D01*
X63438Y-31046D01*
X63228Y-30837D01*
X63228Y-26209D01*
X63189Y-26115D01*
X63117Y-26043D01*
X63023Y-26003D01*
X62921Y-26003D01*
X62827Y-26042D01*
X62755Y-26114D01*
X62716Y-26208D01*
X62716Y-26310D01*
X62755Y-26404D01*
X62827Y-26476D01*
X62921Y-26515D01*
X63023Y-26515D01*
X63117Y-26476D01*
X63189Y-26404D01*
X63228Y-26310D01*
X63228Y-26209D01*
X63228Y-30837D01*
X61390Y-28999D01*
X61390Y-24689D01*
X61352Y-24595D01*
X61280Y-24523D01*
X61186Y-24484D01*
X61084Y-24484D01*
X60990Y-24522D01*
X60918Y-24594D01*
X60879Y-24688D01*
X60879Y-24759D01*
X58910Y-26727D01*
X53681Y-26727D01*
X53681Y-25913D01*
X53642Y-25819D01*
X53570Y-25747D01*
X53476Y-25708D01*
X53374Y-25708D01*
X53280Y-25747D01*
X53208Y-25819D01*
X53169Y-25913D01*
X53169Y-26015D01*
X53208Y-26109D01*
X53280Y-26181D01*
X53374Y-26220D01*
X53475Y-26220D01*
X53569Y-26181D01*
X53642Y-26109D01*
X53681Y-26015D01*
X53681Y-25913D01*
X53681Y-26727D01*
X53080Y-26727D01*
X53016Y-26740D01*
X52961Y-26776D01*
X52961Y-26776D01*
X51739Y-27999D01*
X51664Y-27999D01*
X51570Y-28037D01*
X51498Y-28109D01*
X51459Y-28203D01*
X51459Y-28305D01*
X51497Y-28399D01*
X51569Y-28471D01*
X51663Y-28510D01*
X51765Y-28510D01*
X51859Y-28472D01*
X51931Y-28400D01*
X51970Y-28306D01*
X51970Y-28240D01*
X53149Y-27062D01*
X58979Y-27062D01*
X58980Y-27062D01*
X58980Y-27062D01*
X59043Y-27049D01*
X59098Y-27013D01*
X61115Y-24995D01*
X61185Y-24995D01*
X61279Y-24957D01*
X61351Y-24885D01*
X61390Y-24791D01*
X61390Y-24689D01*
X61390Y-28999D01*
X61006Y-28615D01*
X60952Y-28579D01*
X60888Y-28566D01*
X60888Y-28566D01*
X51637Y-28566D01*
X51307Y-28235D01*
X51307Y-27790D01*
X51307Y-27789D01*
X51307Y-27789D01*
X51304Y-27779D01*
X51294Y-27726D01*
X51258Y-27671D01*
X51258Y-27671D01*
X50653Y-27066D01*
X50598Y-27030D01*
X50535Y-27017D01*
X50534Y-27017D01*
X49921Y-27017D01*
X49921Y-24791D01*
X49882Y-24697D01*
X49810Y-24625D01*
X49716Y-24586D01*
X49614Y-24586D01*
X49520Y-24625D01*
X49448Y-24697D01*
X49409Y-24791D01*
X49409Y-24893D01*
X49448Y-24987D01*
X49520Y-25059D01*
X49614Y-25098D01*
X49716Y-25098D01*
X49810Y-25059D01*
X49882Y-24987D01*
X49921Y-24893D01*
X49921Y-24791D01*
X49921Y-27017D01*
X45787Y-27017D01*
X45787Y-26012D01*
X45748Y-25918D01*
X45676Y-25846D01*
X45582Y-25807D01*
X45480Y-25807D01*
X45386Y-25845D01*
X45314Y-25917D01*
X45275Y-26011D01*
X45275Y-26113D01*
X45314Y-26207D01*
X45386Y-26279D01*
X45480Y-26318D01*
X45582Y-26318D01*
X45676Y-26280D01*
X45748Y-26208D01*
X45787Y-26114D01*
X45787Y-26012D01*
X45787Y-27017D01*
X43635Y-27017D01*
X43571Y-27030D01*
X43516Y-27066D01*
X43516Y-27066D01*
X43151Y-27431D01*
X43139Y-27449D01*
X43139Y-26033D01*
X43396Y-25777D01*
X48486Y-25777D01*
X48535Y-25827D01*
X48629Y-25866D01*
X48731Y-25866D01*
X48825Y-25827D01*
X48897Y-25755D01*
X48936Y-25661D01*
X48937Y-25559D01*
X48898Y-25465D01*
X48826Y-25393D01*
X48732Y-25354D01*
X48630Y-25354D01*
X48582Y-25374D01*
X48582Y-23795D01*
X48582Y-22883D01*
X48553Y-22854D01*
X48188Y-22854D01*
X48188Y-23907D01*
X48218Y-23937D01*
X48487Y-23937D01*
X48531Y-23919D01*
X48564Y-23885D01*
X48582Y-23842D01*
X48582Y-23795D01*
X48582Y-25374D01*
X48536Y-25393D01*
X48486Y-25442D01*
X48149Y-25442D01*
X48149Y-23907D01*
X48149Y-22854D01*
X47785Y-22854D01*
X47755Y-22883D01*
X47755Y-23795D01*
X47755Y-23842D01*
X47773Y-23885D01*
X47807Y-23919D01*
X47850Y-23937D01*
X48120Y-23937D01*
X48149Y-23907D01*
X48149Y-25442D01*
X45236Y-25442D01*
X45236Y-23795D01*
X45236Y-22883D01*
X45206Y-22854D01*
X44842Y-22854D01*
X44842Y-23907D01*
X44872Y-23937D01*
X45141Y-23937D01*
X45184Y-23919D01*
X45218Y-23885D01*
X45236Y-23842D01*
X45236Y-23795D01*
X45236Y-25442D01*
X44803Y-25442D01*
X44803Y-23907D01*
X44803Y-22854D01*
X44438Y-22854D01*
X44409Y-22883D01*
X44409Y-23795D01*
X44409Y-23842D01*
X44427Y-23885D01*
X44460Y-23919D01*
X44504Y-23937D01*
X44773Y-23937D01*
X44803Y-23907D01*
X44803Y-25442D01*
X43425Y-25442D01*
X43425Y-23795D01*
X43425Y-22883D01*
X43395Y-22854D01*
X43031Y-22854D01*
X43031Y-23907D01*
X43061Y-23937D01*
X43330Y-23937D01*
X43373Y-23919D01*
X43407Y-23885D01*
X43425Y-23842D01*
X43425Y-23795D01*
X43425Y-25442D01*
X43326Y-25442D01*
X43262Y-25455D01*
X43244Y-25467D01*
X43208Y-25491D01*
X42992Y-25708D01*
X42992Y-23907D01*
X42992Y-22854D01*
X42627Y-22854D01*
X42598Y-22883D01*
X42598Y-23795D01*
X42598Y-23842D01*
X42616Y-23885D01*
X42649Y-23919D01*
X42693Y-23937D01*
X42962Y-23937D01*
X42992Y-23907D01*
X42992Y-25708D01*
X42854Y-25846D01*
X42817Y-25900D01*
X42815Y-25911D01*
X42805Y-25964D01*
X42805Y-27647D01*
X42790Y-27576D01*
X42722Y-27474D01*
X42620Y-27405D01*
X42500Y-27381D01*
X42379Y-27405D01*
X42277Y-27474D01*
X42041Y-27710D01*
X41972Y-27812D01*
X41948Y-27933D01*
X41948Y-30629D01*
X41972Y-30750D01*
X42041Y-30852D01*
X42188Y-31000D01*
X42290Y-31068D01*
X42411Y-31092D01*
X42962Y-31092D01*
X43011Y-31102D01*
X45196Y-31102D01*
X45317Y-31078D01*
X45419Y-31010D01*
X45487Y-30907D01*
X45511Y-30787D01*
X45487Y-30666D01*
X45419Y-30564D01*
X45317Y-30496D01*
X45196Y-30472D01*
X43051Y-30472D01*
X43001Y-30462D01*
X42874Y-30462D01*
X42906Y-30430D01*
X42945Y-30336D01*
X42945Y-30242D01*
X43013Y-30270D01*
X43115Y-30270D01*
X43209Y-30232D01*
X43281Y-30160D01*
X43320Y-30066D01*
X43320Y-29983D01*
X43363Y-30000D01*
X43402Y-30000D01*
X43795Y-30393D01*
X43795Y-30393D01*
X43849Y-30429D01*
X43913Y-30442D01*
X49654Y-30442D01*
X49655Y-30442D01*
X49655Y-30442D01*
X49670Y-30439D01*
X49670Y-30439D01*
X52482Y-30439D01*
X52483Y-30439D01*
X52483Y-30439D01*
X52546Y-30426D01*
X52601Y-30390D01*
X53459Y-29532D01*
X57280Y-29532D01*
X61256Y-33508D01*
X61256Y-33508D01*
X61311Y-33544D01*
X61375Y-33557D01*
X63040Y-33557D01*
X63052Y-33569D01*
X62994Y-33569D01*
X62900Y-33607D01*
X62850Y-33657D01*
X62355Y-33657D01*
X62291Y-33670D01*
X62236Y-33706D01*
X62236Y-33706D01*
X62055Y-33887D01*
X61237Y-33887D01*
X61279Y-33845D01*
X61318Y-33751D01*
X61318Y-33650D01*
X61280Y-33556D01*
X61208Y-33483D01*
X61114Y-33444D01*
X61012Y-33444D01*
X60918Y-33483D01*
X60846Y-33555D01*
X60807Y-33649D01*
X60807Y-33751D01*
X60845Y-33845D01*
X60888Y-33887D01*
X60689Y-33887D01*
X60030Y-33229D01*
X60030Y-33159D01*
X59992Y-33065D01*
X59920Y-32993D01*
X59826Y-32954D01*
X59724Y-32954D01*
X59630Y-32992D01*
X59558Y-33064D01*
X59519Y-33158D01*
X59519Y-33257D01*
X59500Y-33239D01*
X59500Y-33169D01*
X59462Y-33075D01*
X59390Y-33003D01*
X59296Y-32964D01*
X59194Y-32964D01*
X59100Y-33002D01*
X59028Y-33074D01*
X58989Y-33168D01*
X58989Y-33257D01*
X58970Y-33239D01*
X58970Y-33169D01*
X58932Y-33075D01*
X58860Y-33003D01*
X58766Y-32964D01*
X58664Y-32964D01*
X58570Y-33002D01*
X58498Y-33074D01*
X58459Y-33168D01*
X58459Y-33270D01*
X58497Y-33364D01*
X58569Y-33436D01*
X58663Y-33475D01*
X58734Y-33475D01*
X60161Y-34902D01*
X59392Y-34902D01*
X59429Y-34814D01*
X59429Y-34713D01*
X59390Y-34619D01*
X59318Y-34546D01*
X59224Y-34507D01*
X59122Y-34507D01*
X59028Y-34546D01*
X58956Y-34618D01*
X58917Y-34712D01*
X58917Y-34814D01*
X58956Y-34908D01*
X59028Y-34980D01*
X59122Y-35019D01*
X59198Y-35019D01*
X59169Y-35049D01*
X59099Y-35049D01*
X59005Y-35087D01*
X58933Y-35159D01*
X58894Y-35253D01*
X58894Y-35355D01*
X58932Y-35449D01*
X59004Y-35521D01*
X59098Y-35560D01*
X59200Y-35560D01*
X59294Y-35522D01*
X59366Y-35450D01*
X59405Y-35356D01*
X59405Y-35285D01*
X59454Y-35237D01*
X63310Y-35237D01*
X63349Y-35275D01*
X63349Y-35345D01*
X63387Y-35439D01*
X63459Y-35511D01*
X63553Y-35550D01*
X63655Y-35550D01*
X63749Y-35512D01*
X63821Y-35440D01*
X63860Y-35346D01*
X63860Y-35244D01*
X63822Y-35150D01*
X63751Y-35079D01*
X63769Y-35072D01*
X63841Y-35000D01*
X63880Y-34906D01*
X63880Y-34804D01*
X63880Y-35682D01*
X63279Y-35682D01*
X63230Y-35633D01*
X63136Y-35594D01*
X63034Y-35594D01*
X62940Y-35632D01*
X62868Y-35704D01*
X62829Y-35798D01*
X62829Y-35900D01*
X62867Y-35994D01*
X62939Y-36066D01*
X63033Y-36105D01*
X63135Y-36105D01*
X63229Y-36067D01*
X63279Y-36017D01*
X65494Y-36017D01*
X65495Y-36017D01*
X65495Y-36017D01*
X65558Y-36004D01*
X65613Y-35968D01*
X66887Y-34694D01*
X66854Y-34773D01*
X66854Y-34875D01*
X66892Y-34969D01*
X66964Y-35041D01*
X67058Y-35080D01*
X67160Y-35080D01*
X67254Y-35042D01*
X67326Y-34970D01*
X67365Y-34876D01*
X67365Y-34774D01*
X67327Y-34680D01*
X67255Y-34608D01*
X67161Y-34569D01*
X67059Y-34569D01*
X66979Y-34602D01*
X67543Y-34038D01*
X67543Y-34038D01*
X67543Y-34038D01*
X67579Y-33983D01*
X67592Y-33920D01*
X67592Y-33920D01*
X67592Y-33920D01*
X67592Y-33214D01*
X69853Y-30953D01*
X69853Y-30953D01*
X69853Y-30953D01*
X69889Y-30898D01*
X69902Y-30835D01*
X69902Y-28214D01*
X69951Y-28165D01*
X69990Y-28071D01*
X69990Y-27969D01*
X69990Y-31397D01*
X68536Y-32851D01*
X68500Y-32906D01*
X68487Y-32970D01*
X68487Y-32970D01*
X68487Y-34119D01*
X66306Y-36301D01*
X64378Y-36301D01*
X64378Y-36301D01*
X64377Y-36301D01*
X63418Y-36301D01*
X63375Y-36258D01*
X63281Y-36219D01*
X63179Y-36219D01*
X63085Y-36257D01*
X63013Y-36329D01*
X62974Y-36423D01*
X62974Y-36525D01*
X63012Y-36619D01*
X63084Y-36691D01*
X63178Y-36730D01*
X63280Y-36730D01*
X63374Y-36692D01*
X63431Y-36635D01*
X64378Y-36635D01*
X64378Y-36635D01*
X64378Y-36635D01*
X64379Y-36635D01*
X64379Y-36635D01*
X66375Y-36635D01*
X66375Y-36635D01*
X66375Y-36635D01*
X66439Y-36622D01*
X66493Y-36586D01*
X68773Y-34307D01*
X68773Y-34307D01*
X68773Y-34307D01*
X68809Y-34253D01*
X68822Y-34189D01*
X68822Y-33039D01*
X70978Y-30883D01*
X70978Y-30883D01*
X70978Y-30883D01*
X71014Y-30828D01*
X71014Y-30828D01*
X71024Y-30775D01*
X71027Y-30765D01*
X71027Y-30765D01*
X71027Y-30765D01*
X71027Y-28719D01*
X71076Y-28670D01*
X71115Y-28576D01*
X71115Y-28474D01*
X71115Y-40144D01*
X70248Y-39276D01*
X70193Y-39240D01*
X70130Y-39227D01*
X70129Y-39227D01*
X67265Y-39227D01*
X67265Y-36859D01*
X67227Y-36765D01*
X67155Y-36693D01*
X67061Y-36654D01*
X66959Y-36654D01*
X66865Y-36692D01*
X66793Y-36764D01*
X66754Y-36858D01*
X66754Y-36960D01*
X66792Y-37054D01*
X66864Y-37126D01*
X66958Y-37165D01*
X67060Y-37165D01*
X67154Y-37127D01*
X67226Y-37055D01*
X67265Y-36961D01*
X67265Y-36859D01*
X67265Y-39227D01*
X66639Y-39227D01*
X64311Y-36899D01*
X64256Y-36863D01*
X64193Y-36850D01*
X64192Y-36850D01*
X61240Y-36850D01*
X61240Y-35933D01*
X61201Y-35839D01*
X61129Y-35767D01*
X61035Y-35728D01*
X60933Y-35728D01*
X60839Y-35767D01*
X60767Y-35839D01*
X60728Y-35933D01*
X60728Y-36034D01*
X60767Y-36129D01*
X60839Y-36201D01*
X60933Y-36240D01*
X61034Y-36240D01*
X61129Y-36201D01*
X61201Y-36129D01*
X61240Y-36035D01*
X61240Y-35933D01*
X61240Y-36850D01*
X59622Y-36850D01*
X58277Y-35505D01*
X58277Y-33725D01*
X58264Y-33661D01*
X58228Y-33606D01*
X58228Y-33606D01*
X57677Y-33055D01*
X57677Y-30500D01*
X57638Y-30406D01*
X57566Y-30334D01*
X57472Y-30295D01*
X57370Y-30295D01*
X57276Y-30334D01*
X57204Y-30406D01*
X57165Y-30500D01*
X57165Y-30601D01*
X57204Y-30695D01*
X57276Y-30768D01*
X57370Y-30807D01*
X57471Y-30807D01*
X57566Y-30768D01*
X57638Y-30696D01*
X57677Y-30602D01*
X57677Y-30500D01*
X57677Y-33055D01*
X54913Y-30291D01*
X54858Y-30255D01*
X54795Y-30242D01*
X54794Y-30242D01*
X53940Y-30242D01*
X53876Y-30255D01*
X53821Y-30291D01*
X53821Y-30291D01*
X53541Y-30571D01*
X53505Y-30626D01*
X53492Y-30690D01*
X53492Y-30690D01*
X53492Y-30894D01*
X53431Y-30869D01*
X53350Y-30869D01*
X53350Y-30779D01*
X53312Y-30685D01*
X53240Y-30613D01*
X53146Y-30574D01*
X53044Y-30574D01*
X52950Y-30612D01*
X52878Y-30684D01*
X52839Y-30778D01*
X52839Y-30880D01*
X52877Y-30974D01*
X52927Y-31024D01*
X52927Y-31156D01*
X52820Y-31049D01*
X52820Y-30979D01*
X52782Y-30885D01*
X52710Y-30813D01*
X52616Y-30774D01*
X52514Y-30774D01*
X52420Y-30812D01*
X52348Y-30884D01*
X52309Y-30978D01*
X52309Y-31080D01*
X52347Y-31174D01*
X52419Y-31246D01*
X52513Y-31285D01*
X52584Y-31285D01*
X52727Y-31429D01*
X52727Y-32140D01*
X52481Y-32386D01*
X52445Y-32441D01*
X52432Y-32505D01*
X52432Y-32505D01*
X52432Y-37109D01*
X52432Y-37110D01*
X52445Y-37173D01*
X52481Y-37228D01*
X56296Y-41043D01*
X56296Y-41043D01*
X56351Y-41079D01*
X56414Y-41092D01*
X56414Y-41092D01*
X56415Y-41092D01*
X58091Y-41092D01*
X60890Y-41092D01*
X61244Y-41445D01*
X61244Y-41515D01*
X61282Y-41609D01*
X61354Y-41681D01*
X61448Y-41720D01*
X61550Y-41720D01*
X61644Y-41682D01*
X61716Y-41610D01*
X61755Y-41516D01*
X61755Y-41414D01*
X61717Y-41320D01*
X61645Y-41248D01*
X61551Y-41209D01*
X61480Y-41209D01*
X61078Y-40806D01*
X61023Y-40770D01*
X60960Y-40757D01*
X60959Y-40757D01*
X58091Y-40757D01*
X56484Y-40757D01*
X53877Y-38151D01*
X53877Y-36917D01*
X53877Y-34693D01*
X53839Y-34599D01*
X53767Y-34527D01*
X53673Y-34488D01*
X53571Y-34488D01*
X53477Y-34527D01*
X53405Y-34598D01*
X53366Y-34692D01*
X53366Y-34794D01*
X53404Y-34888D01*
X53476Y-34960D01*
X53570Y-34999D01*
X53672Y-35000D01*
X53766Y-34961D01*
X53838Y-34889D01*
X53877Y-34795D01*
X53877Y-34693D01*
X53877Y-36917D01*
X53839Y-36823D01*
X53767Y-36751D01*
X53673Y-36712D01*
X53571Y-36712D01*
X53477Y-36751D01*
X53405Y-36823D01*
X53366Y-36917D01*
X53366Y-37019D01*
X53404Y-37113D01*
X53476Y-37185D01*
X53570Y-37224D01*
X53672Y-37224D01*
X53766Y-37185D01*
X53838Y-37113D01*
X53877Y-37019D01*
X53877Y-36917D01*
X53877Y-38151D01*
X52767Y-37040D01*
X52767Y-32574D01*
X52942Y-32398D01*
X52942Y-32754D01*
X52942Y-32755D01*
X52955Y-32818D01*
X52991Y-32873D01*
X54872Y-34754D01*
X54872Y-37944D01*
X54872Y-37945D01*
X54885Y-38008D01*
X54921Y-38063D01*
X56971Y-40113D01*
X57026Y-40149D01*
X57090Y-40162D01*
X57090Y-40162D01*
X57090Y-40162D01*
X58091Y-40162D01*
X62930Y-40162D01*
X64131Y-41362D01*
X64214Y-41445D01*
X64214Y-41515D01*
X64252Y-41609D01*
X64324Y-41681D01*
X64418Y-41720D01*
X64520Y-41720D01*
X64614Y-41682D01*
X64686Y-41610D01*
X64725Y-41516D01*
X64725Y-41414D01*
X64687Y-41320D01*
X64615Y-41248D01*
X64521Y-41209D01*
X64450Y-41209D01*
X64131Y-40890D01*
X63118Y-39876D01*
X63063Y-39840D01*
X63000Y-39827D01*
X62999Y-39827D01*
X58091Y-39827D01*
X57159Y-39827D01*
X55207Y-37875D01*
X55207Y-34778D01*
X55232Y-34804D01*
X55232Y-37294D01*
X55232Y-37295D01*
X55245Y-37358D01*
X55281Y-37413D01*
X57471Y-39603D01*
X57471Y-39603D01*
X57526Y-39639D01*
X57590Y-39652D01*
X58091Y-39652D01*
X64131Y-39652D01*
X64295Y-39652D01*
X65731Y-41088D01*
X65731Y-41088D01*
X65786Y-41124D01*
X65850Y-41137D01*
X65850Y-41137D01*
X65850Y-41137D01*
X67755Y-41137D01*
X67804Y-41186D01*
X67898Y-41225D01*
X68000Y-41225D01*
X68094Y-41187D01*
X68166Y-41115D01*
X68205Y-41021D01*
X68205Y-40919D01*
X68167Y-40825D01*
X68095Y-40753D01*
X68092Y-40752D01*
X69030Y-40752D01*
X69614Y-41335D01*
X69602Y-41347D01*
X69563Y-41442D01*
X69524Y-41348D01*
X69407Y-41230D01*
X69253Y-41166D01*
X69087Y-41166D01*
X68933Y-41230D01*
X68815Y-41347D01*
X68751Y-41501D01*
X68751Y-41667D01*
X68815Y-41821D01*
X68932Y-41939D01*
X68968Y-41953D01*
X68846Y-41953D01*
X68803Y-41971D01*
X68769Y-42005D01*
X68751Y-42048D01*
X68751Y-42095D01*
X68751Y-42322D01*
X68781Y-42352D01*
X69150Y-42352D01*
X69150Y-42344D01*
X69189Y-42344D01*
X69189Y-42352D01*
X69197Y-42352D01*
X69197Y-42391D01*
X69189Y-42391D01*
X69189Y-42760D01*
X69219Y-42790D01*
X69493Y-42790D01*
X69536Y-42772D01*
X69570Y-42738D01*
X69588Y-42695D01*
X69588Y-42648D01*
X69588Y-42575D01*
X69600Y-42606D01*
X69662Y-42638D01*
X69929Y-42372D01*
X69662Y-42105D01*
X69600Y-42137D01*
X69588Y-42169D01*
X69588Y-42095D01*
X69588Y-42048D01*
X69570Y-42005D01*
X69536Y-41971D01*
X69493Y-41953D01*
X69372Y-41953D01*
X69406Y-41939D01*
X69524Y-41822D01*
X69563Y-41727D01*
X69602Y-41821D01*
X69719Y-41939D01*
X69813Y-41978D01*
X69722Y-42015D01*
X69690Y-42077D01*
X69957Y-42344D01*
X70223Y-42077D01*
X70191Y-42015D01*
X70099Y-41978D01*
X70193Y-41939D01*
X70311Y-41822D01*
X70348Y-41733D01*
X70350Y-41745D01*
X70441Y-41880D01*
X70576Y-41971D01*
X70619Y-41979D01*
X70509Y-42026D01*
X70395Y-42142D01*
X70355Y-42239D01*
X70313Y-42137D01*
X70251Y-42105D01*
X69984Y-42372D01*
X70251Y-42638D01*
X70313Y-42606D01*
X70354Y-42503D01*
X70395Y-42601D01*
X70509Y-42717D01*
X70660Y-42781D01*
X70725Y-42760D01*
X70725Y-42391D01*
X70717Y-42391D01*
X70717Y-42352D01*
X70725Y-42352D01*
X70725Y-42344D01*
X70764Y-42344D01*
X70764Y-42352D01*
X71133Y-42352D01*
X71138Y-42335D01*
X71143Y-42352D01*
X71512Y-42352D01*
X71512Y-42344D01*
X71551Y-42344D01*
X71551Y-42352D01*
X71920Y-42352D01*
X71926Y-42334D01*
X71931Y-42352D01*
X72300Y-42352D01*
X72300Y-42344D01*
X72339Y-42344D01*
X72339Y-42352D01*
X72708Y-42352D01*
X72713Y-42335D01*
X72718Y-42352D01*
X73087Y-42352D01*
X73087Y-42344D01*
X73126Y-42344D01*
X73126Y-42352D01*
X73495Y-42352D01*
X73500Y-42335D01*
X73505Y-42352D01*
X73874Y-42352D01*
X73874Y-42344D01*
X73913Y-42344D01*
X73913Y-42352D01*
X74282Y-42352D01*
X74303Y-42287D01*
X74243Y-42142D01*
X74129Y-42026D01*
X74019Y-41979D01*
X74062Y-41971D01*
X74197Y-41880D01*
X74288Y-41745D01*
X74320Y-41585D01*
X74320Y-43113D01*
X74303Y-43113D01*
X74303Y-42456D01*
X74282Y-42391D01*
X73913Y-42391D01*
X73913Y-42760D01*
X73978Y-42781D01*
X74129Y-42717D01*
X74243Y-42601D01*
X74303Y-42456D01*
X74303Y-43113D01*
X73874Y-43113D01*
X73874Y-42760D01*
X73874Y-42391D01*
X73505Y-42391D01*
X73500Y-42408D01*
X73495Y-42391D01*
X73126Y-42391D01*
X73126Y-42760D01*
X73191Y-42781D01*
X73342Y-42717D01*
X73456Y-42601D01*
X73500Y-42495D01*
X73544Y-42601D01*
X73658Y-42717D01*
X73809Y-42781D01*
X73874Y-42760D01*
X73874Y-43113D01*
X73087Y-43113D01*
X73087Y-42760D01*
X73087Y-42391D01*
X72718Y-42391D01*
X72713Y-42408D01*
X72708Y-42391D01*
X72339Y-42391D01*
X72339Y-42760D01*
X72404Y-42781D01*
X72555Y-42717D01*
X72669Y-42601D01*
X72713Y-42495D01*
X72757Y-42601D01*
X72871Y-42717D01*
X73022Y-42781D01*
X73087Y-42760D01*
X73087Y-43113D01*
X72300Y-43113D01*
X72300Y-42760D01*
X72300Y-42391D01*
X71931Y-42391D01*
X71926Y-42409D01*
X71920Y-42391D01*
X71551Y-42391D01*
X71551Y-42760D01*
X71616Y-42781D01*
X71767Y-42717D01*
X71881Y-42601D01*
X71926Y-42494D01*
X71970Y-42601D01*
X72084Y-42717D01*
X72235Y-42781D01*
X72300Y-42760D01*
X72300Y-43113D01*
X71512Y-43113D01*
X71512Y-42760D01*
X71512Y-42391D01*
X71143Y-42391D01*
X71138Y-42408D01*
X71133Y-42391D01*
X70764Y-42391D01*
X70764Y-42760D01*
X70829Y-42781D01*
X70980Y-42717D01*
X71094Y-42601D01*
X71138Y-42495D01*
X71182Y-42601D01*
X71296Y-42717D01*
X71447Y-42781D01*
X71512Y-42760D01*
X71512Y-43113D01*
X70223Y-43113D01*
X70223Y-42666D01*
X69957Y-42399D01*
X69690Y-42666D01*
X69722Y-42728D01*
X69876Y-42790D01*
X70043Y-42789D01*
X70191Y-42728D01*
X70223Y-42666D01*
X70223Y-43113D01*
X69150Y-43113D01*
X69150Y-42760D01*
X69150Y-42391D01*
X68781Y-42391D01*
X68751Y-42421D01*
X68751Y-42648D01*
X68751Y-42695D01*
X68769Y-42738D01*
X68803Y-42772D01*
X68846Y-42790D01*
X69120Y-42790D01*
X69150Y-42760D01*
X69150Y-43113D01*
X64131Y-43113D01*
X58091Y-43113D01*
X53877Y-43113D01*
X53877Y-38984D01*
X53839Y-38890D01*
X53767Y-38818D01*
X53673Y-38779D01*
X53571Y-38779D01*
X53477Y-38818D01*
X53405Y-38890D01*
X53366Y-38984D01*
X53366Y-39086D01*
X53404Y-39180D01*
X53476Y-39252D01*
X53570Y-39291D01*
X53672Y-39291D01*
X53766Y-39252D01*
X53838Y-39180D01*
X53877Y-39086D01*
X53877Y-38984D01*
X53877Y-43113D01*
X52027Y-43113D01*
X52027Y-43086D01*
X52027Y-41165D01*
X52027Y-41118D01*
X52009Y-41074D01*
X51976Y-41041D01*
X51932Y-41023D01*
X51663Y-41023D01*
X51633Y-41053D01*
X51633Y-42106D01*
X51998Y-42106D01*
X52027Y-42076D01*
X52027Y-41165D01*
X52027Y-43086D01*
X52027Y-42175D01*
X51998Y-42145D01*
X51633Y-42145D01*
X51633Y-42153D01*
X51594Y-42153D01*
X51594Y-42145D01*
X51594Y-42106D01*
X51594Y-41053D01*
X51564Y-41023D01*
X51295Y-41023D01*
X51252Y-41041D01*
X51218Y-41074D01*
X51200Y-41118D01*
X51200Y-41165D01*
X51200Y-42076D01*
X51230Y-42106D01*
X51594Y-42106D01*
X51594Y-42145D01*
X51230Y-42145D01*
X51200Y-42175D01*
X51200Y-43086D01*
X51200Y-43113D01*
X48681Y-43113D01*
X48681Y-43086D01*
X48681Y-41165D01*
X48681Y-41118D01*
X48663Y-41074D01*
X48629Y-41041D01*
X48586Y-41023D01*
X48316Y-41023D01*
X48287Y-41053D01*
X48287Y-42106D01*
X48651Y-42106D01*
X48681Y-42076D01*
X48681Y-41165D01*
X48681Y-43086D01*
X48681Y-42175D01*
X48651Y-42145D01*
X48287Y-42145D01*
X48287Y-42153D01*
X48248Y-42153D01*
X48248Y-42145D01*
X48248Y-42106D01*
X48248Y-41053D01*
X48218Y-41023D01*
X47949Y-41023D01*
X47905Y-41041D01*
X47872Y-41074D01*
X47854Y-41118D01*
X47854Y-41165D01*
X47854Y-42076D01*
X47883Y-42106D01*
X48248Y-42106D01*
X48248Y-42145D01*
X47883Y-42145D01*
X47854Y-42175D01*
X47854Y-43086D01*
X47854Y-43113D01*
X46003Y-43113D01*
X46003Y-39594D01*
X45984Y-39547D01*
X45984Y-37370D01*
X45945Y-37276D01*
X45873Y-37204D01*
X45779Y-37165D01*
X45677Y-37165D01*
X45583Y-37204D01*
X45511Y-37276D01*
X45472Y-37370D01*
X45472Y-37471D01*
X45511Y-37566D01*
X45583Y-37638D01*
X45677Y-37677D01*
X45779Y-37677D01*
X45873Y-37638D01*
X45945Y-37566D01*
X45984Y-37472D01*
X45984Y-37370D01*
X45984Y-39547D01*
X45965Y-39500D01*
X45893Y-39428D01*
X45799Y-39389D01*
X45697Y-39389D01*
X45603Y-39428D01*
X45531Y-39500D01*
X45492Y-39594D01*
X45492Y-39696D01*
X45530Y-39790D01*
X45602Y-39862D01*
X45696Y-39901D01*
X45798Y-39901D01*
X45892Y-39862D01*
X45964Y-39790D01*
X46003Y-39696D01*
X46003Y-39594D01*
X46003Y-43113D01*
X40078Y-43113D01*
X40078Y-23795D01*
X40078Y-22883D01*
X40049Y-22854D01*
X39685Y-22854D01*
X39685Y-23907D01*
X39714Y-23937D01*
X39984Y-23937D01*
X40027Y-23919D01*
X40060Y-23885D01*
X40078Y-23842D01*
X40078Y-23795D01*
X40078Y-43113D01*
X39901Y-43113D01*
X39901Y-31799D01*
X39862Y-31705D01*
X39790Y-31633D01*
X39696Y-31594D01*
X39645Y-31594D01*
X39645Y-23907D01*
X39645Y-22854D01*
X39281Y-22854D01*
X39251Y-22883D01*
X39251Y-23795D01*
X39251Y-23842D01*
X39270Y-23885D01*
X39303Y-23919D01*
X39346Y-23937D01*
X39616Y-23937D01*
X39645Y-23907D01*
X39645Y-31594D01*
X39594Y-31594D01*
X39500Y-31633D01*
X39428Y-31705D01*
X39389Y-31799D01*
X39389Y-31901D01*
X39428Y-31995D01*
X39500Y-32067D01*
X39594Y-32106D01*
X39696Y-32106D01*
X39790Y-32067D01*
X39862Y-31995D01*
X39901Y-31901D01*
X39901Y-31799D01*
X39901Y-43113D01*
X35626Y-43113D01*
X35626Y-21846D01*
X39251Y-21846D01*
X39251Y-21873D01*
X39251Y-22785D01*
X39281Y-22814D01*
X39645Y-22814D01*
X39645Y-22807D01*
X39685Y-22807D01*
X39685Y-22814D01*
X40049Y-22814D01*
X40078Y-22785D01*
X40078Y-21873D01*
X40078Y-21846D01*
X42598Y-21846D01*
X42598Y-21873D01*
X42598Y-22785D01*
X42627Y-22814D01*
X42992Y-22814D01*
X42992Y-22807D01*
X43031Y-22807D01*
X43031Y-22814D01*
X43395Y-22814D01*
X43425Y-22785D01*
X43425Y-21873D01*
X43425Y-21846D01*
X44409Y-21846D01*
X44409Y-21873D01*
X44409Y-22785D01*
X44438Y-22814D01*
X44803Y-22814D01*
X44803Y-22807D01*
X44842Y-22807D01*
X44842Y-22814D01*
X45206Y-22814D01*
X45236Y-22785D01*
X45236Y-21873D01*
X45236Y-21846D01*
X47755Y-21846D01*
X47755Y-21873D01*
X47755Y-22785D01*
X47785Y-22814D01*
X48149Y-22814D01*
X48149Y-22807D01*
X48188Y-22807D01*
X48188Y-22814D01*
X48553Y-22814D01*
X48582Y-22785D01*
X48582Y-21873D01*
X48582Y-21846D01*
X78547Y-21846D01*
X78547Y-43113D01*
M02*
