M48
;DRILL file {Pcbnew (2013-jul-07)-stable} date Вт. 10 марта 2015 12:09:58
;FORMAT={-:-/ absolute / metric / decimal}
FMAT,2
METRIC,TZ
T1C0.300
T2C0.889
T3C0.899
T4C1.000
T5C2.400
T6C3.300
%
G90
G05
M71
T1
X91.Y-56.
X91.Y-57.
X91.Y-58.
X91.Y-59.
X91.Y-60.
X91.Y-61.
X91.Y-62.
X91.Y-63.
X91.Y-64.
X91.Y-65.
X91.Y-66.
X91.Y-67.
X91.Y-68.
X91.Y-69.
X91.Y-70.
X91.Y-71.
X91.Y-72.
X91.Y-73.
X91.Y-74.
X91.Y-75.
X91.Y-76.
X91.Y-77.
X91.Y-78.
X91.Y-79.
X91.Y-80.
X91.Y-81.
X91.Y-82.
X91.Y-83.
X91.Y-84.
X91.Y-85.
X91.Y-86.
X91.Y-87.
X91.Y-88.
X91.Y-89.
X91.Y-90.
X91.Y-91.
X91.Y-92.
X91.Y-93.
X91.Y-94.
X91.Y-95.
X91.Y-96.
X91.Y-97.
X91.Y-98.
X91.Y-99.
X91.Y-100.
X91.Y-101.
X91.Y-102.
X91.Y-103.
X91.Y-104.
X91.Y-105.
X91.Y-106.
X91.Y-107.
X91.Y-108.
X91.Y-109.
X92.Y-56.
X92.Y-109.
X93.Y-56.
X93.Y-109.
X94.Y-56.
X94.Y-109.
X95.Y-56.
X95.Y-109.
X96.Y-56.
X96.Y-109.
X97.Y-56.
X97.Y-109.
X98.Y-56.
X98.Y-109.
X99.Y-109.
X99.25Y-55.75
X99.25Y-56.5
X99.25Y-57.25
X99.25Y-58.
X99.25Y-58.75
X99.25Y-59.5
X99.25Y-60.25
X99.25Y-61.
X100.Y-61.
X100.Y-109.
X100.7Y-80.9
X100.75Y-61.
X101.Y-109.
X101.5Y-61.
X102.Y-109.
X102.25Y-55.75
X102.25Y-56.5
X102.25Y-57.25
X102.25Y-58.
X102.25Y-58.75
X102.25Y-59.5
X102.25Y-60.25
X102.25Y-61.
X102.375Y-71.6
X102.375Y-72.3
X102.375Y-73.
X102.5Y-68.
X102.5Y-69.5
X102.5Y-75.5
X102.5Y-77.5
X102.85Y-81.3
X103.Y-109.
X103.35Y-96.8
X103.35Y-99.2
X104.Y-109.
X104.1Y-61.85
X104.45Y-81.3
X104.5Y-66.5
X104.5Y-68.
X104.6Y-99.2
X104.95Y-64.8
X105.Y-109.
X105.5Y-65.35
X105.55Y-71.6
X105.55Y-72.3
X105.55Y-73.
X105.9Y-61.85
X105.9Y-73.9
X106.Y-65.85
X106.Y-109.
X106.05Y-70.55
X106.05Y-81.3
X106.3Y-96.45
X106.3Y-99.5
X106.5Y-66.5
X106.5Y-68.
X106.75Y-62.
X107.Y-109.
X107.1Y-87.3
X107.1Y-92.45
X107.3Y-97.55
X107.3Y-98.4
X107.65Y-81.3
X107.75Y-55.75
X107.75Y-56.5
X107.75Y-57.25
X107.75Y-58.
X107.75Y-58.75
X107.75Y-59.5
X107.75Y-60.25
X107.75Y-61.
X107.85Y-87.3
X107.85Y-92.45
X107.95Y-70.35
X108.Y-62.
X108.Y-64.25
X108.Y-66.75
X108.Y-68.
X108.Y-109.
X108.3Y-96.45
X108.3Y-99.5
X108.433Y-76.924
X108.5Y-61.
X108.55Y-80.4
X109.Y-109.
X109.15Y-71.85
X109.225Y-78.175
X109.25Y-61.
X109.25Y-62.
X109.25Y-64.25
X109.385Y-76.238
X109.7Y-79.8
X109.85Y-74.65
X110.Y-61.
X110.Y-81.
X110.Y-82.
X110.Y-83.
X110.Y-109.
X110.274Y-75.552
X110.35Y-66.35
X110.35Y-96.45
X110.35Y-102.1
X110.5Y-64.25
X110.604Y-70.358
X110.7Y-66.95
X110.75Y-55.75
X110.75Y-56.5
X110.75Y-57.25
X110.75Y-58.
X110.75Y-58.75
X110.75Y-59.5
X110.75Y-60.25
X110.75Y-61.
X110.75Y-62.
X110.85Y-79.8
X111.Y-81.
X111.Y-82.
X111.Y-83.
X111.Y-109.
X111.15Y-74.9
X111.5Y-79.8
X111.5Y-97.5
X111.5Y-103.15
X111.75Y-62.
X111.75Y-64.25
X112.Y-81.
X112.Y-82.
X112.Y-83.
X112.Y-109.
X112.15Y-79.8
X112.25Y-55.75
X112.25Y-56.5
X112.25Y-57.25
X112.25Y-58.
X112.25Y-58.75
X112.25Y-59.5
X112.25Y-60.25
X112.25Y-61.
X112.288Y-71.344
X112.288Y-71.994
X112.288Y-72.644
X112.288Y-73.294
X112.888Y-71.344
X112.888Y-71.994
X112.888Y-72.644
X112.888Y-73.294
X112.95Y-64.25
X113.Y-61.
X113.Y-62.
X113.Y-65.85
X113.Y-109.
X113.1Y-97.5
X113.1Y-103.15
X113.5Y-83.
X113.538Y-71.344
X113.538Y-71.994
X113.538Y-72.644
X113.538Y-73.294
X113.75Y-61.
X113.9Y-85.4
X114.Y-109.
X114.138Y-71.344
X114.138Y-71.994
X114.138Y-72.644
X114.138Y-73.294
X114.25Y-64.25
X114.5Y-61.
X114.5Y-62.
X114.7Y-97.5
X114.7Y-103.15
X114.738Y-71.344
X114.738Y-71.994
X114.738Y-72.644
X114.738Y-73.294
X114.85Y-78.25
X114.85Y-84.5
X115.Y-83.
X115.Y-109.
X115.25Y-55.75
X115.25Y-56.5
X115.25Y-57.25
X115.25Y-58.
X115.25Y-58.75
X115.25Y-59.5
X115.25Y-60.25
X115.25Y-61.
X115.6Y-80.15
X115.65Y-66.2
X116.Y-62.
X116.Y-109.
X116.15Y-95.05
X116.15Y-96.45
X116.15Y-102.1
X116.2Y-100.7
X116.45Y-79.7
X116.45Y-84.5
X116.5Y-81.
X116.5Y-82.
X116.5Y-83.
X117.Y-66.25
X117.Y-109.
X117.25Y-62.
X117.425Y-67.15
X117.45Y-68.1
X117.45Y-79.75
X118.Y-81.
X118.Y-82.
X118.Y-83.
X118.Y-109.
X118.05Y-75.75
X118.05Y-84.5
X118.125Y-79.75
X118.5Y-67.
X118.85Y-79.75
X119.Y-109.
X119.2Y-70.575
X119.5Y-67.5
X120.Y-66.45
X120.Y-109.
X120.5Y-68.
X120.85Y-55.75
X120.85Y-56.5
X120.85Y-57.25
X120.85Y-58.
X120.85Y-58.75
X120.85Y-59.5
X120.85Y-60.25
X120.85Y-61.
X121.05Y-67.25
X121.1Y-104.
X121.1Y-104.75
X121.1Y-105.5
X121.1Y-106.25
X121.1Y-107.
X121.1Y-107.75
X121.1Y-108.5
X121.1Y-109.25
X121.175Y-70.6
X121.5Y-68.
X121.6Y-61.
X121.7Y-72.05
X121.85Y-104.
X122.075Y-70.9
X122.35Y-61.
X122.5Y-68.
X122.5Y-81.
X122.5Y-82.
X122.5Y-83.
X122.6Y-73.15
X122.6Y-104.
X122.65Y-67.25
X123.Y-83.5
X123.1Y-61.
X123.35Y-104.
X123.65Y-65.05
X123.65Y-66.45
X123.85Y-55.75
X123.85Y-56.5
X123.85Y-57.25
X123.85Y-58.
X123.85Y-58.75
X123.85Y-59.5
X123.85Y-60.25
X123.85Y-61.
X124.Y-83.5
X124.1Y-104.
X124.1Y-104.75
X124.1Y-105.5
X124.1Y-106.25
X124.1Y-107.
X124.1Y-107.75
X124.1Y-108.5
X124.1Y-109.25
X124.85Y-71.
X125.Y-56.
X125.Y-83.5
X125.336Y-73.254
X125.35Y-71.9
X126.Y-56.
X126.Y-82.
X126.Y-83.
X126.15Y-63.1
X126.3Y-70.8
X126.378Y-74.358
X127.Y-56.
X127.5Y-63.1
X127.5Y-70.8
X127.7Y-76.
X128.Y-56.
X128.55Y-64.25
X128.55Y-65.1
X128.55Y-65.85
X128.55Y-66.65
X128.55Y-67.45
X128.55Y-68.4
X129.Y-56.
X129.6Y-104.
X129.6Y-104.75
X129.6Y-105.5
X129.6Y-106.25
X129.6Y-107.
X129.6Y-107.75
X129.6Y-108.5
X129.6Y-109.25
X130.Y-56.
X130.35Y-104.
X130.9Y-78.75
X131.Y-56.
X131.1Y-104.
X131.191Y-74.244
X131.356Y-71.768
X131.85Y-104.
X132.Y-56.
X132.6Y-104.
X132.6Y-104.75
X132.6Y-105.5
X132.6Y-106.25
X132.6Y-107.
X132.6Y-107.75
X132.6Y-108.5
X132.6Y-109.25
X133.Y-56.
X133.35Y-80.4
X133.515Y-78.816
X134.Y-56.
X134.Y-109.
X134.75Y-86.4
X134.861Y-78.308
X134.861Y-84.519
X135.Y-56.
X135.Y-91.5
X135.Y-92.5
X135.Y-109.
X135.585Y-79.057
X135.65Y-71.95
X135.7Y-65.95
X136.Y-56.
X136.Y-109.
X136.2Y-88.25
X136.2Y-93.9
X136.2Y-99.15
X136.296Y-79.819
X137.Y-56.
X137.Y-65.95
X137.Y-109.
X137.35Y-79.159
X137.6Y-67.
X138.Y-56.
X138.Y-66.125
X138.Y-109.
X138.024Y-78.168
X138.405Y-79.819
X139.Y-56.
X139.Y-109.
X139.1Y-75.75
X140.Y-56.
X140.Y-109.
X141.Y-56.
X141.Y-109.
X142.Y-56.
X142.Y-109.
X143.Y-56.
X143.Y-109.
X144.Y-56.
X144.Y-109.
X144.6Y-83.7
X144.6Y-87.
X145.Y-56.
X145.Y-109.
X145.85Y-77.6
X146.Y-56.
X146.Y-81.
X146.Y-83.
X146.Y-109.
X146.5Y-87.
X146.5Y-89.
X147.Y-56.
X147.Y-109.
X148.Y-56.
X148.Y-109.
X149.Y-56.
X149.Y-109.
X149.136Y-84.379
X150.Y-56.
X150.Y-109.
X150.241Y-89.675
X150.3Y-88.3
X150.482Y-84.379
X151.Y-56.
X151.Y-74.
X151.Y-76.
X151.Y-109.
X151.828Y-84.353
X152.Y-56.
X152.Y-109.
X152.5Y-77.5
X153.Y-56.
X153.Y-109.
X153.4Y-84.55
X153.5Y-74.
X153.5Y-76.
X154.Y-56.
X154.Y-109.
X154.65Y-79.85
X154.9Y-91.4
X155.Y-56.
X155.Y-109.
X155.1Y-85.6
X155.283Y-62.84
X156.Y-56.
X156.Y-109.
X156.21Y-105.321
X157.Y-56.
X157.Y-89.98
X157.Y-109.
X158.Y-56.
X158.Y-109.
X159.Y-56.
X159.Y-109.
X159.65Y-80.45
X159.65Y-81.75
X159.8Y-87.45
X159.95Y-66.7
X160.Y-56.
X160.Y-109.
X160.1Y-97.9
X160.134Y-85.915
X160.236Y-91.059
X160.25Y-90.05
X160.604Y-92.646
X160.617Y-83.655
X160.617Y-84.811
X160.909Y-87.744
X161.Y-56.
X161.Y-109.
X161.557Y-89.649
X161.595Y-86.119
X161.607Y-88.532
X161.75Y-96.2
X161.9Y-66.8
X162.Y-56.
X162.Y-109.
X163.Y-56.
X163.Y-109.
X163.754Y-105.321
X164.Y-56.
X164.Y-109.
X164.008Y-80.696
X165.Y-56.
X165.Y-109.
X165.506Y-80.696
X165.7Y-91.8
X166.Y-56.
X166.Y-109.
X166.3Y-82.4
X166.3Y-83.65
X166.3Y-84.9
X166.3Y-87.45
X167.Y-56.
X167.Y-109.
X167.9Y-75.35
X168.Y-56.
X168.Y-109.
X169.Y-56.
X169.Y-69.35
X169.Y-109.
X169.15Y-95.85
X169.2Y-71.45
X169.25Y-91.
X170.Y-56.
X170.Y-109.
X170.205Y-93.751
X170.459Y-88.456
X170.5Y-71.45
X170.85Y-79.45
X171.Y-56.
X171.Y-109.
X171.171Y-70.066
X171.2Y-83.25
X171.5Y-71.45
X172.Y-56.
X172.Y-109.
X172.5Y-91.25
X172.5Y-92.25
X172.5Y-93.25
X172.5Y-94.25
X172.5Y-95.25
X172.5Y-96.25
X172.5Y-97.25
X172.593Y-104.064
X173.Y-56.
X173.Y-87.05
X173.Y-109.
X173.482Y-67.653
X174.Y-56.
X174.Y-109.
X174.3Y-88.8
X175.Y-56.
X175.Y-109.
X175.85Y-75.
X176.Y-56.
X176.Y-109.
X177.Y-56.
X177.Y-109.
X177.127Y-71.171
X178.Y-56.
X178.Y-109.
X178.75Y-74.9
X179.Y-56.
X179.Y-109.
X179.85Y-99.85
X179.984Y-72.453
X180.Y-56.
X180.Y-109.
X180.75Y-101.1
X181.Y-56.
X181.Y-109.
X182.Y-56.
X182.Y-109.
X183.Y-56.
X183.Y-109.
X184.Y-56.
X184.Y-109.
X185.Y-56.
X185.Y-109.
X185.4Y-101.1
X186.Y-56.
X186.Y-109.
X186.2Y-99.85
X187.Y-56.
X187.Y-109.
X188.Y-56.
X188.Y-109.
X188.5Y-72.6
X189.Y-56.
X189.Y-109.
X190.Y-56.
X190.Y-109.
X190.6Y-72.6
X191.Y-56.
X191.Y-109.
X192.Y-56.
X192.Y-109.
X193.Y-56.
X193.Y-109.
X194.Y-56.
X194.Y-109.
X195.Y-56.
X195.Y-109.
X196.Y-56.
X196.Y-109.
X197.Y-56.
X197.Y-109.
X198.Y-56.
X198.Y-109.
X199.Y-56.
X199.Y-57.
X199.Y-58.
X199.Y-59.
X199.Y-60.
X199.Y-61.
X199.Y-62.
X199.Y-63.
X199.Y-64.
X199.Y-65.
X199.Y-66.
X199.Y-67.
X199.Y-68.
X199.Y-69.
X199.Y-70.
X199.Y-71.
X199.Y-72.
X199.Y-73.
X199.Y-74.
X199.Y-75.
X199.Y-76.
X199.Y-77.
X199.Y-78.
X199.Y-79.
X199.Y-80.
X199.Y-81.
X199.Y-82.
X199.Y-83.
X199.Y-84.
X199.Y-85.
X199.Y-86.
X199.Y-87.
X199.Y-88.
X199.Y-89.
X199.Y-90.
X199.Y-91.
X199.Y-92.
X199.Y-93.
X199.Y-94.
X199.Y-95.
X199.Y-96.
X199.Y-97.
X199.Y-98.
X199.Y-99.
X199.Y-100.
X199.Y-101.
X199.Y-102.
X199.Y-103.
X199.Y-104.
X199.Y-105.
X199.Y-106.
X199.Y-107.
X199.Y-108.
X199.Y-109.
T2
X159.944Y-62.014
X162.484Y-62.014
T3
X175.692Y-105.626
X175.692Y-107.625
X177.691Y-105.626
X177.691Y-107.625
X179.692Y-105.626
X179.692Y-107.625
X181.691Y-105.626
X181.691Y-107.625
X183.693Y-105.626
X183.693Y-107.625
X185.692Y-105.626
X185.692Y-107.625
X187.691Y-105.626
X187.691Y-107.625
T4
X184.85Y-83.1
X184.85Y-85.6
X186.85Y-83.1
X186.85Y-85.6
T5
X189.56Y-78.33
X189.56Y-90.37
T6
X95.Y-60.
X95.Y-105.
X195.Y-60.
X195.Y-105.
T0
M30
