G04 (created by PCBNEW (2013-jul-07)-stable) date Пт. 06 марта 2015 16:18:19*
%MOIN*%
G04 Gerber Fmt 3.4, Leading zero omitted, Abs format*
%FSLAX34Y34*%
G01*
G70*
G90*
G04 APERTURE LIST*
%ADD10C,0.00393701*%
%ADD11R,0.06X0.06*%
%ADD12C,0.06*%
%ADD13O,0.06X0.06*%
%ADD14C,0.07*%
%ADD15C,0.0669291*%
%ADD16C,0.15748*%
%ADD17C,0.19685*%
%ADD18C,0.0275591*%
%ADD19C,0.00787402*%
G04 APERTURE END LIST*
G54D10*
G54D11*
X69170Y-42372D03*
G54D12*
X69170Y-41585D03*
X69957Y-42372D03*
X69957Y-41585D03*
G54D13*
X70745Y-42372D03*
X70745Y-41585D03*
X71532Y-42372D03*
X71532Y-41585D03*
X72320Y-42372D03*
X72320Y-41585D03*
X73107Y-42372D03*
X73107Y-41585D03*
X73894Y-42372D03*
X73894Y-41585D03*
G54D14*
X62970Y-24415D03*
X63970Y-24415D03*
G54D15*
X72775Y-33700D03*
X72775Y-32716D03*
X73562Y-33700D03*
X73562Y-32716D03*
G54D16*
X74629Y-35578D03*
X74629Y-30838D03*
G54D17*
X76771Y-23622D03*
X76771Y-41338D03*
X37401Y-41338D03*
X37401Y-23622D03*
G54D18*
X43545Y-27700D03*
X51650Y-29230D03*
X64470Y-41465D03*
X53095Y-30830D03*
X51715Y-28255D03*
X61135Y-24740D03*
X50275Y-29921D03*
X43248Y-29389D03*
X53380Y-31125D03*
X67950Y-40970D03*
X64570Y-31770D03*
X67390Y-27585D03*
X63235Y-32935D03*
X43065Y-30015D03*
X65160Y-31770D03*
X68300Y-26635D03*
X63235Y-33390D03*
X43415Y-29745D03*
X54490Y-31425D03*
X53660Y-31425D03*
X54340Y-30775D03*
X54075Y-31165D03*
X45531Y-26062D03*
X42500Y-27696D03*
X43001Y-30777D03*
X45216Y-30807D03*
X43759Y-29488D03*
X49153Y-27952D03*
X47913Y-28366D03*
X46476Y-29822D03*
X50196Y-27874D03*
X53622Y-39035D03*
X53622Y-36968D03*
X62972Y-26259D03*
X45728Y-37421D03*
X53425Y-25964D03*
X53622Y-34744D03*
X57421Y-30551D03*
X45748Y-39645D03*
X70374Y-29488D03*
X59173Y-34763D03*
X60885Y-31437D03*
X61062Y-33700D03*
X66102Y-29665D03*
X60984Y-35984D03*
X67010Y-36910D03*
X67110Y-34825D03*
X67263Y-31279D03*
X67401Y-32775D03*
X52565Y-31030D03*
X61500Y-41465D03*
X63620Y-33905D03*
X42690Y-30285D03*
X52755Y-42913D03*
X53149Y-42913D03*
X53543Y-42913D03*
X53937Y-42913D03*
X54330Y-42913D03*
X54724Y-42913D03*
X55118Y-42913D03*
X55511Y-42913D03*
X55905Y-42913D03*
X56299Y-42913D03*
X56692Y-42913D03*
X57086Y-42913D03*
X57480Y-42913D03*
X57874Y-42913D03*
X58267Y-42913D03*
X58661Y-42913D03*
X59055Y-42913D03*
X59448Y-42913D03*
X59842Y-42913D03*
X60236Y-42913D03*
X60629Y-42913D03*
X61023Y-42913D03*
X61417Y-42913D03*
X61811Y-42913D03*
X62204Y-42913D03*
X62598Y-42913D03*
X62992Y-42913D03*
X63385Y-42913D03*
X63779Y-42913D03*
X64173Y-42913D03*
X64566Y-42913D03*
X64960Y-42913D03*
X65354Y-42913D03*
X65748Y-42913D03*
X66141Y-42913D03*
X66535Y-42913D03*
X66929Y-42913D03*
X67322Y-42913D03*
X67716Y-42913D03*
X68110Y-42913D03*
X68503Y-42913D03*
X49212Y-22047D03*
X49606Y-22047D03*
X50000Y-22047D03*
X50393Y-22047D03*
X50787Y-22047D03*
X51181Y-22047D03*
X51574Y-22047D03*
X51968Y-22047D03*
X52362Y-22047D03*
X52755Y-22047D03*
X53149Y-22047D03*
X53543Y-22047D03*
X53937Y-22047D03*
X54330Y-22047D03*
X54724Y-22047D03*
X55118Y-22047D03*
X55511Y-22047D03*
X55905Y-22047D03*
X56299Y-22047D03*
X56692Y-22047D03*
X57086Y-22047D03*
X57480Y-22047D03*
X57874Y-22047D03*
X58267Y-22047D03*
X58661Y-22047D03*
X59055Y-22047D03*
X59448Y-22047D03*
X59842Y-22047D03*
X60236Y-22047D03*
X60629Y-22047D03*
X61023Y-22047D03*
X61417Y-22047D03*
X61811Y-22047D03*
X62204Y-22047D03*
X62598Y-22047D03*
X62992Y-22047D03*
X63385Y-22047D03*
X63779Y-22047D03*
X64173Y-22047D03*
X64566Y-22047D03*
X64960Y-22047D03*
X65354Y-22047D03*
X65748Y-22047D03*
X66141Y-22047D03*
X66535Y-22047D03*
X66929Y-22047D03*
X67322Y-22047D03*
X67716Y-22047D03*
X68110Y-22047D03*
X68503Y-22047D03*
X68897Y-22047D03*
X69291Y-22047D03*
X69685Y-22047D03*
X70078Y-22047D03*
X70472Y-22047D03*
X70866Y-22047D03*
X71259Y-22047D03*
X71653Y-22047D03*
X72047Y-22047D03*
X72440Y-22047D03*
X72834Y-22047D03*
X73228Y-22047D03*
X73622Y-22047D03*
X74015Y-22047D03*
X74409Y-22047D03*
X74803Y-22047D03*
X75196Y-22047D03*
X75590Y-22047D03*
X75984Y-22047D03*
X76377Y-22047D03*
X76771Y-22047D03*
X77165Y-22047D03*
X77559Y-22047D03*
X77952Y-22047D03*
X78346Y-22047D03*
X78346Y-22440D03*
X78346Y-22834D03*
X78346Y-23228D03*
X78346Y-23622D03*
X78346Y-24015D03*
X78346Y-24409D03*
X78346Y-24803D03*
X78346Y-25196D03*
X78346Y-25590D03*
X78346Y-25984D03*
X78346Y-26377D03*
X78346Y-26771D03*
X78346Y-27165D03*
X78346Y-27559D03*
X78346Y-27952D03*
X78346Y-28346D03*
X78346Y-28740D03*
X78346Y-29133D03*
X78346Y-29527D03*
X78346Y-29921D03*
X78346Y-30314D03*
X78346Y-30708D03*
X78346Y-31102D03*
X78346Y-31496D03*
X78346Y-31889D03*
X78346Y-32283D03*
X78346Y-32677D03*
X78346Y-33070D03*
X78346Y-33464D03*
X78346Y-33858D03*
X78346Y-34251D03*
X78346Y-34645D03*
X78346Y-35039D03*
X78346Y-35433D03*
X78346Y-35826D03*
X78346Y-36220D03*
X78346Y-36614D03*
X78346Y-37007D03*
X78346Y-37401D03*
X78346Y-37795D03*
X78346Y-38188D03*
X78346Y-38582D03*
X78346Y-38976D03*
X78346Y-39370D03*
X78346Y-39763D03*
X78346Y-40157D03*
X78346Y-40944D03*
X78346Y-40551D03*
X78346Y-41338D03*
X78346Y-41732D03*
X78346Y-42125D03*
X78346Y-42519D03*
X78346Y-42913D03*
X77952Y-42913D03*
X77559Y-42913D03*
X77165Y-42913D03*
X76771Y-42913D03*
X76377Y-42913D03*
X75984Y-42913D03*
X75590Y-42913D03*
X75196Y-42913D03*
X74803Y-42913D03*
X74409Y-42913D03*
X74015Y-42913D03*
X73622Y-42913D03*
X73228Y-42913D03*
X72834Y-42913D03*
X72440Y-42913D03*
X72047Y-42913D03*
X71653Y-42913D03*
X71259Y-42913D03*
X70866Y-42913D03*
X70472Y-42913D03*
X70078Y-42913D03*
X69685Y-42913D03*
X69291Y-42913D03*
X68897Y-42913D03*
X54330Y-26033D03*
X73307Y-39311D03*
X70807Y-39311D03*
X60039Y-30511D03*
X60433Y-29921D03*
X60433Y-29133D03*
X59448Y-29133D03*
X59448Y-29921D03*
X63681Y-37874D03*
X63031Y-38543D03*
X56929Y-34251D03*
X56929Y-32952D03*
X57677Y-35039D03*
X57677Y-34251D03*
X57480Y-32677D03*
X57480Y-31889D03*
X53405Y-28326D03*
X69232Y-29527D03*
X42244Y-38740D03*
X42637Y-39173D03*
X41850Y-39173D03*
X43897Y-40610D03*
X44527Y-40610D03*
X45157Y-40610D03*
X45728Y-40196D03*
X43444Y-40196D03*
X43444Y-37972D03*
X45728Y-37972D03*
X45157Y-38385D03*
X44527Y-38385D03*
X43897Y-38385D03*
X43996Y-24409D03*
X44488Y-24409D03*
X42027Y-24409D03*
X42519Y-24409D03*
X43011Y-24409D03*
X43602Y-24409D03*
X46161Y-24409D03*
X45669Y-24409D03*
X45078Y-24409D03*
X44980Y-25295D03*
X42519Y-26279D03*
X44468Y-25295D03*
X44488Y-25925D03*
X42519Y-25295D03*
X43011Y-25295D03*
X43503Y-25295D03*
X43996Y-25295D03*
X42519Y-26771D03*
X41692Y-24350D03*
X40984Y-24350D03*
X41732Y-25925D03*
X41535Y-25728D03*
X41318Y-25511D03*
X48061Y-27913D03*
X48267Y-28799D03*
X46230Y-26437D03*
X48228Y-26771D03*
X47834Y-26771D03*
X47440Y-26771D03*
X47047Y-26574D03*
X46653Y-26377D03*
X44094Y-32283D03*
X43700Y-32283D03*
X43307Y-32283D03*
X43307Y-32677D03*
X43700Y-32677D03*
X44094Y-32677D03*
X44685Y-32677D03*
X45275Y-32677D03*
X45866Y-31889D03*
X46456Y-31889D03*
X46456Y-32283D03*
X45866Y-32283D03*
X45846Y-31377D03*
X46456Y-32677D03*
X45866Y-32677D03*
X43307Y-31889D03*
X43641Y-31417D03*
X44094Y-31889D03*
X43700Y-31889D03*
X40305Y-28740D03*
X40305Y-28464D03*
X40354Y-30511D03*
X40354Y-29724D03*
X40354Y-27362D03*
X40305Y-28188D03*
X41929Y-26771D03*
X41929Y-26181D03*
X41141Y-26181D03*
X41141Y-26771D03*
X40354Y-26771D03*
X51023Y-40944D03*
X47244Y-42913D03*
X46850Y-42913D03*
X46456Y-42913D03*
X46062Y-42913D03*
X45669Y-42913D03*
X45275Y-42913D03*
X44881Y-42913D03*
X44488Y-42913D03*
X44094Y-42913D03*
X43700Y-42913D03*
X43307Y-42913D03*
X42913Y-42913D03*
X42519Y-42913D03*
X42125Y-42913D03*
X41732Y-42913D03*
X41338Y-42913D03*
X40944Y-42913D03*
X40551Y-42913D03*
X40157Y-42913D03*
X39763Y-42913D03*
X39370Y-42913D03*
X38976Y-42913D03*
X38582Y-42913D03*
X38188Y-42913D03*
X37795Y-42913D03*
X37401Y-42913D03*
X37007Y-42913D03*
X36614Y-42913D03*
X36220Y-42913D03*
X35826Y-42913D03*
X35826Y-42519D03*
X35826Y-42125D03*
X35826Y-41732D03*
X35826Y-41338D03*
X35826Y-40944D03*
X35826Y-40551D03*
X35826Y-40157D03*
X35826Y-39763D03*
X35826Y-39370D03*
X35826Y-38976D03*
X35826Y-38582D03*
X35826Y-38188D03*
X35826Y-37795D03*
X35826Y-37401D03*
X35826Y-37007D03*
X35826Y-36614D03*
X35826Y-36220D03*
X35826Y-35826D03*
X35826Y-35433D03*
X35826Y-35039D03*
X35826Y-34645D03*
X35826Y-34251D03*
X35826Y-33858D03*
X35826Y-33464D03*
X35826Y-33070D03*
X35826Y-32677D03*
X35826Y-32283D03*
X35826Y-31889D03*
X35826Y-31496D03*
X35826Y-31102D03*
X35826Y-30708D03*
X35826Y-30314D03*
X35826Y-29921D03*
X35826Y-29527D03*
X35826Y-29133D03*
X35826Y-28740D03*
X35826Y-28346D03*
X35826Y-27952D03*
X35826Y-27559D03*
X35826Y-27165D03*
X35826Y-26771D03*
X35826Y-26377D03*
X35826Y-25984D03*
X35826Y-25590D03*
X35826Y-25196D03*
X35826Y-24803D03*
X35826Y-24409D03*
X35826Y-24015D03*
X35826Y-23622D03*
X35826Y-23228D03*
X35826Y-22834D03*
X35826Y-22440D03*
X35826Y-22047D03*
X36220Y-22047D03*
X36614Y-22047D03*
X37007Y-22047D03*
X37401Y-22047D03*
X37795Y-22047D03*
X38188Y-22047D03*
X38582Y-22047D03*
X44207Y-28855D03*
X44444Y-28855D03*
X44700Y-28855D03*
X44936Y-28855D03*
X45172Y-28855D03*
X45172Y-28088D03*
X44936Y-28088D03*
X44700Y-28088D03*
X44444Y-28088D03*
X44207Y-28088D03*
X44207Y-28344D03*
X44444Y-28344D03*
X44444Y-28600D03*
X44207Y-28600D03*
X44700Y-28344D03*
X44936Y-28344D03*
X45172Y-28344D03*
X45172Y-28600D03*
X44936Y-28600D03*
X44700Y-28600D03*
X61811Y-35425D03*
X63090Y-35452D03*
X62854Y-31673D03*
X62854Y-32185D03*
X75039Y-28582D03*
X74212Y-28582D03*
X67519Y-28129D03*
X67125Y-28129D03*
X66614Y-28129D03*
X66535Y-27303D03*
X63740Y-26299D03*
X65472Y-32440D03*
X65472Y-32933D03*
X65472Y-33425D03*
X65472Y-34429D03*
X68622Y-34960D03*
X68110Y-34271D03*
X71161Y-39803D03*
X72992Y-39803D03*
X46476Y-33267D03*
X45846Y-33267D03*
X45216Y-33267D03*
X44842Y-33622D03*
X42460Y-34370D03*
X42165Y-34370D03*
X42165Y-36397D03*
X42460Y-36397D03*
X66594Y-37736D03*
X66633Y-35826D03*
X53149Y-36023D03*
X53149Y-36417D03*
X67913Y-37893D03*
X67913Y-37106D03*
X67913Y-36318D03*
X67913Y-35925D03*
X67913Y-36712D03*
X67913Y-37500D03*
X67913Y-38287D03*
X65236Y-36141D03*
X62913Y-34429D03*
X60393Y-33287D03*
X47578Y-22834D03*
X47578Y-22539D03*
X47578Y-22244D03*
X47578Y-21948D03*
X48759Y-24015D03*
X48759Y-23720D03*
X48759Y-23425D03*
X48759Y-23129D03*
X48759Y-22834D03*
X48759Y-22539D03*
X48759Y-22244D03*
X48759Y-21948D03*
X48464Y-24015D03*
X48169Y-24015D03*
X47874Y-24015D03*
X47578Y-24015D03*
X47578Y-23720D03*
X47578Y-23425D03*
X47578Y-23129D03*
X44192Y-23129D03*
X44192Y-23425D03*
X44192Y-23720D03*
X44192Y-24015D03*
X44488Y-24015D03*
X44783Y-24015D03*
X45078Y-24015D03*
X45374Y-21948D03*
X45374Y-22244D03*
X45374Y-22539D03*
X45374Y-22834D03*
X45374Y-23129D03*
X45374Y-23425D03*
X45374Y-23720D03*
X45374Y-24015D03*
X44192Y-21948D03*
X44192Y-22244D03*
X44192Y-22539D03*
X44192Y-22834D03*
X43602Y-21948D03*
X43602Y-22244D03*
X43602Y-22539D03*
X43602Y-22834D03*
X43602Y-23129D03*
X43602Y-23425D03*
X43602Y-23720D03*
X43602Y-24015D03*
X43307Y-24015D03*
X43011Y-24015D03*
X42716Y-24015D03*
X42421Y-24015D03*
X42421Y-23720D03*
X42421Y-23425D03*
X42421Y-23129D03*
X42421Y-21948D03*
X42421Y-22244D03*
X42421Y-22539D03*
X42421Y-22834D03*
X39074Y-23129D03*
X39074Y-23425D03*
X39074Y-23720D03*
X39074Y-24015D03*
X40255Y-21948D03*
X40255Y-22244D03*
X40255Y-22539D03*
X40255Y-22834D03*
X40255Y-23129D03*
X40255Y-23425D03*
X40255Y-23720D03*
X40255Y-24015D03*
X39960Y-24015D03*
X39665Y-24015D03*
X39370Y-24015D03*
X39074Y-21948D03*
X39074Y-22244D03*
X39074Y-22539D03*
X39074Y-22834D03*
X47677Y-43011D03*
X47677Y-42716D03*
X47677Y-42421D03*
X51023Y-43011D03*
X51023Y-42716D03*
X51023Y-42421D03*
X51318Y-40944D03*
X51614Y-40944D03*
X51909Y-40944D03*
X52204Y-40944D03*
X51023Y-41240D03*
X51023Y-41535D03*
X51023Y-41830D03*
X51023Y-42125D03*
X52204Y-41240D03*
X52204Y-43011D03*
X52204Y-42716D03*
X52204Y-42421D03*
X52204Y-42125D03*
X52204Y-41830D03*
X52204Y-41535D03*
X47677Y-41535D03*
X47677Y-41240D03*
X47677Y-40944D03*
X47972Y-40944D03*
X48267Y-40944D03*
X48562Y-40944D03*
X48858Y-40944D03*
X47677Y-41830D03*
X47677Y-42125D03*
X48858Y-43011D03*
X48858Y-42716D03*
X48858Y-42421D03*
X48858Y-42125D03*
X48858Y-41830D03*
X48858Y-41535D03*
X48858Y-41240D03*
X49606Y-32677D03*
X49212Y-32874D03*
X49606Y-32283D03*
X48228Y-32283D03*
X48425Y-32874D03*
X48818Y-32874D03*
X48228Y-32677D03*
X48228Y-31889D03*
X49724Y-27874D03*
X49350Y-28307D03*
X51535Y-31003D03*
X52500Y-31653D03*
X53051Y-34015D03*
X54763Y-29822D03*
X54173Y-26377D03*
X53937Y-25964D03*
X42637Y-37972D03*
X41850Y-37972D03*
X42244Y-38405D03*
X40688Y-38110D03*
X41181Y-39055D03*
X40688Y-39055D03*
X44153Y-31417D03*
X43897Y-31417D03*
X50610Y-25925D03*
X50610Y-25629D03*
X50610Y-26555D03*
X50610Y-26240D03*
X50610Y-26929D03*
X50610Y-25295D03*
X50196Y-24842D03*
X48681Y-26161D03*
X48287Y-26476D03*
X47244Y-26161D03*
X47657Y-26476D03*
X43444Y-26122D03*
X43582Y-26358D03*
X41692Y-29094D03*
X41751Y-27775D03*
X41555Y-28740D03*
X41555Y-28464D03*
X41555Y-28188D03*
X46062Y-26082D03*
X46240Y-26811D03*
X46929Y-27785D03*
X47706Y-27795D03*
X46505Y-31397D03*
X46791Y-31397D03*
X46240Y-31397D03*
X45511Y-31555D03*
X43188Y-31417D03*
X42736Y-31653D03*
X42381Y-32007D03*
X41751Y-32007D03*
X41122Y-32007D03*
X40492Y-32007D03*
X49345Y-28840D03*
X49755Y-29275D03*
X53095Y-33275D03*
X42972Y-28287D03*
X48681Y-25610D03*
X70860Y-28525D03*
X63230Y-36475D03*
X63085Y-35850D03*
X69735Y-28020D03*
X59150Y-35305D03*
X63605Y-35295D03*
X39645Y-31850D03*
X49665Y-24842D03*
X63350Y-34545D03*
X59245Y-33220D03*
X58715Y-33220D03*
X63625Y-34855D03*
X59775Y-33210D03*
X63045Y-33825D03*
G54D10*
G36*
X78547Y-43113D02*
X75535Y-43113D01*
X75535Y-35399D01*
X75535Y-30659D01*
X75398Y-30326D01*
X75143Y-30071D01*
X74810Y-29933D01*
X74450Y-29932D01*
X74117Y-30070D01*
X73862Y-30324D01*
X73724Y-30657D01*
X73724Y-31017D01*
X73861Y-31350D01*
X74116Y-31605D01*
X74449Y-31743D01*
X74809Y-31744D01*
X75142Y-31606D01*
X75397Y-31352D01*
X75535Y-31019D01*
X75535Y-30659D01*
X75535Y-35399D01*
X75398Y-35066D01*
X75143Y-34811D01*
X74810Y-34673D01*
X74450Y-34673D01*
X74117Y-34810D01*
X74016Y-34912D01*
X74016Y-32805D01*
X74015Y-32624D01*
X73947Y-32461D01*
X73882Y-32425D01*
X73854Y-32453D01*
X73854Y-32397D01*
X73818Y-32331D01*
X73651Y-32263D01*
X73471Y-32264D01*
X73307Y-32331D01*
X73271Y-32397D01*
X73562Y-32688D01*
X73854Y-32397D01*
X73854Y-32453D01*
X73590Y-32716D01*
X73882Y-33007D01*
X73947Y-32971D01*
X74016Y-32805D01*
X74016Y-34912D01*
X74015Y-34912D01*
X74015Y-33611D01*
X73947Y-33444D01*
X73854Y-33351D01*
X73854Y-33035D01*
X73562Y-32744D01*
X73535Y-32772D01*
X73535Y-32716D01*
X73243Y-32425D01*
X73178Y-32461D01*
X73169Y-32483D01*
X73159Y-32460D01*
X73032Y-32332D01*
X72866Y-32263D01*
X72685Y-32263D01*
X72519Y-32332D01*
X72391Y-32459D01*
X72322Y-32626D01*
X72322Y-32806D01*
X72391Y-32972D01*
X72518Y-33100D01*
X72685Y-33169D01*
X72865Y-33169D01*
X73031Y-33100D01*
X73159Y-32973D01*
X73169Y-32949D01*
X73178Y-32971D01*
X73243Y-33007D01*
X73535Y-32716D01*
X73535Y-32772D01*
X73271Y-33035D01*
X73307Y-33101D01*
X73474Y-33169D01*
X73654Y-33168D01*
X73818Y-33101D01*
X73854Y-33035D01*
X73854Y-33351D01*
X73819Y-33317D01*
X73653Y-33248D01*
X73473Y-33247D01*
X73306Y-33316D01*
X73179Y-33443D01*
X73169Y-33468D01*
X73159Y-33444D01*
X73032Y-33317D01*
X72866Y-33248D01*
X72685Y-33247D01*
X72519Y-33316D01*
X72391Y-33443D01*
X72322Y-33610D01*
X72322Y-33790D01*
X72391Y-33956D01*
X72518Y-34084D01*
X72685Y-34153D01*
X72865Y-34153D01*
X73031Y-34084D01*
X73159Y-33957D01*
X73169Y-33933D01*
X73178Y-33956D01*
X73306Y-34084D01*
X73472Y-34153D01*
X73652Y-34153D01*
X73819Y-34084D01*
X73946Y-33957D01*
X74015Y-33791D01*
X74015Y-33611D01*
X74015Y-34912D01*
X73862Y-35065D01*
X73724Y-35397D01*
X73724Y-35758D01*
X73861Y-36091D01*
X74116Y-36345D01*
X74449Y-36484D01*
X74809Y-36484D01*
X75142Y-36346D01*
X75397Y-36092D01*
X75535Y-35759D01*
X75535Y-35399D01*
X75535Y-43113D01*
X74320Y-43113D01*
X74320Y-41585D01*
X74288Y-41424D01*
X74197Y-41289D01*
X74062Y-41198D01*
X73902Y-41166D01*
X73885Y-41166D01*
X73725Y-41198D01*
X73590Y-41289D01*
X73500Y-41423D01*
X73410Y-41289D01*
X73275Y-41198D01*
X73115Y-41166D01*
X73098Y-41166D01*
X72938Y-41198D01*
X72803Y-41289D01*
X72713Y-41423D01*
X72623Y-41289D01*
X72488Y-41198D01*
X72328Y-41166D01*
X72311Y-41166D01*
X72151Y-41198D01*
X72016Y-41289D01*
X71926Y-41424D01*
X71835Y-41289D01*
X71700Y-41198D01*
X71540Y-41166D01*
X71523Y-41166D01*
X71363Y-41198D01*
X71228Y-41289D01*
X71138Y-41423D01*
X71115Y-41389D01*
X71115Y-28474D01*
X71077Y-28380D01*
X71005Y-28308D01*
X70911Y-28269D01*
X70809Y-28269D01*
X70715Y-28307D01*
X70643Y-28379D01*
X70604Y-28473D01*
X70604Y-28575D01*
X70642Y-28669D01*
X70714Y-28741D01*
X70808Y-28780D01*
X70910Y-28780D01*
X71004Y-28742D01*
X71076Y-28670D01*
X71115Y-28576D01*
X71115Y-28474D01*
X71115Y-41389D01*
X71048Y-41289D01*
X70913Y-41198D01*
X70753Y-41166D01*
X70736Y-41166D01*
X70629Y-41188D01*
X70629Y-29437D01*
X70591Y-29343D01*
X70519Y-29271D01*
X70425Y-29232D01*
X70323Y-29232D01*
X70229Y-29271D01*
X70157Y-29343D01*
X70118Y-29437D01*
X70118Y-29538D01*
X70156Y-29632D01*
X70228Y-29705D01*
X70322Y-29744D01*
X70424Y-29744D01*
X70518Y-29705D01*
X70590Y-29633D01*
X70629Y-29539D01*
X70629Y-29437D01*
X70629Y-41188D01*
X70576Y-41198D01*
X70441Y-41289D01*
X70350Y-41424D01*
X70348Y-41436D01*
X70311Y-41348D01*
X70194Y-41230D01*
X70040Y-41166D01*
X69990Y-41166D01*
X69990Y-27969D01*
X69952Y-27875D01*
X69880Y-27803D01*
X69786Y-27764D01*
X69684Y-27764D01*
X69590Y-27802D01*
X69518Y-27874D01*
X69479Y-27968D01*
X69479Y-28070D01*
X69517Y-28164D01*
X69589Y-28236D01*
X69683Y-28275D01*
X69785Y-28275D01*
X69879Y-28237D01*
X69951Y-28165D01*
X69990Y-28071D01*
X69990Y-27969D01*
X69990Y-41166D01*
X69874Y-41166D01*
X69720Y-41230D01*
X69602Y-41347D01*
X69563Y-41442D01*
X69524Y-41348D01*
X69407Y-41230D01*
X69253Y-41166D01*
X69087Y-41166D01*
X68933Y-41230D01*
X68815Y-41347D01*
X68751Y-41501D01*
X68751Y-41667D01*
X68815Y-41821D01*
X68932Y-41939D01*
X68968Y-41953D01*
X68846Y-41953D01*
X68803Y-41971D01*
X68769Y-42005D01*
X68751Y-42048D01*
X68751Y-42095D01*
X68751Y-42322D01*
X68781Y-42352D01*
X69150Y-42352D01*
X69150Y-42344D01*
X69189Y-42344D01*
X69189Y-42352D01*
X69197Y-42352D01*
X69197Y-42391D01*
X69189Y-42391D01*
X69189Y-42760D01*
X69219Y-42790D01*
X69493Y-42790D01*
X69536Y-42772D01*
X69570Y-42738D01*
X69588Y-42695D01*
X69588Y-42648D01*
X69588Y-42575D01*
X69600Y-42606D01*
X69662Y-42638D01*
X69929Y-42372D01*
X69662Y-42105D01*
X69600Y-42137D01*
X69588Y-42169D01*
X69588Y-42095D01*
X69588Y-42048D01*
X69570Y-42005D01*
X69536Y-41971D01*
X69493Y-41953D01*
X69372Y-41953D01*
X69406Y-41939D01*
X69524Y-41822D01*
X69563Y-41727D01*
X69602Y-41821D01*
X69719Y-41939D01*
X69813Y-41978D01*
X69722Y-42015D01*
X69690Y-42077D01*
X69957Y-42344D01*
X70223Y-42077D01*
X70191Y-42015D01*
X70099Y-41978D01*
X70193Y-41939D01*
X70311Y-41822D01*
X70348Y-41733D01*
X70350Y-41745D01*
X70441Y-41880D01*
X70576Y-41971D01*
X70619Y-41979D01*
X70509Y-42026D01*
X70395Y-42142D01*
X70355Y-42239D01*
X70313Y-42137D01*
X70251Y-42105D01*
X69984Y-42372D01*
X70251Y-42638D01*
X70313Y-42606D01*
X70354Y-42503D01*
X70395Y-42601D01*
X70509Y-42717D01*
X70660Y-42781D01*
X70725Y-42760D01*
X70725Y-42391D01*
X70717Y-42391D01*
X70717Y-42352D01*
X70725Y-42352D01*
X70725Y-42344D01*
X70764Y-42344D01*
X70764Y-42352D01*
X71133Y-42352D01*
X71138Y-42335D01*
X71143Y-42352D01*
X71512Y-42352D01*
X71512Y-42344D01*
X71551Y-42344D01*
X71551Y-42352D01*
X71920Y-42352D01*
X71926Y-42334D01*
X71931Y-42352D01*
X72300Y-42352D01*
X72300Y-42344D01*
X72339Y-42344D01*
X72339Y-42352D01*
X72708Y-42352D01*
X72713Y-42335D01*
X72718Y-42352D01*
X73087Y-42352D01*
X73087Y-42344D01*
X73126Y-42344D01*
X73126Y-42352D01*
X73495Y-42352D01*
X73500Y-42335D01*
X73505Y-42352D01*
X73874Y-42352D01*
X73874Y-42344D01*
X73913Y-42344D01*
X73913Y-42352D01*
X74282Y-42352D01*
X74303Y-42287D01*
X74243Y-42142D01*
X74129Y-42026D01*
X74019Y-41979D01*
X74062Y-41971D01*
X74197Y-41880D01*
X74288Y-41745D01*
X74320Y-41585D01*
X74320Y-43113D01*
X74303Y-43113D01*
X74303Y-42456D01*
X74282Y-42391D01*
X73913Y-42391D01*
X73913Y-42760D01*
X73978Y-42781D01*
X74129Y-42717D01*
X74243Y-42601D01*
X74303Y-42456D01*
X74303Y-43113D01*
X73874Y-43113D01*
X73874Y-42760D01*
X73874Y-42391D01*
X73505Y-42391D01*
X73500Y-42408D01*
X73495Y-42391D01*
X73126Y-42391D01*
X73126Y-42760D01*
X73191Y-42781D01*
X73342Y-42717D01*
X73456Y-42601D01*
X73500Y-42495D01*
X73544Y-42601D01*
X73658Y-42717D01*
X73809Y-42781D01*
X73874Y-42760D01*
X73874Y-43113D01*
X73087Y-43113D01*
X73087Y-42760D01*
X73087Y-42391D01*
X72718Y-42391D01*
X72713Y-42408D01*
X72708Y-42391D01*
X72339Y-42391D01*
X72339Y-42760D01*
X72404Y-42781D01*
X72555Y-42717D01*
X72669Y-42601D01*
X72713Y-42495D01*
X72757Y-42601D01*
X72871Y-42717D01*
X73022Y-42781D01*
X73087Y-42760D01*
X73087Y-43113D01*
X72300Y-43113D01*
X72300Y-42760D01*
X72300Y-42391D01*
X71931Y-42391D01*
X71926Y-42409D01*
X71920Y-42391D01*
X71551Y-42391D01*
X71551Y-42760D01*
X71616Y-42781D01*
X71767Y-42717D01*
X71881Y-42601D01*
X71926Y-42494D01*
X71970Y-42601D01*
X72084Y-42717D01*
X72235Y-42781D01*
X72300Y-42760D01*
X72300Y-43113D01*
X71512Y-43113D01*
X71512Y-42760D01*
X71512Y-42391D01*
X71143Y-42391D01*
X71138Y-42408D01*
X71133Y-42391D01*
X70764Y-42391D01*
X70764Y-42760D01*
X70829Y-42781D01*
X70980Y-42717D01*
X71094Y-42601D01*
X71138Y-42495D01*
X71182Y-42601D01*
X71296Y-42717D01*
X71447Y-42781D01*
X71512Y-42760D01*
X71512Y-43113D01*
X70223Y-43113D01*
X70223Y-42666D01*
X69957Y-42399D01*
X69690Y-42666D01*
X69722Y-42728D01*
X69876Y-42790D01*
X70043Y-42789D01*
X70191Y-42728D01*
X70223Y-42666D01*
X70223Y-43113D01*
X69150Y-43113D01*
X69150Y-42760D01*
X69150Y-42391D01*
X68781Y-42391D01*
X68751Y-42421D01*
X68751Y-42648D01*
X68751Y-42695D01*
X68769Y-42738D01*
X68803Y-42772D01*
X68846Y-42790D01*
X69120Y-42790D01*
X69150Y-42760D01*
X69150Y-43113D01*
X68555Y-43113D01*
X68555Y-26584D01*
X68517Y-26490D01*
X68445Y-26418D01*
X68351Y-26379D01*
X68249Y-26379D01*
X68155Y-26417D01*
X68083Y-26489D01*
X68044Y-26583D01*
X68044Y-26685D01*
X68082Y-26779D01*
X68154Y-26851D01*
X68248Y-26890D01*
X68350Y-26890D01*
X68444Y-26852D01*
X68516Y-26780D01*
X68555Y-26686D01*
X68555Y-26584D01*
X68555Y-43113D01*
X68205Y-43113D01*
X68205Y-40919D01*
X68167Y-40825D01*
X68095Y-40753D01*
X68001Y-40714D01*
X67899Y-40714D01*
X67805Y-40752D01*
X67733Y-40824D01*
X67694Y-40918D01*
X67694Y-41020D01*
X67732Y-41114D01*
X67804Y-41186D01*
X67898Y-41225D01*
X68000Y-41225D01*
X68094Y-41187D01*
X68166Y-41115D01*
X68205Y-41021D01*
X68205Y-40919D01*
X68205Y-43113D01*
X67657Y-43113D01*
X67657Y-32724D01*
X67645Y-32696D01*
X67645Y-27534D01*
X67607Y-27440D01*
X67535Y-27368D01*
X67441Y-27329D01*
X67339Y-27329D01*
X67245Y-27367D01*
X67173Y-27439D01*
X67134Y-27533D01*
X67134Y-27635D01*
X67172Y-27729D01*
X67244Y-27801D01*
X67338Y-27840D01*
X67440Y-27840D01*
X67534Y-27802D01*
X67606Y-27730D01*
X67645Y-27636D01*
X67645Y-27534D01*
X67645Y-32696D01*
X67618Y-32630D01*
X67546Y-32558D01*
X67519Y-32547D01*
X67519Y-31228D01*
X67480Y-31134D01*
X67408Y-31062D01*
X67314Y-31023D01*
X67213Y-31023D01*
X67119Y-31062D01*
X67046Y-31134D01*
X67007Y-31228D01*
X67007Y-31330D01*
X67046Y-31424D01*
X67118Y-31496D01*
X67212Y-31535D01*
X67314Y-31535D01*
X67408Y-31496D01*
X67480Y-31424D01*
X67519Y-31330D01*
X67519Y-31228D01*
X67519Y-32547D01*
X67452Y-32519D01*
X67350Y-32519D01*
X67256Y-32558D01*
X67184Y-32630D01*
X67145Y-32724D01*
X67145Y-32826D01*
X67184Y-32920D01*
X67256Y-32992D01*
X67350Y-33031D01*
X67452Y-33031D01*
X67546Y-32992D01*
X67618Y-32920D01*
X67657Y-32826D01*
X67657Y-32724D01*
X67657Y-43113D01*
X67365Y-43113D01*
X67365Y-34774D01*
X67327Y-34680D01*
X67255Y-34608D01*
X67161Y-34569D01*
X67059Y-34569D01*
X66965Y-34607D01*
X66893Y-34679D01*
X66854Y-34773D01*
X66854Y-34875D01*
X66892Y-34969D01*
X66964Y-35041D01*
X67058Y-35080D01*
X67160Y-35080D01*
X67254Y-35042D01*
X67326Y-34970D01*
X67365Y-34876D01*
X67365Y-34774D01*
X67365Y-43113D01*
X67265Y-43113D01*
X67265Y-36859D01*
X67227Y-36765D01*
X67155Y-36693D01*
X67061Y-36654D01*
X66959Y-36654D01*
X66865Y-36692D01*
X66793Y-36764D01*
X66754Y-36858D01*
X66754Y-36960D01*
X66792Y-37054D01*
X66864Y-37126D01*
X66958Y-37165D01*
X67060Y-37165D01*
X67154Y-37127D01*
X67226Y-37055D01*
X67265Y-36961D01*
X67265Y-36859D01*
X67265Y-43113D01*
X66358Y-43113D01*
X66358Y-29614D01*
X66319Y-29520D01*
X66247Y-29448D01*
X66153Y-29409D01*
X66051Y-29409D01*
X65957Y-29448D01*
X65885Y-29520D01*
X65846Y-29614D01*
X65846Y-29716D01*
X65885Y-29810D01*
X65957Y-29882D01*
X66051Y-29921D01*
X66153Y-29921D01*
X66247Y-29882D01*
X66319Y-29810D01*
X66358Y-29716D01*
X66358Y-29614D01*
X66358Y-43113D01*
X65415Y-43113D01*
X65415Y-31719D01*
X65377Y-31625D01*
X65305Y-31553D01*
X65211Y-31514D01*
X65109Y-31514D01*
X65015Y-31552D01*
X64943Y-31624D01*
X64904Y-31718D01*
X64904Y-31820D01*
X64942Y-31914D01*
X65014Y-31986D01*
X65108Y-32025D01*
X65210Y-32025D01*
X65304Y-31987D01*
X65376Y-31915D01*
X65415Y-31821D01*
X65415Y-31719D01*
X65415Y-43113D01*
X64825Y-43113D01*
X64825Y-31719D01*
X64787Y-31625D01*
X64715Y-31553D01*
X64621Y-31514D01*
X64519Y-31514D01*
X64438Y-31547D01*
X64438Y-24507D01*
X64437Y-24320D01*
X64367Y-24150D01*
X64300Y-24112D01*
X64272Y-24140D01*
X64272Y-24084D01*
X64234Y-24017D01*
X64062Y-23946D01*
X63875Y-23947D01*
X63705Y-24017D01*
X63667Y-24084D01*
X63970Y-24387D01*
X64272Y-24084D01*
X64272Y-24140D01*
X63997Y-24415D01*
X64300Y-24717D01*
X64367Y-24679D01*
X64438Y-24507D01*
X64438Y-31547D01*
X64425Y-31552D01*
X64353Y-31624D01*
X64314Y-31718D01*
X64314Y-31820D01*
X64352Y-31914D01*
X64424Y-31986D01*
X64518Y-32025D01*
X64620Y-32025D01*
X64714Y-31987D01*
X64786Y-31915D01*
X64825Y-31821D01*
X64825Y-31719D01*
X64825Y-43113D01*
X64725Y-43113D01*
X64725Y-41414D01*
X64687Y-41320D01*
X64615Y-41248D01*
X64521Y-41209D01*
X64419Y-41209D01*
X64325Y-41247D01*
X64272Y-41300D01*
X64272Y-24745D01*
X63970Y-24442D01*
X63942Y-24470D01*
X63942Y-24415D01*
X63639Y-24112D01*
X63572Y-24150D01*
X63501Y-24322D01*
X63502Y-24509D01*
X63572Y-24679D01*
X63639Y-24717D01*
X63942Y-24415D01*
X63942Y-24470D01*
X63667Y-24745D01*
X63705Y-24812D01*
X63877Y-24883D01*
X64064Y-24882D01*
X64234Y-24812D01*
X64272Y-24745D01*
X64272Y-41300D01*
X64253Y-41319D01*
X64214Y-41413D01*
X64214Y-41515D01*
X64252Y-41609D01*
X64324Y-41681D01*
X64418Y-41720D01*
X64520Y-41720D01*
X64614Y-41682D01*
X64686Y-41610D01*
X64725Y-41516D01*
X64725Y-41414D01*
X64725Y-43113D01*
X63880Y-43113D01*
X63880Y-34804D01*
X63875Y-34792D01*
X63875Y-33854D01*
X63837Y-33760D01*
X63765Y-33688D01*
X63671Y-33649D01*
X63569Y-33649D01*
X63490Y-33681D01*
X63490Y-33339D01*
X63452Y-33245D01*
X63380Y-33173D01*
X63354Y-33162D01*
X63379Y-33152D01*
X63451Y-33080D01*
X63490Y-32986D01*
X63490Y-32884D01*
X63452Y-32790D01*
X63438Y-32776D01*
X63438Y-24322D01*
X63367Y-24150D01*
X63235Y-24018D01*
X63063Y-23946D01*
X62877Y-23946D01*
X62705Y-24017D01*
X62573Y-24149D01*
X62501Y-24321D01*
X62501Y-24507D01*
X62572Y-24679D01*
X62704Y-24811D01*
X62876Y-24883D01*
X63062Y-24883D01*
X63234Y-24812D01*
X63366Y-24680D01*
X63438Y-24508D01*
X63438Y-24322D01*
X63438Y-32776D01*
X63380Y-32718D01*
X63286Y-32679D01*
X63228Y-32679D01*
X63228Y-26209D01*
X63189Y-26115D01*
X63117Y-26043D01*
X63023Y-26003D01*
X62921Y-26003D01*
X62827Y-26042D01*
X62755Y-26114D01*
X62716Y-26208D01*
X62716Y-26310D01*
X62755Y-26404D01*
X62827Y-26476D01*
X62921Y-26515D01*
X63023Y-26515D01*
X63117Y-26476D01*
X63189Y-26404D01*
X63228Y-26310D01*
X63228Y-26209D01*
X63228Y-32679D01*
X63184Y-32679D01*
X63090Y-32717D01*
X63018Y-32789D01*
X62979Y-32883D01*
X62979Y-32985D01*
X63017Y-33079D01*
X63089Y-33151D01*
X63115Y-33162D01*
X63090Y-33172D01*
X63018Y-33244D01*
X62979Y-33338D01*
X62979Y-33440D01*
X63017Y-33534D01*
X63052Y-33569D01*
X62994Y-33569D01*
X62900Y-33607D01*
X62828Y-33679D01*
X62789Y-33773D01*
X62789Y-33875D01*
X62827Y-33969D01*
X62899Y-34041D01*
X62993Y-34080D01*
X63095Y-34080D01*
X63189Y-34042D01*
X63261Y-33970D01*
X63300Y-33876D01*
X63300Y-33774D01*
X63262Y-33680D01*
X63227Y-33645D01*
X63285Y-33645D01*
X63379Y-33607D01*
X63451Y-33535D01*
X63490Y-33441D01*
X63490Y-33339D01*
X63490Y-33681D01*
X63475Y-33687D01*
X63403Y-33759D01*
X63364Y-33853D01*
X63364Y-33955D01*
X63402Y-34049D01*
X63474Y-34121D01*
X63568Y-34160D01*
X63670Y-34160D01*
X63764Y-34122D01*
X63836Y-34050D01*
X63875Y-33956D01*
X63875Y-33854D01*
X63875Y-34792D01*
X63842Y-34710D01*
X63770Y-34638D01*
X63676Y-34599D01*
X63604Y-34599D01*
X63605Y-34596D01*
X63605Y-34494D01*
X63567Y-34400D01*
X63495Y-34328D01*
X63401Y-34289D01*
X63299Y-34289D01*
X63205Y-34327D01*
X63133Y-34399D01*
X63094Y-34493D01*
X63094Y-34595D01*
X63132Y-34689D01*
X63204Y-34761D01*
X63298Y-34800D01*
X63370Y-34800D01*
X63369Y-34803D01*
X63369Y-34905D01*
X63407Y-34999D01*
X63478Y-35070D01*
X63460Y-35077D01*
X63388Y-35149D01*
X63349Y-35243D01*
X63349Y-35345D01*
X63387Y-35439D01*
X63459Y-35511D01*
X63553Y-35550D01*
X63655Y-35550D01*
X63749Y-35512D01*
X63821Y-35440D01*
X63860Y-35346D01*
X63860Y-35244D01*
X63822Y-35150D01*
X63751Y-35079D01*
X63769Y-35072D01*
X63841Y-35000D01*
X63880Y-34906D01*
X63880Y-34804D01*
X63880Y-43113D01*
X63485Y-43113D01*
X63485Y-36424D01*
X63447Y-36330D01*
X63375Y-36258D01*
X63340Y-36243D01*
X63340Y-35799D01*
X63302Y-35705D01*
X63230Y-35633D01*
X63136Y-35594D01*
X63034Y-35594D01*
X62940Y-35632D01*
X62868Y-35704D01*
X62829Y-35798D01*
X62829Y-35900D01*
X62867Y-35994D01*
X62939Y-36066D01*
X63033Y-36105D01*
X63135Y-36105D01*
X63229Y-36067D01*
X63301Y-35995D01*
X63340Y-35901D01*
X63340Y-35799D01*
X63340Y-36243D01*
X63281Y-36219D01*
X63179Y-36219D01*
X63085Y-36257D01*
X63013Y-36329D01*
X62974Y-36423D01*
X62974Y-36525D01*
X63012Y-36619D01*
X63084Y-36691D01*
X63178Y-36730D01*
X63280Y-36730D01*
X63374Y-36692D01*
X63446Y-36620D01*
X63485Y-36526D01*
X63485Y-36424D01*
X63485Y-43113D01*
X61755Y-43113D01*
X61755Y-41414D01*
X61717Y-41320D01*
X61645Y-41248D01*
X61551Y-41209D01*
X61449Y-41209D01*
X61390Y-41233D01*
X61390Y-24689D01*
X61352Y-24595D01*
X61280Y-24523D01*
X61186Y-24484D01*
X61084Y-24484D01*
X60990Y-24522D01*
X60918Y-24594D01*
X60879Y-24688D01*
X60879Y-24790D01*
X60917Y-24884D01*
X60989Y-24956D01*
X61083Y-24995D01*
X61185Y-24995D01*
X61279Y-24957D01*
X61351Y-24885D01*
X61390Y-24791D01*
X61390Y-24689D01*
X61390Y-41233D01*
X61355Y-41247D01*
X61318Y-41284D01*
X61318Y-33650D01*
X61280Y-33556D01*
X61208Y-33483D01*
X61141Y-33456D01*
X61141Y-31386D01*
X61102Y-31292D01*
X61030Y-31220D01*
X60936Y-31181D01*
X60835Y-31181D01*
X60741Y-31219D01*
X60669Y-31291D01*
X60629Y-31385D01*
X60629Y-31487D01*
X60668Y-31581D01*
X60740Y-31653D01*
X60834Y-31692D01*
X60936Y-31692D01*
X61030Y-31654D01*
X61102Y-31582D01*
X61141Y-31488D01*
X61141Y-31386D01*
X61141Y-33456D01*
X61114Y-33444D01*
X61012Y-33444D01*
X60918Y-33483D01*
X60846Y-33555D01*
X60807Y-33649D01*
X60807Y-33751D01*
X60845Y-33845D01*
X60917Y-33917D01*
X61011Y-33956D01*
X61113Y-33956D01*
X61207Y-33917D01*
X61279Y-33845D01*
X61318Y-33751D01*
X61318Y-33650D01*
X61318Y-41284D01*
X61283Y-41319D01*
X61244Y-41413D01*
X61244Y-41515D01*
X61282Y-41609D01*
X61354Y-41681D01*
X61448Y-41720D01*
X61550Y-41720D01*
X61644Y-41682D01*
X61716Y-41610D01*
X61755Y-41516D01*
X61755Y-41414D01*
X61755Y-43113D01*
X61240Y-43113D01*
X61240Y-35933D01*
X61201Y-35839D01*
X61129Y-35767D01*
X61035Y-35728D01*
X60933Y-35728D01*
X60839Y-35767D01*
X60767Y-35839D01*
X60728Y-35933D01*
X60728Y-36034D01*
X60767Y-36129D01*
X60839Y-36201D01*
X60933Y-36240D01*
X61034Y-36240D01*
X61129Y-36201D01*
X61201Y-36129D01*
X61240Y-36035D01*
X61240Y-35933D01*
X61240Y-43113D01*
X60030Y-43113D01*
X60030Y-33159D01*
X59992Y-33065D01*
X59920Y-32993D01*
X59826Y-32954D01*
X59724Y-32954D01*
X59630Y-32992D01*
X59558Y-33064D01*
X59519Y-33158D01*
X59519Y-33260D01*
X59557Y-33354D01*
X59629Y-33426D01*
X59723Y-33465D01*
X59825Y-33465D01*
X59919Y-33427D01*
X59991Y-33355D01*
X60030Y-33261D01*
X60030Y-33159D01*
X60030Y-43113D01*
X59500Y-43113D01*
X59500Y-33169D01*
X59462Y-33075D01*
X59390Y-33003D01*
X59296Y-32964D01*
X59194Y-32964D01*
X59100Y-33002D01*
X59028Y-33074D01*
X58989Y-33168D01*
X58989Y-33270D01*
X59027Y-33364D01*
X59099Y-33436D01*
X59193Y-33475D01*
X59295Y-33475D01*
X59389Y-33437D01*
X59461Y-33365D01*
X59500Y-33271D01*
X59500Y-33169D01*
X59500Y-43113D01*
X59429Y-43113D01*
X59429Y-34713D01*
X59390Y-34619D01*
X59318Y-34546D01*
X59224Y-34507D01*
X59122Y-34507D01*
X59028Y-34546D01*
X58970Y-34604D01*
X58970Y-33169D01*
X58932Y-33075D01*
X58860Y-33003D01*
X58766Y-32964D01*
X58664Y-32964D01*
X58570Y-33002D01*
X58498Y-33074D01*
X58459Y-33168D01*
X58459Y-33270D01*
X58497Y-33364D01*
X58569Y-33436D01*
X58663Y-33475D01*
X58765Y-33475D01*
X58859Y-33437D01*
X58931Y-33365D01*
X58970Y-33271D01*
X58970Y-33169D01*
X58970Y-34604D01*
X58956Y-34618D01*
X58917Y-34712D01*
X58917Y-34814D01*
X58956Y-34908D01*
X59028Y-34980D01*
X59122Y-35019D01*
X59223Y-35019D01*
X59317Y-34980D01*
X59390Y-34908D01*
X59429Y-34814D01*
X59429Y-34713D01*
X59429Y-43113D01*
X59405Y-43113D01*
X59405Y-35254D01*
X59367Y-35160D01*
X59295Y-35088D01*
X59201Y-35049D01*
X59099Y-35049D01*
X59005Y-35087D01*
X58933Y-35159D01*
X58894Y-35253D01*
X58894Y-35355D01*
X58932Y-35449D01*
X59004Y-35521D01*
X59098Y-35560D01*
X59200Y-35560D01*
X59294Y-35522D01*
X59366Y-35450D01*
X59405Y-35356D01*
X59405Y-35254D01*
X59405Y-43113D01*
X57677Y-43113D01*
X57677Y-30500D01*
X57638Y-30406D01*
X57566Y-30334D01*
X57472Y-30295D01*
X57370Y-30295D01*
X57276Y-30334D01*
X57204Y-30406D01*
X57165Y-30500D01*
X57165Y-30601D01*
X57204Y-30695D01*
X57276Y-30768D01*
X57370Y-30807D01*
X57471Y-30807D01*
X57566Y-30768D01*
X57638Y-30696D01*
X57677Y-30602D01*
X57677Y-30500D01*
X57677Y-43113D01*
X54745Y-43113D01*
X54745Y-31374D01*
X54707Y-31280D01*
X54635Y-31208D01*
X54541Y-31169D01*
X54439Y-31169D01*
X54345Y-31207D01*
X54326Y-31226D01*
X54330Y-31216D01*
X54330Y-31114D01*
X54296Y-31030D01*
X54390Y-31030D01*
X54484Y-30992D01*
X54556Y-30920D01*
X54595Y-30826D01*
X54595Y-30724D01*
X54557Y-30630D01*
X54485Y-30558D01*
X54391Y-30519D01*
X54289Y-30519D01*
X54195Y-30557D01*
X54123Y-30629D01*
X54084Y-30723D01*
X54084Y-30825D01*
X54118Y-30909D01*
X54024Y-30909D01*
X53930Y-30947D01*
X53858Y-31019D01*
X53819Y-31113D01*
X53819Y-31215D01*
X53823Y-31226D01*
X53805Y-31208D01*
X53711Y-31169D01*
X53681Y-31169D01*
X53681Y-25913D01*
X53642Y-25819D01*
X53570Y-25747D01*
X53476Y-25708D01*
X53374Y-25708D01*
X53280Y-25747D01*
X53208Y-25819D01*
X53169Y-25913D01*
X53169Y-26015D01*
X53208Y-26109D01*
X53280Y-26181D01*
X53374Y-26220D01*
X53475Y-26220D01*
X53569Y-26181D01*
X53642Y-26109D01*
X53681Y-26015D01*
X53681Y-25913D01*
X53681Y-31169D01*
X53635Y-31169D01*
X53635Y-31074D01*
X53597Y-30980D01*
X53525Y-30908D01*
X53431Y-30869D01*
X53350Y-30869D01*
X53350Y-30779D01*
X53312Y-30685D01*
X53240Y-30613D01*
X53146Y-30574D01*
X53044Y-30574D01*
X52950Y-30612D01*
X52878Y-30684D01*
X52839Y-30778D01*
X52839Y-30880D01*
X52877Y-30974D01*
X52949Y-31046D01*
X53043Y-31085D01*
X53124Y-31085D01*
X53124Y-31175D01*
X53162Y-31269D01*
X53234Y-31341D01*
X53328Y-31380D01*
X53404Y-31380D01*
X53404Y-31475D01*
X53442Y-31569D01*
X53514Y-31641D01*
X53608Y-31680D01*
X53710Y-31680D01*
X53804Y-31642D01*
X53876Y-31570D01*
X53915Y-31476D01*
X53915Y-31374D01*
X53911Y-31363D01*
X53929Y-31381D01*
X54023Y-31420D01*
X54125Y-31420D01*
X54219Y-31382D01*
X54238Y-31363D01*
X54234Y-31373D01*
X54234Y-31475D01*
X54272Y-31569D01*
X54344Y-31641D01*
X54438Y-31680D01*
X54540Y-31680D01*
X54634Y-31642D01*
X54706Y-31570D01*
X54745Y-31476D01*
X54745Y-31374D01*
X54745Y-43113D01*
X53877Y-43113D01*
X53877Y-38984D01*
X53877Y-36917D01*
X53877Y-34693D01*
X53839Y-34599D01*
X53767Y-34527D01*
X53673Y-34488D01*
X53571Y-34488D01*
X53477Y-34527D01*
X53405Y-34598D01*
X53366Y-34692D01*
X53366Y-34794D01*
X53404Y-34888D01*
X53476Y-34960D01*
X53570Y-34999D01*
X53672Y-35000D01*
X53766Y-34961D01*
X53838Y-34889D01*
X53877Y-34795D01*
X53877Y-34693D01*
X53877Y-36917D01*
X53839Y-36823D01*
X53767Y-36751D01*
X53673Y-36712D01*
X53571Y-36712D01*
X53477Y-36751D01*
X53405Y-36823D01*
X53366Y-36917D01*
X53366Y-37019D01*
X53404Y-37113D01*
X53476Y-37185D01*
X53570Y-37224D01*
X53672Y-37224D01*
X53766Y-37185D01*
X53838Y-37113D01*
X53877Y-37019D01*
X53877Y-36917D01*
X53877Y-38984D01*
X53839Y-38890D01*
X53767Y-38818D01*
X53673Y-38779D01*
X53571Y-38779D01*
X53477Y-38818D01*
X53405Y-38890D01*
X53366Y-38984D01*
X53366Y-39086D01*
X53404Y-39180D01*
X53476Y-39252D01*
X53570Y-39291D01*
X53672Y-39291D01*
X53766Y-39252D01*
X53838Y-39180D01*
X53877Y-39086D01*
X53877Y-38984D01*
X53877Y-43113D01*
X52820Y-43113D01*
X52820Y-30979D01*
X52782Y-30885D01*
X52710Y-30813D01*
X52616Y-30774D01*
X52514Y-30774D01*
X52420Y-30812D01*
X52348Y-30884D01*
X52309Y-30978D01*
X52309Y-31080D01*
X52347Y-31174D01*
X52419Y-31246D01*
X52513Y-31285D01*
X52615Y-31285D01*
X52709Y-31247D01*
X52781Y-31175D01*
X52820Y-31081D01*
X52820Y-30979D01*
X52820Y-43113D01*
X51970Y-43113D01*
X51970Y-28204D01*
X51932Y-28110D01*
X51860Y-28038D01*
X51766Y-27999D01*
X51664Y-27999D01*
X51570Y-28037D01*
X51498Y-28109D01*
X51459Y-28203D01*
X51459Y-28305D01*
X51497Y-28399D01*
X51569Y-28471D01*
X51663Y-28510D01*
X51765Y-28510D01*
X51859Y-28472D01*
X51931Y-28400D01*
X51970Y-28306D01*
X51970Y-28204D01*
X51970Y-43113D01*
X51905Y-43113D01*
X51905Y-29179D01*
X51867Y-29085D01*
X51795Y-29013D01*
X51701Y-28974D01*
X51599Y-28974D01*
X51505Y-29012D01*
X51433Y-29084D01*
X51394Y-29178D01*
X51394Y-29280D01*
X51432Y-29374D01*
X51504Y-29446D01*
X51598Y-29485D01*
X51700Y-29485D01*
X51794Y-29447D01*
X51866Y-29375D01*
X51905Y-29281D01*
X51905Y-29179D01*
X51905Y-43113D01*
X50531Y-43113D01*
X50531Y-29870D01*
X50492Y-29776D01*
X50452Y-29736D01*
X50452Y-27823D01*
X50413Y-27729D01*
X50341Y-27657D01*
X50247Y-27618D01*
X50146Y-27618D01*
X50052Y-27656D01*
X49980Y-27728D01*
X49940Y-27822D01*
X49940Y-27924D01*
X49979Y-28018D01*
X50051Y-28090D01*
X50145Y-28129D01*
X50247Y-28129D01*
X50341Y-28091D01*
X50413Y-28019D01*
X50452Y-27925D01*
X50452Y-27823D01*
X50452Y-29736D01*
X50420Y-29704D01*
X50326Y-29665D01*
X50224Y-29665D01*
X50130Y-29704D01*
X50058Y-29776D01*
X50019Y-29870D01*
X50019Y-29971D01*
X50058Y-30066D01*
X50130Y-30138D01*
X50224Y-30177D01*
X50326Y-30177D01*
X50420Y-30138D01*
X50492Y-30066D01*
X50531Y-29972D01*
X50531Y-29870D01*
X50531Y-43113D01*
X49921Y-43113D01*
X49921Y-24791D01*
X49882Y-24697D01*
X49810Y-24625D01*
X49716Y-24586D01*
X49614Y-24586D01*
X49520Y-24625D01*
X49448Y-24697D01*
X49409Y-24791D01*
X49409Y-24893D01*
X49448Y-24987D01*
X49520Y-25059D01*
X49614Y-25098D01*
X49716Y-25098D01*
X49810Y-25059D01*
X49882Y-24987D01*
X49921Y-24893D01*
X49921Y-24791D01*
X49921Y-43113D01*
X49409Y-43113D01*
X49409Y-27902D01*
X49370Y-27807D01*
X49298Y-27735D01*
X49204Y-27696D01*
X49102Y-27696D01*
X49008Y-27735D01*
X48937Y-27807D01*
X48937Y-25559D01*
X48898Y-25465D01*
X48826Y-25393D01*
X48732Y-25354D01*
X48630Y-25354D01*
X48536Y-25393D01*
X48464Y-25465D01*
X48425Y-25559D01*
X48425Y-25660D01*
X48464Y-25755D01*
X48535Y-25827D01*
X48629Y-25866D01*
X48731Y-25866D01*
X48825Y-25827D01*
X48897Y-25755D01*
X48936Y-25661D01*
X48937Y-25559D01*
X48937Y-27807D01*
X48936Y-27807D01*
X48897Y-27901D01*
X48897Y-28003D01*
X48936Y-28097D01*
X49008Y-28169D01*
X49102Y-28208D01*
X49204Y-28208D01*
X49298Y-28169D01*
X49370Y-28097D01*
X49409Y-28003D01*
X49409Y-27902D01*
X49409Y-43113D01*
X48169Y-43113D01*
X48169Y-28315D01*
X48130Y-28221D01*
X48058Y-28149D01*
X47964Y-28110D01*
X47862Y-28110D01*
X47768Y-28149D01*
X47696Y-28220D01*
X47657Y-28315D01*
X47657Y-28416D01*
X47696Y-28510D01*
X47768Y-28582D01*
X47862Y-28622D01*
X47964Y-28622D01*
X48058Y-28583D01*
X48130Y-28511D01*
X48169Y-28417D01*
X48169Y-28315D01*
X48169Y-43113D01*
X46732Y-43113D01*
X46732Y-29772D01*
X46693Y-29678D01*
X46621Y-29606D01*
X46527Y-29566D01*
X46425Y-29566D01*
X46331Y-29605D01*
X46259Y-29677D01*
X46220Y-29771D01*
X46220Y-29873D01*
X46259Y-29967D01*
X46331Y-30039D01*
X46425Y-30078D01*
X46527Y-30078D01*
X46621Y-30039D01*
X46693Y-29967D01*
X46732Y-29873D01*
X46732Y-29772D01*
X46732Y-43113D01*
X46003Y-43113D01*
X46003Y-39594D01*
X45984Y-39547D01*
X45984Y-37370D01*
X45945Y-37276D01*
X45873Y-37204D01*
X45787Y-37168D01*
X45787Y-26012D01*
X45748Y-25918D01*
X45676Y-25846D01*
X45582Y-25807D01*
X45480Y-25807D01*
X45386Y-25845D01*
X45314Y-25917D01*
X45275Y-26011D01*
X45275Y-26113D01*
X45314Y-26207D01*
X45386Y-26279D01*
X45480Y-26318D01*
X45582Y-26318D01*
X45676Y-26280D01*
X45748Y-26208D01*
X45787Y-26114D01*
X45787Y-26012D01*
X45787Y-37168D01*
X45779Y-37165D01*
X45677Y-37165D01*
X45583Y-37204D01*
X45511Y-37276D01*
X45472Y-37370D01*
X45472Y-37370D01*
X45472Y-30756D01*
X45433Y-30662D01*
X45361Y-30590D01*
X45267Y-30551D01*
X45165Y-30551D01*
X45071Y-30590D01*
X44999Y-30661D01*
X44960Y-30755D01*
X44960Y-30857D01*
X44999Y-30951D01*
X45071Y-31023D01*
X45165Y-31062D01*
X45267Y-31063D01*
X45361Y-31024D01*
X45433Y-30952D01*
X45472Y-30858D01*
X45472Y-30756D01*
X45472Y-37370D01*
X45472Y-37471D01*
X45511Y-37566D01*
X45583Y-37638D01*
X45677Y-37677D01*
X45779Y-37677D01*
X45873Y-37638D01*
X45945Y-37566D01*
X45984Y-37472D01*
X45984Y-37370D01*
X45984Y-39547D01*
X45965Y-39500D01*
X45893Y-39428D01*
X45799Y-39389D01*
X45697Y-39389D01*
X45603Y-39428D01*
X45531Y-39500D01*
X45492Y-39594D01*
X45492Y-39696D01*
X45530Y-39790D01*
X45602Y-39862D01*
X45696Y-39901D01*
X45798Y-39901D01*
X45892Y-39862D01*
X45964Y-39790D01*
X46003Y-39696D01*
X46003Y-39594D01*
X46003Y-43113D01*
X44015Y-43113D01*
X44015Y-29437D01*
X43976Y-29343D01*
X43904Y-29271D01*
X43810Y-29232D01*
X43800Y-29232D01*
X43800Y-27649D01*
X43762Y-27555D01*
X43690Y-27483D01*
X43596Y-27444D01*
X43494Y-27444D01*
X43400Y-27482D01*
X43328Y-27554D01*
X43289Y-27648D01*
X43289Y-27750D01*
X43327Y-27844D01*
X43399Y-27916D01*
X43493Y-27955D01*
X43595Y-27955D01*
X43689Y-27917D01*
X43761Y-27845D01*
X43800Y-27751D01*
X43800Y-27649D01*
X43800Y-29232D01*
X43709Y-29232D01*
X43615Y-29271D01*
X43543Y-29343D01*
X43503Y-29437D01*
X43503Y-29504D01*
X43481Y-29495D01*
X43503Y-29440D01*
X43503Y-29339D01*
X43465Y-29244D01*
X43393Y-29172D01*
X43299Y-29133D01*
X43228Y-29133D01*
X43228Y-28236D01*
X43189Y-28142D01*
X43117Y-28070D01*
X43023Y-28031D01*
X42921Y-28031D01*
X42827Y-28070D01*
X42755Y-28141D01*
X42755Y-27646D01*
X42717Y-27552D01*
X42645Y-27480D01*
X42551Y-27440D01*
X42449Y-27440D01*
X42355Y-27479D01*
X42283Y-27551D01*
X42244Y-27645D01*
X42244Y-27747D01*
X42282Y-27841D01*
X42354Y-27913D01*
X42448Y-27952D01*
X42550Y-27952D01*
X42644Y-27913D01*
X42716Y-27841D01*
X42755Y-27747D01*
X42755Y-27646D01*
X42755Y-28141D01*
X42755Y-28142D01*
X42716Y-28236D01*
X42716Y-28338D01*
X42755Y-28432D01*
X42827Y-28504D01*
X42921Y-28543D01*
X43023Y-28543D01*
X43117Y-28504D01*
X43189Y-28432D01*
X43228Y-28338D01*
X43228Y-28236D01*
X43228Y-29133D01*
X43197Y-29133D01*
X43103Y-29172D01*
X43031Y-29244D01*
X42992Y-29338D01*
X42992Y-29440D01*
X43030Y-29534D01*
X43102Y-29606D01*
X43181Y-29639D01*
X43159Y-29693D01*
X43159Y-29776D01*
X43116Y-29759D01*
X43014Y-29759D01*
X42920Y-29797D01*
X42848Y-29869D01*
X42809Y-29963D01*
X42809Y-30057D01*
X42741Y-30029D01*
X42639Y-30029D01*
X42545Y-30067D01*
X42473Y-30139D01*
X42434Y-30233D01*
X42434Y-30335D01*
X42472Y-30429D01*
X42544Y-30501D01*
X42638Y-30540D01*
X42740Y-30540D01*
X42834Y-30502D01*
X42906Y-30430D01*
X42945Y-30336D01*
X42945Y-30242D01*
X43013Y-30270D01*
X43115Y-30270D01*
X43209Y-30232D01*
X43281Y-30160D01*
X43320Y-30066D01*
X43320Y-29983D01*
X43363Y-30000D01*
X43465Y-30000D01*
X43559Y-29962D01*
X43631Y-29890D01*
X43670Y-29796D01*
X43670Y-29728D01*
X43708Y-29744D01*
X43810Y-29744D01*
X43904Y-29705D01*
X43976Y-29633D01*
X44015Y-29539D01*
X44015Y-29437D01*
X44015Y-43113D01*
X43257Y-43113D01*
X43257Y-30726D01*
X43219Y-30632D01*
X43147Y-30560D01*
X43053Y-30521D01*
X42951Y-30521D01*
X42857Y-30560D01*
X42785Y-30632D01*
X42746Y-30726D01*
X42746Y-30828D01*
X42784Y-30922D01*
X42856Y-30994D01*
X42950Y-31033D01*
X43052Y-31033D01*
X43146Y-30994D01*
X43218Y-30922D01*
X43257Y-30828D01*
X43257Y-30726D01*
X43257Y-43113D01*
X39901Y-43113D01*
X39901Y-31799D01*
X39862Y-31705D01*
X39790Y-31633D01*
X39696Y-31594D01*
X39594Y-31594D01*
X39500Y-31633D01*
X39428Y-31705D01*
X39389Y-31799D01*
X39389Y-31901D01*
X39428Y-31995D01*
X39500Y-32067D01*
X39594Y-32106D01*
X39696Y-32106D01*
X39790Y-32067D01*
X39862Y-31995D01*
X39901Y-31901D01*
X39901Y-31799D01*
X39901Y-43113D01*
X35626Y-43113D01*
X35626Y-21846D01*
X78547Y-21846D01*
X78547Y-43113D01*
X78547Y-43113D01*
G37*
G54D19*
X78547Y-43113D02*
X75535Y-43113D01*
X75535Y-35399D01*
X75535Y-30659D01*
X75398Y-30326D01*
X75143Y-30071D01*
X74810Y-29933D01*
X74450Y-29932D01*
X74117Y-30070D01*
X73862Y-30324D01*
X73724Y-30657D01*
X73724Y-31017D01*
X73861Y-31350D01*
X74116Y-31605D01*
X74449Y-31743D01*
X74809Y-31744D01*
X75142Y-31606D01*
X75397Y-31352D01*
X75535Y-31019D01*
X75535Y-30659D01*
X75535Y-35399D01*
X75398Y-35066D01*
X75143Y-34811D01*
X74810Y-34673D01*
X74450Y-34673D01*
X74117Y-34810D01*
X74016Y-34912D01*
X74016Y-32805D01*
X74015Y-32624D01*
X73947Y-32461D01*
X73882Y-32425D01*
X73854Y-32453D01*
X73854Y-32397D01*
X73818Y-32331D01*
X73651Y-32263D01*
X73471Y-32264D01*
X73307Y-32331D01*
X73271Y-32397D01*
X73562Y-32688D01*
X73854Y-32397D01*
X73854Y-32453D01*
X73590Y-32716D01*
X73882Y-33007D01*
X73947Y-32971D01*
X74016Y-32805D01*
X74016Y-34912D01*
X74015Y-34912D01*
X74015Y-33611D01*
X73947Y-33444D01*
X73854Y-33351D01*
X73854Y-33035D01*
X73562Y-32744D01*
X73535Y-32772D01*
X73535Y-32716D01*
X73243Y-32425D01*
X73178Y-32461D01*
X73169Y-32483D01*
X73159Y-32460D01*
X73032Y-32332D01*
X72866Y-32263D01*
X72685Y-32263D01*
X72519Y-32332D01*
X72391Y-32459D01*
X72322Y-32626D01*
X72322Y-32806D01*
X72391Y-32972D01*
X72518Y-33100D01*
X72685Y-33169D01*
X72865Y-33169D01*
X73031Y-33100D01*
X73159Y-32973D01*
X73169Y-32949D01*
X73178Y-32971D01*
X73243Y-33007D01*
X73535Y-32716D01*
X73535Y-32772D01*
X73271Y-33035D01*
X73307Y-33101D01*
X73474Y-33169D01*
X73654Y-33168D01*
X73818Y-33101D01*
X73854Y-33035D01*
X73854Y-33351D01*
X73819Y-33317D01*
X73653Y-33248D01*
X73473Y-33247D01*
X73306Y-33316D01*
X73179Y-33443D01*
X73169Y-33468D01*
X73159Y-33444D01*
X73032Y-33317D01*
X72866Y-33248D01*
X72685Y-33247D01*
X72519Y-33316D01*
X72391Y-33443D01*
X72322Y-33610D01*
X72322Y-33790D01*
X72391Y-33956D01*
X72518Y-34084D01*
X72685Y-34153D01*
X72865Y-34153D01*
X73031Y-34084D01*
X73159Y-33957D01*
X73169Y-33933D01*
X73178Y-33956D01*
X73306Y-34084D01*
X73472Y-34153D01*
X73652Y-34153D01*
X73819Y-34084D01*
X73946Y-33957D01*
X74015Y-33791D01*
X74015Y-33611D01*
X74015Y-34912D01*
X73862Y-35065D01*
X73724Y-35397D01*
X73724Y-35758D01*
X73861Y-36091D01*
X74116Y-36345D01*
X74449Y-36484D01*
X74809Y-36484D01*
X75142Y-36346D01*
X75397Y-36092D01*
X75535Y-35759D01*
X75535Y-35399D01*
X75535Y-43113D01*
X74320Y-43113D01*
X74320Y-41585D01*
X74288Y-41424D01*
X74197Y-41289D01*
X74062Y-41198D01*
X73902Y-41166D01*
X73885Y-41166D01*
X73725Y-41198D01*
X73590Y-41289D01*
X73500Y-41423D01*
X73410Y-41289D01*
X73275Y-41198D01*
X73115Y-41166D01*
X73098Y-41166D01*
X72938Y-41198D01*
X72803Y-41289D01*
X72713Y-41423D01*
X72623Y-41289D01*
X72488Y-41198D01*
X72328Y-41166D01*
X72311Y-41166D01*
X72151Y-41198D01*
X72016Y-41289D01*
X71926Y-41424D01*
X71835Y-41289D01*
X71700Y-41198D01*
X71540Y-41166D01*
X71523Y-41166D01*
X71363Y-41198D01*
X71228Y-41289D01*
X71138Y-41423D01*
X71115Y-41389D01*
X71115Y-28474D01*
X71077Y-28380D01*
X71005Y-28308D01*
X70911Y-28269D01*
X70809Y-28269D01*
X70715Y-28307D01*
X70643Y-28379D01*
X70604Y-28473D01*
X70604Y-28575D01*
X70642Y-28669D01*
X70714Y-28741D01*
X70808Y-28780D01*
X70910Y-28780D01*
X71004Y-28742D01*
X71076Y-28670D01*
X71115Y-28576D01*
X71115Y-28474D01*
X71115Y-41389D01*
X71048Y-41289D01*
X70913Y-41198D01*
X70753Y-41166D01*
X70736Y-41166D01*
X70629Y-41188D01*
X70629Y-29437D01*
X70591Y-29343D01*
X70519Y-29271D01*
X70425Y-29232D01*
X70323Y-29232D01*
X70229Y-29271D01*
X70157Y-29343D01*
X70118Y-29437D01*
X70118Y-29538D01*
X70156Y-29632D01*
X70228Y-29705D01*
X70322Y-29744D01*
X70424Y-29744D01*
X70518Y-29705D01*
X70590Y-29633D01*
X70629Y-29539D01*
X70629Y-29437D01*
X70629Y-41188D01*
X70576Y-41198D01*
X70441Y-41289D01*
X70350Y-41424D01*
X70348Y-41436D01*
X70311Y-41348D01*
X70194Y-41230D01*
X70040Y-41166D01*
X69990Y-41166D01*
X69990Y-27969D01*
X69952Y-27875D01*
X69880Y-27803D01*
X69786Y-27764D01*
X69684Y-27764D01*
X69590Y-27802D01*
X69518Y-27874D01*
X69479Y-27968D01*
X69479Y-28070D01*
X69517Y-28164D01*
X69589Y-28236D01*
X69683Y-28275D01*
X69785Y-28275D01*
X69879Y-28237D01*
X69951Y-28165D01*
X69990Y-28071D01*
X69990Y-27969D01*
X69990Y-41166D01*
X69874Y-41166D01*
X69720Y-41230D01*
X69602Y-41347D01*
X69563Y-41442D01*
X69524Y-41348D01*
X69407Y-41230D01*
X69253Y-41166D01*
X69087Y-41166D01*
X68933Y-41230D01*
X68815Y-41347D01*
X68751Y-41501D01*
X68751Y-41667D01*
X68815Y-41821D01*
X68932Y-41939D01*
X68968Y-41953D01*
X68846Y-41953D01*
X68803Y-41971D01*
X68769Y-42005D01*
X68751Y-42048D01*
X68751Y-42095D01*
X68751Y-42322D01*
X68781Y-42352D01*
X69150Y-42352D01*
X69150Y-42344D01*
X69189Y-42344D01*
X69189Y-42352D01*
X69197Y-42352D01*
X69197Y-42391D01*
X69189Y-42391D01*
X69189Y-42760D01*
X69219Y-42790D01*
X69493Y-42790D01*
X69536Y-42772D01*
X69570Y-42738D01*
X69588Y-42695D01*
X69588Y-42648D01*
X69588Y-42575D01*
X69600Y-42606D01*
X69662Y-42638D01*
X69929Y-42372D01*
X69662Y-42105D01*
X69600Y-42137D01*
X69588Y-42169D01*
X69588Y-42095D01*
X69588Y-42048D01*
X69570Y-42005D01*
X69536Y-41971D01*
X69493Y-41953D01*
X69372Y-41953D01*
X69406Y-41939D01*
X69524Y-41822D01*
X69563Y-41727D01*
X69602Y-41821D01*
X69719Y-41939D01*
X69813Y-41978D01*
X69722Y-42015D01*
X69690Y-42077D01*
X69957Y-42344D01*
X70223Y-42077D01*
X70191Y-42015D01*
X70099Y-41978D01*
X70193Y-41939D01*
X70311Y-41822D01*
X70348Y-41733D01*
X70350Y-41745D01*
X70441Y-41880D01*
X70576Y-41971D01*
X70619Y-41979D01*
X70509Y-42026D01*
X70395Y-42142D01*
X70355Y-42239D01*
X70313Y-42137D01*
X70251Y-42105D01*
X69984Y-42372D01*
X70251Y-42638D01*
X70313Y-42606D01*
X70354Y-42503D01*
X70395Y-42601D01*
X70509Y-42717D01*
X70660Y-42781D01*
X70725Y-42760D01*
X70725Y-42391D01*
X70717Y-42391D01*
X70717Y-42352D01*
X70725Y-42352D01*
X70725Y-42344D01*
X70764Y-42344D01*
X70764Y-42352D01*
X71133Y-42352D01*
X71138Y-42335D01*
X71143Y-42352D01*
X71512Y-42352D01*
X71512Y-42344D01*
X71551Y-42344D01*
X71551Y-42352D01*
X71920Y-42352D01*
X71926Y-42334D01*
X71931Y-42352D01*
X72300Y-42352D01*
X72300Y-42344D01*
X72339Y-42344D01*
X72339Y-42352D01*
X72708Y-42352D01*
X72713Y-42335D01*
X72718Y-42352D01*
X73087Y-42352D01*
X73087Y-42344D01*
X73126Y-42344D01*
X73126Y-42352D01*
X73495Y-42352D01*
X73500Y-42335D01*
X73505Y-42352D01*
X73874Y-42352D01*
X73874Y-42344D01*
X73913Y-42344D01*
X73913Y-42352D01*
X74282Y-42352D01*
X74303Y-42287D01*
X74243Y-42142D01*
X74129Y-42026D01*
X74019Y-41979D01*
X74062Y-41971D01*
X74197Y-41880D01*
X74288Y-41745D01*
X74320Y-41585D01*
X74320Y-43113D01*
X74303Y-43113D01*
X74303Y-42456D01*
X74282Y-42391D01*
X73913Y-42391D01*
X73913Y-42760D01*
X73978Y-42781D01*
X74129Y-42717D01*
X74243Y-42601D01*
X74303Y-42456D01*
X74303Y-43113D01*
X73874Y-43113D01*
X73874Y-42760D01*
X73874Y-42391D01*
X73505Y-42391D01*
X73500Y-42408D01*
X73495Y-42391D01*
X73126Y-42391D01*
X73126Y-42760D01*
X73191Y-42781D01*
X73342Y-42717D01*
X73456Y-42601D01*
X73500Y-42495D01*
X73544Y-42601D01*
X73658Y-42717D01*
X73809Y-42781D01*
X73874Y-42760D01*
X73874Y-43113D01*
X73087Y-43113D01*
X73087Y-42760D01*
X73087Y-42391D01*
X72718Y-42391D01*
X72713Y-42408D01*
X72708Y-42391D01*
X72339Y-42391D01*
X72339Y-42760D01*
X72404Y-42781D01*
X72555Y-42717D01*
X72669Y-42601D01*
X72713Y-42495D01*
X72757Y-42601D01*
X72871Y-42717D01*
X73022Y-42781D01*
X73087Y-42760D01*
X73087Y-43113D01*
X72300Y-43113D01*
X72300Y-42760D01*
X72300Y-42391D01*
X71931Y-42391D01*
X71926Y-42409D01*
X71920Y-42391D01*
X71551Y-42391D01*
X71551Y-42760D01*
X71616Y-42781D01*
X71767Y-42717D01*
X71881Y-42601D01*
X71926Y-42494D01*
X71970Y-42601D01*
X72084Y-42717D01*
X72235Y-42781D01*
X72300Y-42760D01*
X72300Y-43113D01*
X71512Y-43113D01*
X71512Y-42760D01*
X71512Y-42391D01*
X71143Y-42391D01*
X71138Y-42408D01*
X71133Y-42391D01*
X70764Y-42391D01*
X70764Y-42760D01*
X70829Y-42781D01*
X70980Y-42717D01*
X71094Y-42601D01*
X71138Y-42495D01*
X71182Y-42601D01*
X71296Y-42717D01*
X71447Y-42781D01*
X71512Y-42760D01*
X71512Y-43113D01*
X70223Y-43113D01*
X70223Y-42666D01*
X69957Y-42399D01*
X69690Y-42666D01*
X69722Y-42728D01*
X69876Y-42790D01*
X70043Y-42789D01*
X70191Y-42728D01*
X70223Y-42666D01*
X70223Y-43113D01*
X69150Y-43113D01*
X69150Y-42760D01*
X69150Y-42391D01*
X68781Y-42391D01*
X68751Y-42421D01*
X68751Y-42648D01*
X68751Y-42695D01*
X68769Y-42738D01*
X68803Y-42772D01*
X68846Y-42790D01*
X69120Y-42790D01*
X69150Y-42760D01*
X69150Y-43113D01*
X68555Y-43113D01*
X68555Y-26584D01*
X68517Y-26490D01*
X68445Y-26418D01*
X68351Y-26379D01*
X68249Y-26379D01*
X68155Y-26417D01*
X68083Y-26489D01*
X68044Y-26583D01*
X68044Y-26685D01*
X68082Y-26779D01*
X68154Y-26851D01*
X68248Y-26890D01*
X68350Y-26890D01*
X68444Y-26852D01*
X68516Y-26780D01*
X68555Y-26686D01*
X68555Y-26584D01*
X68555Y-43113D01*
X68205Y-43113D01*
X68205Y-40919D01*
X68167Y-40825D01*
X68095Y-40753D01*
X68001Y-40714D01*
X67899Y-40714D01*
X67805Y-40752D01*
X67733Y-40824D01*
X67694Y-40918D01*
X67694Y-41020D01*
X67732Y-41114D01*
X67804Y-41186D01*
X67898Y-41225D01*
X68000Y-41225D01*
X68094Y-41187D01*
X68166Y-41115D01*
X68205Y-41021D01*
X68205Y-40919D01*
X68205Y-43113D01*
X67657Y-43113D01*
X67657Y-32724D01*
X67645Y-32696D01*
X67645Y-27534D01*
X67607Y-27440D01*
X67535Y-27368D01*
X67441Y-27329D01*
X67339Y-27329D01*
X67245Y-27367D01*
X67173Y-27439D01*
X67134Y-27533D01*
X67134Y-27635D01*
X67172Y-27729D01*
X67244Y-27801D01*
X67338Y-27840D01*
X67440Y-27840D01*
X67534Y-27802D01*
X67606Y-27730D01*
X67645Y-27636D01*
X67645Y-27534D01*
X67645Y-32696D01*
X67618Y-32630D01*
X67546Y-32558D01*
X67519Y-32547D01*
X67519Y-31228D01*
X67480Y-31134D01*
X67408Y-31062D01*
X67314Y-31023D01*
X67213Y-31023D01*
X67119Y-31062D01*
X67046Y-31134D01*
X67007Y-31228D01*
X67007Y-31330D01*
X67046Y-31424D01*
X67118Y-31496D01*
X67212Y-31535D01*
X67314Y-31535D01*
X67408Y-31496D01*
X67480Y-31424D01*
X67519Y-31330D01*
X67519Y-31228D01*
X67519Y-32547D01*
X67452Y-32519D01*
X67350Y-32519D01*
X67256Y-32558D01*
X67184Y-32630D01*
X67145Y-32724D01*
X67145Y-32826D01*
X67184Y-32920D01*
X67256Y-32992D01*
X67350Y-33031D01*
X67452Y-33031D01*
X67546Y-32992D01*
X67618Y-32920D01*
X67657Y-32826D01*
X67657Y-32724D01*
X67657Y-43113D01*
X67365Y-43113D01*
X67365Y-34774D01*
X67327Y-34680D01*
X67255Y-34608D01*
X67161Y-34569D01*
X67059Y-34569D01*
X66965Y-34607D01*
X66893Y-34679D01*
X66854Y-34773D01*
X66854Y-34875D01*
X66892Y-34969D01*
X66964Y-35041D01*
X67058Y-35080D01*
X67160Y-35080D01*
X67254Y-35042D01*
X67326Y-34970D01*
X67365Y-34876D01*
X67365Y-34774D01*
X67365Y-43113D01*
X67265Y-43113D01*
X67265Y-36859D01*
X67227Y-36765D01*
X67155Y-36693D01*
X67061Y-36654D01*
X66959Y-36654D01*
X66865Y-36692D01*
X66793Y-36764D01*
X66754Y-36858D01*
X66754Y-36960D01*
X66792Y-37054D01*
X66864Y-37126D01*
X66958Y-37165D01*
X67060Y-37165D01*
X67154Y-37127D01*
X67226Y-37055D01*
X67265Y-36961D01*
X67265Y-36859D01*
X67265Y-43113D01*
X66358Y-43113D01*
X66358Y-29614D01*
X66319Y-29520D01*
X66247Y-29448D01*
X66153Y-29409D01*
X66051Y-29409D01*
X65957Y-29448D01*
X65885Y-29520D01*
X65846Y-29614D01*
X65846Y-29716D01*
X65885Y-29810D01*
X65957Y-29882D01*
X66051Y-29921D01*
X66153Y-29921D01*
X66247Y-29882D01*
X66319Y-29810D01*
X66358Y-29716D01*
X66358Y-29614D01*
X66358Y-43113D01*
X65415Y-43113D01*
X65415Y-31719D01*
X65377Y-31625D01*
X65305Y-31553D01*
X65211Y-31514D01*
X65109Y-31514D01*
X65015Y-31552D01*
X64943Y-31624D01*
X64904Y-31718D01*
X64904Y-31820D01*
X64942Y-31914D01*
X65014Y-31986D01*
X65108Y-32025D01*
X65210Y-32025D01*
X65304Y-31987D01*
X65376Y-31915D01*
X65415Y-31821D01*
X65415Y-31719D01*
X65415Y-43113D01*
X64825Y-43113D01*
X64825Y-31719D01*
X64787Y-31625D01*
X64715Y-31553D01*
X64621Y-31514D01*
X64519Y-31514D01*
X64438Y-31547D01*
X64438Y-24507D01*
X64437Y-24320D01*
X64367Y-24150D01*
X64300Y-24112D01*
X64272Y-24140D01*
X64272Y-24084D01*
X64234Y-24017D01*
X64062Y-23946D01*
X63875Y-23947D01*
X63705Y-24017D01*
X63667Y-24084D01*
X63970Y-24387D01*
X64272Y-24084D01*
X64272Y-24140D01*
X63997Y-24415D01*
X64300Y-24717D01*
X64367Y-24679D01*
X64438Y-24507D01*
X64438Y-31547D01*
X64425Y-31552D01*
X64353Y-31624D01*
X64314Y-31718D01*
X64314Y-31820D01*
X64352Y-31914D01*
X64424Y-31986D01*
X64518Y-32025D01*
X64620Y-32025D01*
X64714Y-31987D01*
X64786Y-31915D01*
X64825Y-31821D01*
X64825Y-31719D01*
X64825Y-43113D01*
X64725Y-43113D01*
X64725Y-41414D01*
X64687Y-41320D01*
X64615Y-41248D01*
X64521Y-41209D01*
X64419Y-41209D01*
X64325Y-41247D01*
X64272Y-41300D01*
X64272Y-24745D01*
X63970Y-24442D01*
X63942Y-24470D01*
X63942Y-24415D01*
X63639Y-24112D01*
X63572Y-24150D01*
X63501Y-24322D01*
X63502Y-24509D01*
X63572Y-24679D01*
X63639Y-24717D01*
X63942Y-24415D01*
X63942Y-24470D01*
X63667Y-24745D01*
X63705Y-24812D01*
X63877Y-24883D01*
X64064Y-24882D01*
X64234Y-24812D01*
X64272Y-24745D01*
X64272Y-41300D01*
X64253Y-41319D01*
X64214Y-41413D01*
X64214Y-41515D01*
X64252Y-41609D01*
X64324Y-41681D01*
X64418Y-41720D01*
X64520Y-41720D01*
X64614Y-41682D01*
X64686Y-41610D01*
X64725Y-41516D01*
X64725Y-41414D01*
X64725Y-43113D01*
X63880Y-43113D01*
X63880Y-34804D01*
X63875Y-34792D01*
X63875Y-33854D01*
X63837Y-33760D01*
X63765Y-33688D01*
X63671Y-33649D01*
X63569Y-33649D01*
X63490Y-33681D01*
X63490Y-33339D01*
X63452Y-33245D01*
X63380Y-33173D01*
X63354Y-33162D01*
X63379Y-33152D01*
X63451Y-33080D01*
X63490Y-32986D01*
X63490Y-32884D01*
X63452Y-32790D01*
X63438Y-32776D01*
X63438Y-24322D01*
X63367Y-24150D01*
X63235Y-24018D01*
X63063Y-23946D01*
X62877Y-23946D01*
X62705Y-24017D01*
X62573Y-24149D01*
X62501Y-24321D01*
X62501Y-24507D01*
X62572Y-24679D01*
X62704Y-24811D01*
X62876Y-24883D01*
X63062Y-24883D01*
X63234Y-24812D01*
X63366Y-24680D01*
X63438Y-24508D01*
X63438Y-24322D01*
X63438Y-32776D01*
X63380Y-32718D01*
X63286Y-32679D01*
X63228Y-32679D01*
X63228Y-26209D01*
X63189Y-26115D01*
X63117Y-26043D01*
X63023Y-26003D01*
X62921Y-26003D01*
X62827Y-26042D01*
X62755Y-26114D01*
X62716Y-26208D01*
X62716Y-26310D01*
X62755Y-26404D01*
X62827Y-26476D01*
X62921Y-26515D01*
X63023Y-26515D01*
X63117Y-26476D01*
X63189Y-26404D01*
X63228Y-26310D01*
X63228Y-26209D01*
X63228Y-32679D01*
X63184Y-32679D01*
X63090Y-32717D01*
X63018Y-32789D01*
X62979Y-32883D01*
X62979Y-32985D01*
X63017Y-33079D01*
X63089Y-33151D01*
X63115Y-33162D01*
X63090Y-33172D01*
X63018Y-33244D01*
X62979Y-33338D01*
X62979Y-33440D01*
X63017Y-33534D01*
X63052Y-33569D01*
X62994Y-33569D01*
X62900Y-33607D01*
X62828Y-33679D01*
X62789Y-33773D01*
X62789Y-33875D01*
X62827Y-33969D01*
X62899Y-34041D01*
X62993Y-34080D01*
X63095Y-34080D01*
X63189Y-34042D01*
X63261Y-33970D01*
X63300Y-33876D01*
X63300Y-33774D01*
X63262Y-33680D01*
X63227Y-33645D01*
X63285Y-33645D01*
X63379Y-33607D01*
X63451Y-33535D01*
X63490Y-33441D01*
X63490Y-33339D01*
X63490Y-33681D01*
X63475Y-33687D01*
X63403Y-33759D01*
X63364Y-33853D01*
X63364Y-33955D01*
X63402Y-34049D01*
X63474Y-34121D01*
X63568Y-34160D01*
X63670Y-34160D01*
X63764Y-34122D01*
X63836Y-34050D01*
X63875Y-33956D01*
X63875Y-33854D01*
X63875Y-34792D01*
X63842Y-34710D01*
X63770Y-34638D01*
X63676Y-34599D01*
X63604Y-34599D01*
X63605Y-34596D01*
X63605Y-34494D01*
X63567Y-34400D01*
X63495Y-34328D01*
X63401Y-34289D01*
X63299Y-34289D01*
X63205Y-34327D01*
X63133Y-34399D01*
X63094Y-34493D01*
X63094Y-34595D01*
X63132Y-34689D01*
X63204Y-34761D01*
X63298Y-34800D01*
X63370Y-34800D01*
X63369Y-34803D01*
X63369Y-34905D01*
X63407Y-34999D01*
X63478Y-35070D01*
X63460Y-35077D01*
X63388Y-35149D01*
X63349Y-35243D01*
X63349Y-35345D01*
X63387Y-35439D01*
X63459Y-35511D01*
X63553Y-35550D01*
X63655Y-35550D01*
X63749Y-35512D01*
X63821Y-35440D01*
X63860Y-35346D01*
X63860Y-35244D01*
X63822Y-35150D01*
X63751Y-35079D01*
X63769Y-35072D01*
X63841Y-35000D01*
X63880Y-34906D01*
X63880Y-34804D01*
X63880Y-43113D01*
X63485Y-43113D01*
X63485Y-36424D01*
X63447Y-36330D01*
X63375Y-36258D01*
X63340Y-36243D01*
X63340Y-35799D01*
X63302Y-35705D01*
X63230Y-35633D01*
X63136Y-35594D01*
X63034Y-35594D01*
X62940Y-35632D01*
X62868Y-35704D01*
X62829Y-35798D01*
X62829Y-35900D01*
X62867Y-35994D01*
X62939Y-36066D01*
X63033Y-36105D01*
X63135Y-36105D01*
X63229Y-36067D01*
X63301Y-35995D01*
X63340Y-35901D01*
X63340Y-35799D01*
X63340Y-36243D01*
X63281Y-36219D01*
X63179Y-36219D01*
X63085Y-36257D01*
X63013Y-36329D01*
X62974Y-36423D01*
X62974Y-36525D01*
X63012Y-36619D01*
X63084Y-36691D01*
X63178Y-36730D01*
X63280Y-36730D01*
X63374Y-36692D01*
X63446Y-36620D01*
X63485Y-36526D01*
X63485Y-36424D01*
X63485Y-43113D01*
X61755Y-43113D01*
X61755Y-41414D01*
X61717Y-41320D01*
X61645Y-41248D01*
X61551Y-41209D01*
X61449Y-41209D01*
X61390Y-41233D01*
X61390Y-24689D01*
X61352Y-24595D01*
X61280Y-24523D01*
X61186Y-24484D01*
X61084Y-24484D01*
X60990Y-24522D01*
X60918Y-24594D01*
X60879Y-24688D01*
X60879Y-24790D01*
X60917Y-24884D01*
X60989Y-24956D01*
X61083Y-24995D01*
X61185Y-24995D01*
X61279Y-24957D01*
X61351Y-24885D01*
X61390Y-24791D01*
X61390Y-24689D01*
X61390Y-41233D01*
X61355Y-41247D01*
X61318Y-41284D01*
X61318Y-33650D01*
X61280Y-33556D01*
X61208Y-33483D01*
X61141Y-33456D01*
X61141Y-31386D01*
X61102Y-31292D01*
X61030Y-31220D01*
X60936Y-31181D01*
X60835Y-31181D01*
X60741Y-31219D01*
X60669Y-31291D01*
X60629Y-31385D01*
X60629Y-31487D01*
X60668Y-31581D01*
X60740Y-31653D01*
X60834Y-31692D01*
X60936Y-31692D01*
X61030Y-31654D01*
X61102Y-31582D01*
X61141Y-31488D01*
X61141Y-31386D01*
X61141Y-33456D01*
X61114Y-33444D01*
X61012Y-33444D01*
X60918Y-33483D01*
X60846Y-33555D01*
X60807Y-33649D01*
X60807Y-33751D01*
X60845Y-33845D01*
X60917Y-33917D01*
X61011Y-33956D01*
X61113Y-33956D01*
X61207Y-33917D01*
X61279Y-33845D01*
X61318Y-33751D01*
X61318Y-33650D01*
X61318Y-41284D01*
X61283Y-41319D01*
X61244Y-41413D01*
X61244Y-41515D01*
X61282Y-41609D01*
X61354Y-41681D01*
X61448Y-41720D01*
X61550Y-41720D01*
X61644Y-41682D01*
X61716Y-41610D01*
X61755Y-41516D01*
X61755Y-41414D01*
X61755Y-43113D01*
X61240Y-43113D01*
X61240Y-35933D01*
X61201Y-35839D01*
X61129Y-35767D01*
X61035Y-35728D01*
X60933Y-35728D01*
X60839Y-35767D01*
X60767Y-35839D01*
X60728Y-35933D01*
X60728Y-36034D01*
X60767Y-36129D01*
X60839Y-36201D01*
X60933Y-36240D01*
X61034Y-36240D01*
X61129Y-36201D01*
X61201Y-36129D01*
X61240Y-36035D01*
X61240Y-35933D01*
X61240Y-43113D01*
X60030Y-43113D01*
X60030Y-33159D01*
X59992Y-33065D01*
X59920Y-32993D01*
X59826Y-32954D01*
X59724Y-32954D01*
X59630Y-32992D01*
X59558Y-33064D01*
X59519Y-33158D01*
X59519Y-33260D01*
X59557Y-33354D01*
X59629Y-33426D01*
X59723Y-33465D01*
X59825Y-33465D01*
X59919Y-33427D01*
X59991Y-33355D01*
X60030Y-33261D01*
X60030Y-33159D01*
X60030Y-43113D01*
X59500Y-43113D01*
X59500Y-33169D01*
X59462Y-33075D01*
X59390Y-33003D01*
X59296Y-32964D01*
X59194Y-32964D01*
X59100Y-33002D01*
X59028Y-33074D01*
X58989Y-33168D01*
X58989Y-33270D01*
X59027Y-33364D01*
X59099Y-33436D01*
X59193Y-33475D01*
X59295Y-33475D01*
X59389Y-33437D01*
X59461Y-33365D01*
X59500Y-33271D01*
X59500Y-33169D01*
X59500Y-43113D01*
X59429Y-43113D01*
X59429Y-34713D01*
X59390Y-34619D01*
X59318Y-34546D01*
X59224Y-34507D01*
X59122Y-34507D01*
X59028Y-34546D01*
X58970Y-34604D01*
X58970Y-33169D01*
X58932Y-33075D01*
X58860Y-33003D01*
X58766Y-32964D01*
X58664Y-32964D01*
X58570Y-33002D01*
X58498Y-33074D01*
X58459Y-33168D01*
X58459Y-33270D01*
X58497Y-33364D01*
X58569Y-33436D01*
X58663Y-33475D01*
X58765Y-33475D01*
X58859Y-33437D01*
X58931Y-33365D01*
X58970Y-33271D01*
X58970Y-33169D01*
X58970Y-34604D01*
X58956Y-34618D01*
X58917Y-34712D01*
X58917Y-34814D01*
X58956Y-34908D01*
X59028Y-34980D01*
X59122Y-35019D01*
X59223Y-35019D01*
X59317Y-34980D01*
X59390Y-34908D01*
X59429Y-34814D01*
X59429Y-34713D01*
X59429Y-43113D01*
X59405Y-43113D01*
X59405Y-35254D01*
X59367Y-35160D01*
X59295Y-35088D01*
X59201Y-35049D01*
X59099Y-35049D01*
X59005Y-35087D01*
X58933Y-35159D01*
X58894Y-35253D01*
X58894Y-35355D01*
X58932Y-35449D01*
X59004Y-35521D01*
X59098Y-35560D01*
X59200Y-35560D01*
X59294Y-35522D01*
X59366Y-35450D01*
X59405Y-35356D01*
X59405Y-35254D01*
X59405Y-43113D01*
X57677Y-43113D01*
X57677Y-30500D01*
X57638Y-30406D01*
X57566Y-30334D01*
X57472Y-30295D01*
X57370Y-30295D01*
X57276Y-30334D01*
X57204Y-30406D01*
X57165Y-30500D01*
X57165Y-30601D01*
X57204Y-30695D01*
X57276Y-30768D01*
X57370Y-30807D01*
X57471Y-30807D01*
X57566Y-30768D01*
X57638Y-30696D01*
X57677Y-30602D01*
X57677Y-30500D01*
X57677Y-43113D01*
X54745Y-43113D01*
X54745Y-31374D01*
X54707Y-31280D01*
X54635Y-31208D01*
X54541Y-31169D01*
X54439Y-31169D01*
X54345Y-31207D01*
X54326Y-31226D01*
X54330Y-31216D01*
X54330Y-31114D01*
X54296Y-31030D01*
X54390Y-31030D01*
X54484Y-30992D01*
X54556Y-30920D01*
X54595Y-30826D01*
X54595Y-30724D01*
X54557Y-30630D01*
X54485Y-30558D01*
X54391Y-30519D01*
X54289Y-30519D01*
X54195Y-30557D01*
X54123Y-30629D01*
X54084Y-30723D01*
X54084Y-30825D01*
X54118Y-30909D01*
X54024Y-30909D01*
X53930Y-30947D01*
X53858Y-31019D01*
X53819Y-31113D01*
X53819Y-31215D01*
X53823Y-31226D01*
X53805Y-31208D01*
X53711Y-31169D01*
X53681Y-31169D01*
X53681Y-25913D01*
X53642Y-25819D01*
X53570Y-25747D01*
X53476Y-25708D01*
X53374Y-25708D01*
X53280Y-25747D01*
X53208Y-25819D01*
X53169Y-25913D01*
X53169Y-26015D01*
X53208Y-26109D01*
X53280Y-26181D01*
X53374Y-26220D01*
X53475Y-26220D01*
X53569Y-26181D01*
X53642Y-26109D01*
X53681Y-26015D01*
X53681Y-25913D01*
X53681Y-31169D01*
X53635Y-31169D01*
X53635Y-31074D01*
X53597Y-30980D01*
X53525Y-30908D01*
X53431Y-30869D01*
X53350Y-30869D01*
X53350Y-30779D01*
X53312Y-30685D01*
X53240Y-30613D01*
X53146Y-30574D01*
X53044Y-30574D01*
X52950Y-30612D01*
X52878Y-30684D01*
X52839Y-30778D01*
X52839Y-30880D01*
X52877Y-30974D01*
X52949Y-31046D01*
X53043Y-31085D01*
X53124Y-31085D01*
X53124Y-31175D01*
X53162Y-31269D01*
X53234Y-31341D01*
X53328Y-31380D01*
X53404Y-31380D01*
X53404Y-31475D01*
X53442Y-31569D01*
X53514Y-31641D01*
X53608Y-31680D01*
X53710Y-31680D01*
X53804Y-31642D01*
X53876Y-31570D01*
X53915Y-31476D01*
X53915Y-31374D01*
X53911Y-31363D01*
X53929Y-31381D01*
X54023Y-31420D01*
X54125Y-31420D01*
X54219Y-31382D01*
X54238Y-31363D01*
X54234Y-31373D01*
X54234Y-31475D01*
X54272Y-31569D01*
X54344Y-31641D01*
X54438Y-31680D01*
X54540Y-31680D01*
X54634Y-31642D01*
X54706Y-31570D01*
X54745Y-31476D01*
X54745Y-31374D01*
X54745Y-43113D01*
X53877Y-43113D01*
X53877Y-38984D01*
X53877Y-36917D01*
X53877Y-34693D01*
X53839Y-34599D01*
X53767Y-34527D01*
X53673Y-34488D01*
X53571Y-34488D01*
X53477Y-34527D01*
X53405Y-34598D01*
X53366Y-34692D01*
X53366Y-34794D01*
X53404Y-34888D01*
X53476Y-34960D01*
X53570Y-34999D01*
X53672Y-35000D01*
X53766Y-34961D01*
X53838Y-34889D01*
X53877Y-34795D01*
X53877Y-34693D01*
X53877Y-36917D01*
X53839Y-36823D01*
X53767Y-36751D01*
X53673Y-36712D01*
X53571Y-36712D01*
X53477Y-36751D01*
X53405Y-36823D01*
X53366Y-36917D01*
X53366Y-37019D01*
X53404Y-37113D01*
X53476Y-37185D01*
X53570Y-37224D01*
X53672Y-37224D01*
X53766Y-37185D01*
X53838Y-37113D01*
X53877Y-37019D01*
X53877Y-36917D01*
X53877Y-38984D01*
X53839Y-38890D01*
X53767Y-38818D01*
X53673Y-38779D01*
X53571Y-38779D01*
X53477Y-38818D01*
X53405Y-38890D01*
X53366Y-38984D01*
X53366Y-39086D01*
X53404Y-39180D01*
X53476Y-39252D01*
X53570Y-39291D01*
X53672Y-39291D01*
X53766Y-39252D01*
X53838Y-39180D01*
X53877Y-39086D01*
X53877Y-38984D01*
X53877Y-43113D01*
X52820Y-43113D01*
X52820Y-30979D01*
X52782Y-30885D01*
X52710Y-30813D01*
X52616Y-30774D01*
X52514Y-30774D01*
X52420Y-30812D01*
X52348Y-30884D01*
X52309Y-30978D01*
X52309Y-31080D01*
X52347Y-31174D01*
X52419Y-31246D01*
X52513Y-31285D01*
X52615Y-31285D01*
X52709Y-31247D01*
X52781Y-31175D01*
X52820Y-31081D01*
X52820Y-30979D01*
X52820Y-43113D01*
X51970Y-43113D01*
X51970Y-28204D01*
X51932Y-28110D01*
X51860Y-28038D01*
X51766Y-27999D01*
X51664Y-27999D01*
X51570Y-28037D01*
X51498Y-28109D01*
X51459Y-28203D01*
X51459Y-28305D01*
X51497Y-28399D01*
X51569Y-28471D01*
X51663Y-28510D01*
X51765Y-28510D01*
X51859Y-28472D01*
X51931Y-28400D01*
X51970Y-28306D01*
X51970Y-28204D01*
X51970Y-43113D01*
X51905Y-43113D01*
X51905Y-29179D01*
X51867Y-29085D01*
X51795Y-29013D01*
X51701Y-28974D01*
X51599Y-28974D01*
X51505Y-29012D01*
X51433Y-29084D01*
X51394Y-29178D01*
X51394Y-29280D01*
X51432Y-29374D01*
X51504Y-29446D01*
X51598Y-29485D01*
X51700Y-29485D01*
X51794Y-29447D01*
X51866Y-29375D01*
X51905Y-29281D01*
X51905Y-29179D01*
X51905Y-43113D01*
X50531Y-43113D01*
X50531Y-29870D01*
X50492Y-29776D01*
X50452Y-29736D01*
X50452Y-27823D01*
X50413Y-27729D01*
X50341Y-27657D01*
X50247Y-27618D01*
X50146Y-27618D01*
X50052Y-27656D01*
X49980Y-27728D01*
X49940Y-27822D01*
X49940Y-27924D01*
X49979Y-28018D01*
X50051Y-28090D01*
X50145Y-28129D01*
X50247Y-28129D01*
X50341Y-28091D01*
X50413Y-28019D01*
X50452Y-27925D01*
X50452Y-27823D01*
X50452Y-29736D01*
X50420Y-29704D01*
X50326Y-29665D01*
X50224Y-29665D01*
X50130Y-29704D01*
X50058Y-29776D01*
X50019Y-29870D01*
X50019Y-29971D01*
X50058Y-30066D01*
X50130Y-30138D01*
X50224Y-30177D01*
X50326Y-30177D01*
X50420Y-30138D01*
X50492Y-30066D01*
X50531Y-29972D01*
X50531Y-29870D01*
X50531Y-43113D01*
X49921Y-43113D01*
X49921Y-24791D01*
X49882Y-24697D01*
X49810Y-24625D01*
X49716Y-24586D01*
X49614Y-24586D01*
X49520Y-24625D01*
X49448Y-24697D01*
X49409Y-24791D01*
X49409Y-24893D01*
X49448Y-24987D01*
X49520Y-25059D01*
X49614Y-25098D01*
X49716Y-25098D01*
X49810Y-25059D01*
X49882Y-24987D01*
X49921Y-24893D01*
X49921Y-24791D01*
X49921Y-43113D01*
X49409Y-43113D01*
X49409Y-27902D01*
X49370Y-27807D01*
X49298Y-27735D01*
X49204Y-27696D01*
X49102Y-27696D01*
X49008Y-27735D01*
X48937Y-27807D01*
X48937Y-25559D01*
X48898Y-25465D01*
X48826Y-25393D01*
X48732Y-25354D01*
X48630Y-25354D01*
X48536Y-25393D01*
X48464Y-25465D01*
X48425Y-25559D01*
X48425Y-25660D01*
X48464Y-25755D01*
X48535Y-25827D01*
X48629Y-25866D01*
X48731Y-25866D01*
X48825Y-25827D01*
X48897Y-25755D01*
X48936Y-25661D01*
X48937Y-25559D01*
X48937Y-27807D01*
X48936Y-27807D01*
X48897Y-27901D01*
X48897Y-28003D01*
X48936Y-28097D01*
X49008Y-28169D01*
X49102Y-28208D01*
X49204Y-28208D01*
X49298Y-28169D01*
X49370Y-28097D01*
X49409Y-28003D01*
X49409Y-27902D01*
X49409Y-43113D01*
X48169Y-43113D01*
X48169Y-28315D01*
X48130Y-28221D01*
X48058Y-28149D01*
X47964Y-28110D01*
X47862Y-28110D01*
X47768Y-28149D01*
X47696Y-28220D01*
X47657Y-28315D01*
X47657Y-28416D01*
X47696Y-28510D01*
X47768Y-28582D01*
X47862Y-28622D01*
X47964Y-28622D01*
X48058Y-28583D01*
X48130Y-28511D01*
X48169Y-28417D01*
X48169Y-28315D01*
X48169Y-43113D01*
X46732Y-43113D01*
X46732Y-29772D01*
X46693Y-29678D01*
X46621Y-29606D01*
X46527Y-29566D01*
X46425Y-29566D01*
X46331Y-29605D01*
X46259Y-29677D01*
X46220Y-29771D01*
X46220Y-29873D01*
X46259Y-29967D01*
X46331Y-30039D01*
X46425Y-30078D01*
X46527Y-30078D01*
X46621Y-30039D01*
X46693Y-29967D01*
X46732Y-29873D01*
X46732Y-29772D01*
X46732Y-43113D01*
X46003Y-43113D01*
X46003Y-39594D01*
X45984Y-39547D01*
X45984Y-37370D01*
X45945Y-37276D01*
X45873Y-37204D01*
X45787Y-37168D01*
X45787Y-26012D01*
X45748Y-25918D01*
X45676Y-25846D01*
X45582Y-25807D01*
X45480Y-25807D01*
X45386Y-25845D01*
X45314Y-25917D01*
X45275Y-26011D01*
X45275Y-26113D01*
X45314Y-26207D01*
X45386Y-26279D01*
X45480Y-26318D01*
X45582Y-26318D01*
X45676Y-26280D01*
X45748Y-26208D01*
X45787Y-26114D01*
X45787Y-26012D01*
X45787Y-37168D01*
X45779Y-37165D01*
X45677Y-37165D01*
X45583Y-37204D01*
X45511Y-37276D01*
X45472Y-37370D01*
X45472Y-37370D01*
X45472Y-30756D01*
X45433Y-30662D01*
X45361Y-30590D01*
X45267Y-30551D01*
X45165Y-30551D01*
X45071Y-30590D01*
X44999Y-30661D01*
X44960Y-30755D01*
X44960Y-30857D01*
X44999Y-30951D01*
X45071Y-31023D01*
X45165Y-31062D01*
X45267Y-31063D01*
X45361Y-31024D01*
X45433Y-30952D01*
X45472Y-30858D01*
X45472Y-30756D01*
X45472Y-37370D01*
X45472Y-37471D01*
X45511Y-37566D01*
X45583Y-37638D01*
X45677Y-37677D01*
X45779Y-37677D01*
X45873Y-37638D01*
X45945Y-37566D01*
X45984Y-37472D01*
X45984Y-37370D01*
X45984Y-39547D01*
X45965Y-39500D01*
X45893Y-39428D01*
X45799Y-39389D01*
X45697Y-39389D01*
X45603Y-39428D01*
X45531Y-39500D01*
X45492Y-39594D01*
X45492Y-39696D01*
X45530Y-39790D01*
X45602Y-39862D01*
X45696Y-39901D01*
X45798Y-39901D01*
X45892Y-39862D01*
X45964Y-39790D01*
X46003Y-39696D01*
X46003Y-39594D01*
X46003Y-43113D01*
X44015Y-43113D01*
X44015Y-29437D01*
X43976Y-29343D01*
X43904Y-29271D01*
X43810Y-29232D01*
X43800Y-29232D01*
X43800Y-27649D01*
X43762Y-27555D01*
X43690Y-27483D01*
X43596Y-27444D01*
X43494Y-27444D01*
X43400Y-27482D01*
X43328Y-27554D01*
X43289Y-27648D01*
X43289Y-27750D01*
X43327Y-27844D01*
X43399Y-27916D01*
X43493Y-27955D01*
X43595Y-27955D01*
X43689Y-27917D01*
X43761Y-27845D01*
X43800Y-27751D01*
X43800Y-27649D01*
X43800Y-29232D01*
X43709Y-29232D01*
X43615Y-29271D01*
X43543Y-29343D01*
X43503Y-29437D01*
X43503Y-29504D01*
X43481Y-29495D01*
X43503Y-29440D01*
X43503Y-29339D01*
X43465Y-29244D01*
X43393Y-29172D01*
X43299Y-29133D01*
X43228Y-29133D01*
X43228Y-28236D01*
X43189Y-28142D01*
X43117Y-28070D01*
X43023Y-28031D01*
X42921Y-28031D01*
X42827Y-28070D01*
X42755Y-28141D01*
X42755Y-27646D01*
X42717Y-27552D01*
X42645Y-27480D01*
X42551Y-27440D01*
X42449Y-27440D01*
X42355Y-27479D01*
X42283Y-27551D01*
X42244Y-27645D01*
X42244Y-27747D01*
X42282Y-27841D01*
X42354Y-27913D01*
X42448Y-27952D01*
X42550Y-27952D01*
X42644Y-27913D01*
X42716Y-27841D01*
X42755Y-27747D01*
X42755Y-27646D01*
X42755Y-28141D01*
X42755Y-28142D01*
X42716Y-28236D01*
X42716Y-28338D01*
X42755Y-28432D01*
X42827Y-28504D01*
X42921Y-28543D01*
X43023Y-28543D01*
X43117Y-28504D01*
X43189Y-28432D01*
X43228Y-28338D01*
X43228Y-28236D01*
X43228Y-29133D01*
X43197Y-29133D01*
X43103Y-29172D01*
X43031Y-29244D01*
X42992Y-29338D01*
X42992Y-29440D01*
X43030Y-29534D01*
X43102Y-29606D01*
X43181Y-29639D01*
X43159Y-29693D01*
X43159Y-29776D01*
X43116Y-29759D01*
X43014Y-29759D01*
X42920Y-29797D01*
X42848Y-29869D01*
X42809Y-29963D01*
X42809Y-30057D01*
X42741Y-30029D01*
X42639Y-30029D01*
X42545Y-30067D01*
X42473Y-30139D01*
X42434Y-30233D01*
X42434Y-30335D01*
X42472Y-30429D01*
X42544Y-30501D01*
X42638Y-30540D01*
X42740Y-30540D01*
X42834Y-30502D01*
X42906Y-30430D01*
X42945Y-30336D01*
X42945Y-30242D01*
X43013Y-30270D01*
X43115Y-30270D01*
X43209Y-30232D01*
X43281Y-30160D01*
X43320Y-30066D01*
X43320Y-29983D01*
X43363Y-30000D01*
X43465Y-30000D01*
X43559Y-29962D01*
X43631Y-29890D01*
X43670Y-29796D01*
X43670Y-29728D01*
X43708Y-29744D01*
X43810Y-29744D01*
X43904Y-29705D01*
X43976Y-29633D01*
X44015Y-29539D01*
X44015Y-29437D01*
X44015Y-43113D01*
X43257Y-43113D01*
X43257Y-30726D01*
X43219Y-30632D01*
X43147Y-30560D01*
X43053Y-30521D01*
X42951Y-30521D01*
X42857Y-30560D01*
X42785Y-30632D01*
X42746Y-30726D01*
X42746Y-30828D01*
X42784Y-30922D01*
X42856Y-30994D01*
X42950Y-31033D01*
X43052Y-31033D01*
X43146Y-30994D01*
X43218Y-30922D01*
X43257Y-30828D01*
X43257Y-30726D01*
X43257Y-43113D01*
X39901Y-43113D01*
X39901Y-31799D01*
X39862Y-31705D01*
X39790Y-31633D01*
X39696Y-31594D01*
X39594Y-31594D01*
X39500Y-31633D01*
X39428Y-31705D01*
X39389Y-31799D01*
X39389Y-31901D01*
X39428Y-31995D01*
X39500Y-32067D01*
X39594Y-32106D01*
X39696Y-32106D01*
X39790Y-32067D01*
X39862Y-31995D01*
X39901Y-31901D01*
X39901Y-31799D01*
X39901Y-43113D01*
X35626Y-43113D01*
X35626Y-21846D01*
X78547Y-21846D01*
X78547Y-43113D01*
M02*
